<mxfile host="app.diagrams.net" modified="2024-04-02T07:12:05.255Z" agent="Mozilla/5.0 (Windows NT 10.0; Win64; x64) AppleWebKit/537.36 (KHTML, like Gecko) Chrome/123.0.0.0 Safari/537.36" version="24.2.1" etag="_v7XUiillev5dcoQDNq_" type="device">
  <diagram id="sCPG1AK4fbG-RlWU08DR" name="페이지-1">
    <mxGraphModel dx="929" dy="2020" grid="1" gridSize="10" guides="1" tooltips="1" connect="1" arrows="1" fold="1" page="1" pageScale="1" pageWidth="690" pageHeight="980" math="0" shadow="0">
      <root>
        <mxCell id="0" />
        <mxCell id="1" parent="0" />
        <mxCell id="bQvXC9ChqrMoX_zcABg8-2" value="" style="shape=image;verticalLabelPosition=bottom;labelBackgroundColor=default;verticalAlign=top;aspect=fixed;imageAspect=0;image=data:image/png,iVBORw0KGgoAAAANSUhEUgAAAVQAAAByCAIAAACDcr59AAAAAXNSR0IArs4c6QAAAARnQU1BAACxjwv8YQUAAAAJcEhZcwAADsMAAA7DAcdvqGQAABFpSURBVHhe7Z2xrt1GDobvQ8WA3abPA6QyDNjnERbYZrdxkSr3FdKmSef7FGkCpEqaNK6CLRYBHDiJN0sOORyKM9IZSSONjg4/EOdyKGnIkebX6J44Vw/ffPPNfxvRsCvHcbaGxf93C6Ar9m6H9+/fs3cf9BrvveWtoXttLn4X/x64+HNc/J1x8e+Diz/Hxd8ZF/8+uPhzXPyKnx9fvHj8mRuBPNIaF/8M6HIsuig3LP6ny0Pg8sSBUWaemTsQP5wROnnM5WnsHOXxRfNsFqULYCsGNq5iP8oTLow4jXH6Ai26KKN5paugsesCm8nEeIXJpFBW9WhlOHWnqKa20alXl2KaXcRfWWW+Z4sRTlO+AMT22fdnXISXi4x2bOAUX3RarogfnG1usFfykj+hf9xafUfSw6kYzfXaJqjcbZIe4tfnSN/eCvHN19xq8WNNcRaE1eAJtoJguEzeZEZ0PKYmHAyLhkFNPXwd0fFqpvLCpz5d2NTnENuDMz8nd5XApGlTh6cRIlxw9mmr7oR8jthexqgWP5bBMeybMsUU4ab9GB+b0oYryZGOj/0y18y5w6EmLV0fwiqqxR8uAZVFDmyV88slZyMi/0hMTzgeADX1EHREx6sZz/tiuOaXzqHE1MZK6gRG/ZZSFwdLO+pN5E8flTFaGyslIB2alDqX6EVTca76rfyhaEW8Kej982NbM0P88XTyj8FWiA2WhsC1c9+DK2IgR3/qHfJ4NeMTPSxbOhGfPYLO4fDMz2GG+Iup9Z56B3MeyJeI3jROXW0MhCltahdz0X7EtRq6iv9qPN+nNXPET3MkzsDBVgjSLwLbVrueqxMO3MtjaOoBkq8/KV7NdF74ybIe6Xxw5udQJTBqFlNLEBwRU76/iehN48wSP56Cq+IH3xQZ3DE6/s6PoxlczBTnA/RYNmKW+ENBqjjZyiVnIzoeFRMuzjIcLI8GXYrIZ4jXcy0vZ6DshXOI2+OZn0PleEPGUmrZUx3CteKP0vnhdmEQhjnih9qgQ/jURYQUen/l4/ZCPwMO8oVfnG0Ux6sQYuob6I2YJ34d0sXLlTYjouCRqJpwcY7JaPhC0G5m5zoqRYgtyQqkrYuyTuTlBIDqNk+t0sZZmaal7D44P2rn2CpTURsAfWBnPMOMq4oh8iIn2F78x2ZK/DlwauWEqit9Q8wbbzvW5tVnfg69xltD99pc/DMuAMzAuMS7+OexMu/gzM/BxT+Bi/+4k2MLblT8i3HxT+Did/HvgYs/x8XfGRf/Prj4cw4hfsdx7pB7X/md0/Pv1XBHp8PF75wcVvAKuKPT4eJ3To4IWDtjTUD7BEROiYvfOTlawOTIZ94EtE9A5JQUxP/hw4fff//906dP3K5mSvy3+U9inBMgAhYZS1McaQLaJyBySsrif/369a+//vrXX39xqI4k/lzqxxf/RIWnvHPBoPQ/PldjDFuY9uPWvdM/2xtE8iKW/dO+hAhYO2NNQPsERE5JWfyff/75Av2fduW/6eLHwEGp//kjjhFFlwaL/59I46Hrk0n/Yl9HMH1Uu46vQAScO8YHjE9w+3SMih/48ssvf/zxxz/++IM3XKOw8uO1jLS4kBtCNYfP8EeRELMwHXwE86Dxyj+ap2b+P9BwvB2DDkP6PEJuo9Ss4BVwR6djSvzAF198Afr/+PEjb5skEz9cyHglm8+h5lCF8Kn/n0mq+fjFLyAOitUmw7cjVWpsgkoBrl355ZwDhWKWwApeAXd0Oq6IHwD9w/N/zfpvxa8vXqMLuSETNR+/+AWY0elP2oHZQPz8IBUfpfIIUSjGacmWK7++eMe/kBM1H7/4BahBgct/umuw8gaajz3vUCLg6BtN89TOkCnxz1I+YMWvZhJe1oNfSKpZTzjxsfqmq98R0CPFK8WrLo51GE+tJgzyBnQEE8ZTne/pNGVU/K9fv/7ll1/+/PNPjlaQiZ8nFc6rij8q1BmqWU845dM4Dj6CeRhpwQhjE7aEi4a0v+eZvMAwErLrP4V8utvuYSiLf+1/53cc5/CUxb9A+YCL33FuiIL4F+Pid5wbgsX/vgUufse5IRqv/P/57dNtGZRtIue2XuPtmPcf//zXSjN9trLuc8/F7+LfwzrmNUpeYKbPVtZ97rn4Xfx7WMe8JOAPH/+nnbGm8clMn62s+9xz8bv497COeUnAIGmtc1G4aRqfzPTZyrrPPRe/i38P65iXBCwiN2o3TeOTmT5bWfe5t5n4f/j6s2dffy/NoxqUzf5EwTcylhpL4/3uzYMMCgb48Pztd/Cpef72B9rEfPbVT3zsfEt59zXISwIeU7tpGp/M9NnKep0TMRd/xQU4pfh/+/Ttq4eX37GDwi4M891LugWQ/+qd2jTPqs7zBgZ5ScBG7eQYn5raJzN9trJe50RsI/H/9PaZLBfvwKdJxpMJVphnb17GHXhTWmFktu1hUDb7NPXD59tXXEqoTY9l+dJ3EEvjBZMhP7z5VpqyFQ2uV9i02gZ5dzTIKxpebKbPVtbrnIjtsvLDEyYtGuTgbIsKhwhOLzXJClNwQ4Oy2ae8WFu8H8mD8b4lbWppvMFwzX/2PLv/BsKQYQdkxZpPZvLuZpDXKHmBmT5bWa9zIrbPYz9rm58z7ab8t802q02NQdnsU1W6NvEHBd+2pfGSFcebG96jV90CbN69rFfeGute206/8wfZx+V9sCmKv5O6oGz2qaqiGIZjuWlL4yUrjrds6ulsvtm8e1mvvDXWvbYtxa/nCjbj78x6kvGjNUys+LC9r0HZ7FNVujbxsfj9HkY2tTResuJ4xSAiq32+dY7ZvHtZr7w11r22zcQff12MX5L99PZZ/D0ftSREUengikk216Bs9mly6ymu/OFYbtjSeMnMeMPpj8D1Sl92rvwi1ubdy3rlrbHutW0o/oHJl2dgesL1NijbRM5tvcZ7b3lrrHttO4mfv+qjpou/n/Ua773lrbHute218h/VoGwTObf1Gu+95a2x7rWx+PnPcawDuoLxOI5zEzRe+dlznMPAr91ZAXd0Olz8zslhBa+AOzodLn7n5IiAtTPWBLRPQOSUuPidk6MFTI585k1A+wRETomLvxH5i2iqCO+nWfZOmg1epXVKRMAiY2mKI01A+wRETomLvxGLxI/SHyj/6ZI6ia86S3tkEfWOrdnoY7EO/YYsImwOdydicaq+iIC1M9YEtE9A5JS4+BuxRPwD7bLKYgC2kcTlBpFHBu58pEOuozAEXeHTZXGmroiAc8f4gPEJbp+ObcQfptGjXqf0xCIfPy+XMOEvT9CIe/YCS5D8rAsuCwnVh8rDuGhP2I2hV1wPhnz1cK0sIuwQIlwAwsE8Ytz50MHwST0X+lJJbxZW8Aq4o9OxmfhFyTTF9cRKcy6EYAdxZJ8epJmez3mK6HGFRtpLb8oHUjicTwM3iBTSFZCfR6y7ADj6BdyDqYNQXiJeE2RFiu6wglfAHZ2ODVd+ntfkT0RypxdRSOk3bygpTH5E10ybdLXFTROHZx0gKaQ1TX4eCRR6mYM+fKIrSAhIfucUuPg1UEGQmdQjKzjVpis01eab4HPi8KwDJIVyeY8IXt8TFqC7KhSkWZnJORw7ij9OHXQpQvvkTj+ghMslrvuqHnCzpRtjSQ16E/kqgrvaw4OadBNQO4jU8Njg5RHyTR/z0MfnfUFERrg2k3M49hJ/+Bkefx/waz6IyD650xGsUuY76q1cM4E7M/SFH2+Ku105fKh+1ZmIXbWQPIIHpXIXoEvSFSBUMTdCk/ZzTsI24nfqWKvdwd3Dcebh4u9LWFqX6R+fA1z6znJc/I5zp7D4+c9xrMPF7zg3ROOV3/ydoOMblG0i57Ze4+2Y17x+Z4GZPltZ97nn4nfx72Ed8xolLzDTZyvrPvdc/C7+PaxjXhKwvHVXXsVbbBqfzPTZyrrPPRe/i38P65iXBAyS1joXhZum8clMn62s+9xz8Te6AAtfRhBeibPsBZj48szZb9FpNt6Z1jEvCVhEbtRumsYnM322sl7nROww4u/0Jg8o20QW2qL6v//q+VD5716mTvD9hQF5TWAW0e9BqrM0XvMOpcK7ksOdBTcxa95W1uw8zzTISwIeU7tpGp/M9NnKep0TMRd/R/GHNxTHpRtvBEDsRN5xJDeIPEIPDrNecKrHKx2Cg8IuDEFX+O7lsieUYM3O80yDvCRgo3ZyjE9N7ZOZPltZr3Mito34wzR6iy+3DGtUWj1iU6856KcXQvIs5Naql0PWGJTNPibVayz6LEgkLoN6XGkpfnj5lWwKTVEpUzo8X7f5bFDPsRgO5hH0IcWsBTmNF4z6gU/qWXUbTSVdZ4O8OxrkFQ0vNtNnK+t1TsQ2E3965TYqZLBk6UkmfgqWZ/lGBmWLn14oCLI0qxxFBuMarrp6U67qwuEl3RZPAvt5JPh5qZOmxwuGa/6z51xSKC8RKoEdkDkpimby7maQ1yh5gZk+W1mvcyK24crPs9/4MGuLW7UT5ltEZvwmBmWnZhTSt6/iE4cuBsorVp43xZ84vJX4h31etcF4wfThE13BmQFW3AJs3r2sV94a617bIcUvW7c3KFs1YTEPMpNK5PcOqkrXZurMN8HnxOH14ufgiODXrfyDroblZabvPrPN5t3LeuWtse61bS9+nDT8rJse++M0wgjtmYJp/x0MytZNqOflqzesSTUKrnMwruyxXzaRf+XwoFvdBFM7yO8gfNJKEfKX/84Plpctmygid5Z86xyzefeyXnlrrHttO4g/NMOTrzzD4/QNfAZKU9MdIzCV0/7p2++NDMoeRDB1Wt/4N16pc3Rc/IUfb4q7XTkcb3Px0UCdEyCIHG+CAaknj6z6th9Nl6SGE4Da0hexK798tXn3sl55a6x7bduI/3YMyjaRPU2v4Ussf3a4Zr3Ge295a6x7bS7+vhcgLK3L9I9fws1ejXuN997y1lj32lz8x50cW1iv8d5b3hrrXhuLn/8cxzqgKxiP4zg3QeOVnz3HOQz82p0VcEenw8XvnBxW8Aq4o9Ph4ndOjghYO2NNQPsERE6Ji985OVrA5Mhn3gS0T0DklLj4G6FffTMD/7v9myMCFhlLUxxpAtonIHJKziX+hQpswaLUKH1SfrgJELGbitd1rXljjz4Ws794fEo1BMLmQmE3hghYO2NNQPsERE6Ji78RS1Ir/T1djKDhR7otBC+PDNz5SIecsjAE3sL+4kxdEQHnjvEB4xPcPh3biR/mDYNzBmdpaoV5drmE0OWJt/FuxTgdgi0gTEfc8/FxsBSaPWaCR3Mq0UXq0SalPdUYw4s6h/VcO1wrKxF2+pkLSIFYkooYdz50MHxSz4W+VNKbhRW8Au7odGwkfplQBIqEmrwBf4SJhluiwxOxFMcfsT+ao7hnDPE+xek7g5RDZWMoopPGoTDFeoTC4SPFclRXQH4ese4C4OgXcLulDkJ5iVAc7ICsSNEdVvAKuKPTsY34zbzWTZxhYVGniHEm4mESRlQP+c4UXEAU0lN8Qz92yBmDGIpJieKmicOzDgIoxhDTmiY/jwRKvcxAHz7RFSQEJL9zCm5H/NQUdCQ/aiFwfJCZ9CYrOPWs+ze58k3wOXF41oFSPvlG3iOCV+El6K6ygoaszOQcjn6P/TTPjDMWVz0wsoP2wVk3QaGDyyWu+yoFdgy+ithkehP5KoK72sOHYuc9qIGI1HBL8PII+YPD5qKPz/uCiIxwbSbncGz2hR/MlfC0C+D8Sc0wm2QmGWcsTg73MPUEjjcJ/nV1EZhF5jv3hh3CHcEkBVRJ9IWfqefK4bid26onZHi01JNH8LhU7gJ0SaYIPsvcWHNSnWOymfidCtZqN909HGc2Lv6+hKV1mf7xOcCl7yzHxe84dwqLn/8cxzpc/I5zQzzwT8dx7gwXv+PcKS5+x7lTXPyOc6e4+B3nTnHxO86d4uJ3nDvFxe84d4qL33Hukr///j8B+6Z5WJvXbQAAAABJRU5ErkJggg==;" vertex="1" parent="1">
          <mxGeometry x="50" y="10" width="507.02" height="170" as="geometry" />
        </mxCell>
        <mxCell id="bQvXC9ChqrMoX_zcABg8-4" value="" style="shape=image;verticalLabelPosition=bottom;labelBackgroundColor=default;verticalAlign=top;aspect=fixed;imageAspect=0;image=data:image/png,iVBORw0KGgoAAAANSUhEUgAAAfIAAAB9CAIAAADWYnY+AAAAAXNSR0IArs4c6QAAAARnQU1BAACxjwv8YQUAAAAJcEhZcwAADsMAAA7DAcdvqGQAABckSURBVHhe7Z29jhy30obnoiRASp37AhwtFtDOJRzgJMeJAkXaW3CqRJn2KpQIcCQlThwJX2B8gA3/HZ8iq1gsFtk9Pf0z3dPzPiiMitVssljd/TZ3ZGsPP/zwwy+//PLPHNBQ4m2Vn3/+WbzbYK313tq8gEDx16KuPGR9z9yavEJZVgTFX4u68pD1PXNr8gplWREUfy3qykPW98ytySuUZUVQ/LWoK78lWf/y+PLl4xdpROrING7tzpu0Xi7+qEuwVp1nmPfpeIgcnyTQydw357Vzaw/Xdqgrv7ys093PD4pwfOp6Hur43E9O687z+RG7eVrbT1pccV5j/+UYdQk659Whonqels4z6Vmv0jsppTV4tbqcUSXaH0OK3/lsoYYTqCt/EVkfeMHqnnNf7Padx+zxxuqW1+NRV9u1cI6PKkv3vHEocpZ5dZ6Yl/0eZQ9HB79r7HIWWc2Vcbr4PaCGE6grv4as2+fBvsMb8Zl3zu07jynyDBmk5zvu4J7oKEmhJCWHXP7bo+9Jo2XxMrhpl28jNj6Yvnnp05YrNG0NQ7uo/DlzD1IWbfqp408QTLzg4vNROwj7EvGj3CyDih8IdZZYKB6XMtUw7jce089y+cCtV7ePuvIrfgmjuuKek3DVs27OejXbdx7j5tLs2KGjemNJglX+7G+J/idNFsBNuwQbsfHBdM/7stynt2qoMXNwIMOUhcdtTd1cLHe0h9jvP+v26Cy+PPgRrZirqS2mPv6W82+G26Gu/Hq79Xj9DEnubf/63Gm07zzGzyX3kfxRHKVYsZ2LbPGmOyFz7NhP26GOD6b7CY87MTuRVI/hGpaVP4cT6xXiwM2pbU/bwdWBfY3YQzfMsOILFOa65nazmNyPQZE7qCu/qqyfjNd9ptG+85hqrvj0J20pjlKQv5aZM7clOPmkkXt8jE27QPbtJ8cH0z8v/SmC3TF4UflzGKQs3GxOrUFyVEXq/i5iD90wg4qv0OU9Kevku6sQXeCoK7/id+vhwhYPbo7LCfayzkL7zmOaeeqdZ49KglX+22PAk5Yer7BYWU1wOaKfMT6cU/PKDDx7o4bheKr8OQxcb5yxNbX2NKdIruGPVn2k3VjErTGg+AoVnypGn7bKsYa2v/HD8cY4IFBXfiN/ZZqUhePhiYsx899rzEL7zmPqPG3IpqrPsMufg1ti0JOWHi5djZSdu7nOwxgor6GlsxL56KhZe+aVCQgzbD21mTbdg/km1O5FfUzn1LpRBhSfoCKFaskj5FxTbaa+CqCmrvzysr4l2ndeF3RP6Z1knuEr4rz1zsfUeW3lz2Gt9QICxV+LuvKQ9U5IW9K2HLJ+HhPnLSp/DlCWFUHx16KuPGR9z6y13lubFxAo/lrUlYes75lbk1coy4qg+GtRVx6yvmduTV6hLCuC4q9FXfkg6wAAAK4XkfPEbe3Wwe75fjIyEABXC2Qd7ArR5gnIQABcLZB1sCtUmq3T1SSsz1AEgKsGsg52hZVmdvSzbhLWZygCwFXTkPVff/31t99++/vvv6U9mD5Zv87/nQdcHSrNKtDaVEebhPUZigBw1bRl/dWrV1+/fv3rr78kNIws67WIb03We/LZ5RuIFmX/0RKzxnhEmH/ddnT+X0eLSJ3EuP+9NKPSbJ2uJmF9hiLgEpib8DRndV6ILeQwjLasf/PNNyOUfSe79StKdThhUeZfS0prpD+Nlod/WGnmpdti8r/0YiNh+qTjNj4BlebacT7hfEbaYGlmuuKX43oS7pR14rvvvvvxxx//+OMPOXCKxm49PLeJTVWEM4yf8TdsBdxm8rpuuRPwevUfW+Fm/U9qSXw+igHj9HWE3ZmmFm2egAwEJkAXU54ivsHsxRU/dylbHT+u8Vnxs3xgCbqLBP7lAfo789wkcRDa3IS2/iIVGaTR84qVoU/WiW+//ZaU/ffff5djvVSyHsqdq7apYnA+8UpJhipxW0t1FtKiREd1+X6lRmdnwUxBbqiwnVRrTjSSGYNo8wRkIDALfEPZi6t+DlInue0o1r4BuXM4nI7LzVOeYTvYmzmfHqcMEyYn/Nns6SZKh2Js45yQdYKU/evXr0P27F7WbRW2VpGeDLeW6iy41dlP7iCY+3sWaArZ4qRNTh1hGsmAq8VdZXtx1a8d9pt3IPdxPV2EcB0kA8b8pOicnp51Zw5umyV3683SbISeDLeW6iyYRZErv+gu70MSs6+9HlAj5NgHePapwVqEK5uuJV9We3HVrx32Z5R1e4jQiHN6elq/7rZV+mT9LE0nvKwb1aCAE5CV4QztdVI/5DrrjnUL2JWG6yI75bDWMp5bs1DMG7GRMGEqdd0TXCnmUsoNFv6QCy0R8TiY7wPTsYQO8Dh6k4hfnmE7FLdXRI96p7un9clpJ7c5OmX91atXP/30059//inRAVSyLgISNGRrv7OKM2xevJT1pvKdil0pQStMTToSL1Fg/nvWzUuUkTh7/H3fi6UALk967rt/ZaDpFlr5Luy4Afi2sTeP+vlc+StTvbvsoTCNPaV2pF/Z0/a5HmVoy/rU/24dAADASrRlfYSmE5B1AMAc6HZf2f4WeUM0ZH00kHUAAFgdkfWf5wCyDgAAqzPzbv3//v/vLRsl6SL7trXWe2vzwshQ/LWMKu+ArO/Z1lrvrc0LI0Px1zKqvAOyvmdba723Ni+MDMVfy6jyDsj6nm2t9d7avDAyFH8to8o7Nibrn94+e/72owvOZ5SkiwRbeNIVrb3e5e3W5oWRofhrGVXecT2yPof4UpIuEmz0pHp0jtyWsLze9w8HzZCyPbx4/Z4+LS9ef+JDwrM3n+Xc861d5+XNz0urVu4/+MvETbNkKQIfkgjRDBJSw1yoMODD3XM5rFSV/Py67nP/kAZ/eMcTUcLplHf3h3D56gT8JfvQGFlmj5MW98DJKR7epaNDLBe/zPPufSOo1TPodFWq6muzCLbq2XH3fnzzQnpwn46symvaqnyRfLpDxGz+/dea8aWQig02qrwDsj5h0jlSWtTseum55duFHLmhffIf7vIN+uHOPPPnWrvOy5udNz7AWZje3Ue5tEvmpg2Sz6ecDOqhoONG9+1ZrnNtro82G8O+CIcaY3ZcsrpnY8xTU9itwADLxbeDkM86ZYN6qDl+iHdUVZvNc7sGTBZuidzh8+v71jghUs3e7pYi5NtXoBshB03/E6Odp+xUeccysh6zfE3vf30e+DWUbsH8zuTF5A4SMS9VPiW/9Mp3bFm7U0ZJ5ubUSc1Rev3SCNQhXM4QuXsvR6utynkJTzS/Xk6yS6SCRpi7c4IV817QzLxU/6rUbslakBxMFTgdjMYRkj/WU9uh7lyb66PN6Lx784L3jOF9/CYeaozZccmqnnRv02jyRk8dTk1x3v2Qi+9m52aVUp0kWzPV06PpIRfMRss5dUtoxF3Trm7SLArl82ez/U+M1urQa1R5x2Kynl84Zs2cbjgqkbCHCh2M/Ln1NJ6ZakD2Bxglmfw5JnUOffJ9Q6erEzqMT3iimfUGC7fa8xfVmyYSs6IOAd30jTU378UszxtWl2qu5orPTRuU61X2tMFYHsGcG2SRqmrPsn6XuT7aFCfeNuzrp8wdiZ3bl0yHEksvOb/A1hTpxLDLSf4QK4pfnJhmiZkKPJc0GL5eXamm0bjppzCHXFCt6xSZPWJGLq5pd7cwiKYarMqfzfbvHy2YUYwBRpV3LLhbb68hpEtJs9PqzL49SyP1ocB56xd/lkntUXJc08blLOaMhCdaXi+bJuZ8Z3RHEhPE3c97KWtfXzUX5CZ9xqsSsMWRUBl0Y2pEh+rpXJvr40ZLkl2IS9eY7pJ1jRwevSg6PVOEQKRrrg7rLr55eeRg3c0FfapFhxPntiwflZ+kwwLrUzTCjv103eIYAXso90z5+3jptyOxYrl5wqjyjovIuluDGKVOlNebffrUiujR2jnfKEnx7SDs0+e5k7qjXWdp8+KW18tmMzmR1Xk3ljM/76XMzFs+VGxuye7qkKNL7g+qmQjtbeV7jOpQp7k+2rQOz84R19+buWRlz7DvNoQvB0ZO0Wfth0ub9citufpSZesaTQ+5YLbylugax0TyNe3pRo6WvZm/6+/8ZqTu0GtUecfysh7lW37wT0fvZLX8A0sudygKnWhOl0g8K5WvGnCwUZLJn2NSPcrn6gjeGZ/wRDPrjaaJOV8jXdu9M83Peymz88YHLD9v6eu+/GCHDrReu9Kw5zUXtCfIVkTCVc4btyEFdH202TVRM968ZEXPsDnNtx9/OdAcqhkfbLn4xSDp5u+a0UaaqZ68amqnks/PNRl3PpFVuqb93fQOaedf9R8w6VlyQZV3XEDWYzO+uwIhHosVkbdZqEts8t896jeGJkLdOCgv8Hg0YCc6ZZRkbs4xqRzNf2Ua400nnhdI517AivWSaT7sS0IMPTnph9NAfpBGmJ/3UubmjcqeYPmrL4StiZwS/4OzZlDOZHy3zse4y9qXo/v7ityH6b5kbuRitKiSLnMyncLFB1sufpFnyqoIEt055EgSdHsudyhGSy9vf3rD7C3hH+pAxzU91a152+T8ybe5NUcTnzDXcZhR5R3LyPpWjZJ0kX3bWuu9tXlhZCj+WkaVd0DW92xrrffW5j1l+cfTxNk7su3bxop/EzVno8o7IOt7trXWe2vzwshQ/LWMKu8QWZdfhDENGkpGBQAAsBIz79bFA2Alvp+MDATA1QJZB7tCtHkCMhAAVwtkHewKlWbrdDUJ6zMUAeCqgayDXWGlmR39rJuE9RmKAHDVbFXWvzy+fPn4RRrbY2R6dNrhcHyS1lk8HQ+HLVdkK6g0q0BrUx1tEtZnKALAVbM9WWfF3KOsB1EvNP3pmAcJsh3RHlWEAqNrEl8o+WyTfzwijB5+O6g0W6erSVifoQgAVw1266MYk16hyiKmKUDHWLxDPHp1pHDPJSR8PFotj24YMScVXiS5dZ2oNNeO8wnnM9IG4GpZTNaDYDBJP4KshPbxSY5l2RK05/K79TCrKqRIaDOTx7Bn5p5B9Zjjox6Kze6F5NPpbLei2CFGVMM1WEeceyZ8po6aZynHGz/BVhBtnoAMBMDVspCsV6pEn6wgdEQdpyB8kvZ3R+cmp2iSFTSTJNlxGaaXPdSzkHy6LEsaTA7ZDNivI949jzSXDMDNRk6jJ9gKos0TkIEAuFqWkXXSC962CnGDzgrSdKRbFHyO69HlSAqWv+FuZhKP5GyZ5qGe06sBAjlkxZT9OhJpjDIMPZEd+8kdBDsvAOAqWUzWnV44WVGHPnWvqxH9jOHFoDmigPJEXZnEgETYJ+pD9NlzejVAIIdq4e6Q8tGqawYhl79E2uWXMACA5b6EKfVH9cI5RkfIzZtcE18OmuR4THv1rkxihGN5RfYQ+yYSuvrTY0lskzAdVK7DudGrI+y7MYZSnBmuDicTBi/jI8cHAGyGC/yVafmNROVEjYm9+L/U4Lh2WxSaxWh1OxM5WKwo7XZTPPonTg/Hc9sMpjJuWoE6Ek7K6Z6FS8bkUmUCALhuFpN1UDFBlSPFewEAANpA1i9J3BmPU/awd4eoAwBOA1kHAIBdIbIuvwhjGpB1AABYnZl36+63MW3NKEkX2bettd4V5/3Xv/8z0dyYsIF2aw/Xdowq74Cs79nWWu+K8zqNHmFuTNhAu7WHaztGlXdA1vdsa613xXlZmn/9/b/W6Wo6n82NCRtot/Zwbceo8g7I+p5trfWuOC9LM4m1VXDVbtd0PpsbEzbQbu3h2o5R5R2Q9VH26e2z528/uuBp+/z6+eFw/6GKD7D3D4fDi9efqnivzbbeM23FeVmaVb6djrum89ncmLCBttZFh1HlHZD1UTZK1j++eVFq+oe7PMiHO/k/PR/edUVI2c+cNK+XEj4cnr35nJtpqJBVIneYZrPV+UyjeVmau3TcNZ3P5saEDbS1LjqMKu+ArI+yMbJOMp232yKmaZB394e79ykepb+O8GafgwMtrzck/HD3PCWQ8g+D54WEF8ksyj5bnc80mpel2ek4O87npvXZ3JiwgbbWRYdR5R3LyLqISNwBHqISqQ6SI9tPEindmV7IKEnxcxpkJGfBN/vWKH8x59f31OSeun0+3L3RQ7Gp+iu0Tq/32lqTlIAJ1pHg0xRnyW6xXhqEcuA3RJ6l/GLHzDXF8ryXNZpX1Xm0uTFhA22tiw6jyjsWk3XVi/ClMClUls67+4eog/YriAsZJam+bodDhu77bo6EVejuuNwp20O1XjdObyly1lAj4uLXkejXqfZaXm+aS1bNzZyAmp13vNk6X9JoXqfRI8yNCRtoa110GFXesdxuXfWClCJI/Lt7/nx4R0dZ9c5RqFmMkszNJJGcWIhQSrzbJpzqFSsqm+r3nD6XrJdjnrS8Xpuk5tYYzc473oo6X9DWmhdGhuKvZVR5x+VkPezT3/MOPX798p737Bc1StI0+Vug9EMD5aw/YdSq5xSwPkSfPacPl3UJdkj55N06+eFCxC+RdvkljIvALmYo/lpGlXcsL+v6HcWnt3fPRdo+vnm4u38oBOUiRknaZhC4+wdR21L4qu129SWMHmL/xOmmDmqmw7C/Mg2+fzf0Wl5vkQypufxtraRq4meN32WuzhezteaFkaH4axlV3rHcd+uK/lBv9oa1xl3EKMkiEvLM3zmQkjLPSOspPafLZlFpt5vi0T9xerk1DnqaiPIdpTZgy+Ui5atlgOX1umRM/atMZjBf50vZWvPCyFD8tYwq77jAlzAbMkrSRS5pdt89xs5/F6613lubF0aG4q9lVHkHZP2SFrbbI5WdNN19Dz7A1lrvrc0LI0Px1zKqvGMZWd+qUZIusm9ba723Ni+MDMVfy6jyDpF1+UUY06ChZFQAAAArMfNuXTwAVuL7ychAAFwtkHWwK0SbJyADAXC1QNbBrlBptk5Xk7A+QxEArhrIOtgVVprZ0c+6SVifoQgAVw1kfRRfHl++fPwijeHQaYfD8UlaPTwdD4cxEwCVZhVobaqjTcL6DEUAuGog66MYJetB1EXTg2wneCCNJNWnwIzCHl8oeTyTfzwizDjhWqg0W6erSVifoQgAVw1kfRRjZN3qNPnFpl3bRvqNO52Q8PFotTy6YY68kPBqOXtZG0OluXacTzifkTYAV8sysh5V47HcfwYFEZKiBKEJ7eOTHDSCxiwmMmEK1UwR1VaGvAruGVSPOT4OXKA5nc7Oq1EZZ0wznsXdjDsZHkvnkaGLnAJzTrkOos0TkIEAuFoWk3XV6Eo6RMRCn3iAmuqEP/lwZEmVydOYCQWO2FXERu41dIH5lHIp1ENIK9eOxrfhiaTpZUhuljlFZpxyHUSbJyADAXC1LLhbF71QnxyRsihmNm4d2y2wmMokBXs68vTdGfIh9YnmoZ7TqwESlASFrZgav+OcMdgkybGf3EG4elkHAFxK1umTN6Y2wgHnaHNxaCaSsKTq1OrKUCPsE/Uh+uw5vRogweEOKZ9RY82w5PKXSLv8EgYAcEFZTxFyg5hoxDukNRfaMdKEx2Paq2sadYYplrOyh9g3kdDVn5725cmXoULX4KqAp4D4doBJFGOFCnMyYboyPtuMAICVuNyXMFFLAvJfZGifpiN9F5aZMFHW6s4MGZNV2u2mePRPnB6Op7YdSqbXszWf0CknNxGXTDuX+aYDAKzHMrIOWpyn00Z5AQBgOJD1SxJ3xkOUPezdIeoAgDFA1gEAYFeIrMsvwpgGZB0AAFbnIH8CAADYBZB1AADYFZB1AADYFZB1AADYFZB1AADYFZB1AADYFZB1AADYFZB1AADYFZB1AADYFZB1AADYFZB1AADYFZB1AADYFZB1AADYFZB1AADYFZB1AADYFZB1AADYFZB1AADYFZB1AADYFZB1AADYFZB1AADYFZB1AADYEf/88z/A9PVk9ClPTAAAAABJRU5ErkJggg==;" vertex="1" parent="1">
          <mxGeometry x="50" y="461" width="498" height="125" as="geometry" />
        </mxCell>
        <mxCell id="bQvXC9ChqrMoX_zcABg8-5" value="" style="shape=image;verticalLabelPosition=bottom;labelBackgroundColor=default;verticalAlign=top;aspect=fixed;imageAspect=0;image=data:image/png,iVBORw0KGgoAAAANSUhEUgAAAg0AAAClCAIAAABQqllpAAAAAXNSR0IArs4c6QAAAARnQU1BAACxjwv8YQUAAAAJcEhZcwAADsMAAA7DAcdvqGQAACE7SURBVHhe7Z0xj93IkcfnQ0nAKHXu2HA0GGBnvoEXcGInA5ySmwn8Ac7ARboF5EjzDS45K9FBkZRsshfc4uDzGVhj17v2VXdVVxerm3x8JB/78fH/Q+Gputjs7qomq8j3tKurP/3p/37/+9//+c9//scS0FCiXRzffPONaHulVQT2Ni8gEPxWVCOPOjEWXLh7y9fY8YYg+K2oRh51Yiy4cPeWr7HjDUHwW1GN/JnVic9Pr149fZZGpLQ0AhfurAjwPk7azVaRX2De5/uryP2zGHo5m+v8TMDt1opq5FepE3QP8O0i3D/33RWl/Wzun1r4vGPEBd/s9Vs3xiB7Pbyzk3azd14dKqbjw7n4SAb8VQYnpWWN9lbdmRSiy2NM8HvvNsRwBtXIr1UnRm5b2fNstrx+4TL7uC778/X9vfrfFwq2TwpU/7xxKFJOU50PzMv6QKkIR0cXL+vOSbzZGIeDPwBiOINq5BvVCXtX2EeDiv1cHtHrFy7TcTAsPaWH+ET5TEcpk4o3csg5vgWGbl1ylB3jpg2ItVj7aIbmpU8bwNC0UQ3tzl4cM/eoVKVNP3V8x2HiJSA6H7WDsC4WP8puGRX8QIiz2ELwOJQphvEB5im9beYDe4/uENXIt/3eSbOLu1vC3ud8eh57Wr9wGbdIdYsVOqrXpXhWOM76eTN864pL3LROWYu1j6Z/3lfdN4laVNVmDo5kXKricWtTV53ljvYQ68Nn7Y/e4EsOiWjEXExtMDWTWI6/GPZDNfJN3yfiLhpS/bD9y3MbUb9wGb9IuQzlj85RsnUeLyPbuGYP5E1W7KftUNpH058y4rOinUjiyXBUu3txDAf8FeLA1altT9vBxYF1tdhDO2Zc8AUyc1xzuxpM7scgyD1UI9+6Thy0l30aUb9wmWKRMXmk1NQ5Skb+JuosnDqKg7cuqfdPsWldZt1+sn00w/PSn1IBegbv7MUxjEpV3KxOrUZSNC2V/Z3FHtoxo4Kv0PYerBOku12IKnBUI9/294mwvZ3bN9vlBLu5balfuEzVQb1w7VHxrHB8C4y4ddP9GtwX/4LKFv2M9vEcmldm4NkrUQ3H014cw0h/44y1qbWnOUXWGv6oxUfaFSf2xojgKxR8ihh92ijHGNr+Rg/HK+OAQDXy5/M7dsovbA/3XbSZv0rTlvqFy5QOWpP1UVOAc5yN582oWzfdreqf7CB3c53HMTJfh5bOSuSjk2YdmFcmIMyw5dRm2nQ55+tZu3fiYzqn1k4ZEXyCghSiJTeVU020mXIXQEk18qvUiYugfuH2QZekXogmBWya4yKwHHPntXtxDK38BQSC34pq5FEnxnLUhUupKb04oE7MZea8nb04BqSqhiD4rahGHnViLLhwW0Vgb/MCAsFvRTXyqBNjwYW7t3yNHW8Igt+KauRRJ8aCC3dv+Ro73hAEvxXVyEudAAAAAAgpDga8TwDQy29nIwMBsGVQJwDoRZL9DGQgALYM6gQAvWiut0pfk7A6QxYAtg7qBAC92FzPin6WTcLqDFkA2Dr1OvHdd9/99a9//emnn6Q9mqE6cSn/uRnYD5rrNeNrUxVtElZnyALA1umtE1988cW33377448/imkcuU6UVeFi6sSAIzupheSm/R8QGa/jEWH5SNjR+T+y7ljKRUz7D7Ezmuut0tckrM6QBayBuQgPc1TnE3EOaxhNb5342c9+NqFU7P19Yg8+EsFN879SS17Tn6Y4hP/r2sLBsOHl/2uTtYTpU2Gw9hlori8VpxNOZ6QNTs1CO74em1rwUJ0gfvnLX378+PGHH36QA4eovE+EuzexrY3sg12Ln/GfVAy4h9vLcLQXjoD+j5O4Wf7/9sS+HJ0B4/SlhdWFppZkPwMZCMyANlPuK77A7OaKnrt0Wz0vlHxW/OzewgRdRQL/Yyr6z6a6SeIg9LQU2vovVckglZ7bzhUH6gTx85//nErF999/L8cGKepECHqO3SZCchB2JG60uKYZ8mJ8HCa5KYlZA+J9N4l7EcwUpIaY20l1F4jKYqYgyX4GMhBYBL6g7Oaqno3USS47stUvQO4cDqfjcvF0z7Ad7MWcT49ThgmTEv6s9nQTpUPRdv4crhMElYpvv/12zFuFrxM2FpuKyxADrl2Mj8M4f+0ndxDMDbMINIU8hKXHsNLCVBYDNovbZbu5qpcK69UrkPu4ns5CuA6yAsa8yzploGfZmY1nz4nfJ6oB2joDrl2Mj8MYN0mVf+s0PyklFo9GOaBaSLEZYfGpQSvCzqa95G21m6t6qbC+YJ2whwi1OGWgp9XLbmfMgTpxVJEgfJ0wuYMMLo1sFXbNbrPqwclFn6DPE+t72GJ5lg/ed+25tQideSPWEiZMwS97go1itlIusPCHbLRYRGNjvg5Mxy50gMfRi0T07hm2Q+fyiuhRr/T3tDop9cWdI0N14osvvvj666//9re/iXUERZ2QNBIyycX8W4PsWnXvk7uX4Wgv1neCfE5NOhJ3O7D8TeDmJbqWOPurp2ddxGbuQzBASiH9/2qs6RZa+SrsuQD4srEXj+r5XPkdW68ueyhMY08pFenX7Wn7bCpX9NaJuf/9BAAAgIugt05MKBIE6gQA4MzQFxJlEw/xZ0S9TkwGdQIAAC6MXCe+WQLUCQAAuDCWf5/4n7/8dJFC3jnL3qRVBBrO++WvfzNT3JiQkYLbrZVQ5EtQJ8YKeecse5NWEWg4r0v6E8SNCRkpuN1aCUW+BHVirJB3zrI3aRWBhvNyrv/u+79bpa/pdBY3JmSk4HZrJRT5EtSJsULeOcvepFUEGs7LuZ6yvy0JWgxc0+ksbkzISMHt1koo8iUr1okPjy9ePr53xpEy59yFhLxzlr1Jqwg0nJdzvdYDVxhc0+ksbkzISMHt1koo8iWoE2OFvBN9YDFnsM7TSScCV1cvXn/KzeT1+9fX8jfUbYd5kuddV2hezvV9hcE1nc7ixoSMlFabDqHIl6BOjBXyzlkqsp868fLu5uX1wwdtBq9Dkcjuv7tZqFSMivwJhOblXO8KAytO56bVWdyYkJHSatMhFPmSk9UJSSXyaHnz1uRQUsQcE01o3r2RVVJyiXrZ53zqBC8mfj7cyiqDg3/59JD8XepR+qzER+Dt3dXtu9wMe5cqh+2mzamS511XaF5N95PFjQkZKa02HUKRLzllndCsQQmFsn/OJqkqpDzy5pbzbOwZUk/RZ6GMM0fIO9F1SVIe4rJ5eWewztOJj4BunAbE+272cYbkedcVmtcl/QnixoSMlFabDqHIl5z0fUKzRnzSfJuyiTxzMzGPpCfTN7f6hmHRGiOeNBHyTnRejF2S6mewztOJj4Aq9jN1jrL5OuEskNUEwW8lFPmSFnXCZxOSTw8vKaG8u+FDZZ/6WasKeSc6L8YuSfUzWOfpxEcg6u9fX9+85mbc5cv63slZIKsJgt9KKPIlq9QJ/lpGLJRN0tc1RkK6ub1LX+sXfc4g/5J3ovNi7JJUJ2WJJ+jzFB8BsYfN4q/dLu93bGeBrCYIfiuhyJec9PcJJabOTjJNaFpxGdb10XPbCXknOi/GLsnob+Iv27v4HVsP6c8z3b8XWz4NTJM877rSal4ICYLfSijyJet873QJQt45y96kVQT2Ni+EBMFvJRT5EtSJsULeOcvepFUE9jYvhATBbyUU+ZKT1YmLE/LOWfYmrSKwt3khJAh+K6HIl+Q6If/S0DxoKBkYAADARbD8+4RoAGyf385GBgJgy6BOANCLJPsZyEAAbBnUCQB60Vxvlb4mYXWGLABsHdQJAHqxuZ4V/SybhNUZsgCwdRrVic9Pr149fZbGzpjoO512dXX/LK2ZPN9fXe12A45Ac71mfG2qok3C6gxZANg6p6wTmhAHlB0yyXc6qVsknu/zICHrR7THCAsZJm9BWI0523gUjwiThz8fNNdbpa9JWJ0hCwBbZ5U6oailPLQfpvjeSeqSi5OBjnHuD/aojbF01GOhU1/d39viENUwYl4mzbn5UqG5vlScTjidkTYAW+Z0dSIkDSallNLS6bWZlBLWrAlWMnD2gx2h9qunp/AMzz1D0mTun/RQbMbDB06ns114Yodo0RKgxjEWpx4Jn6mj5lm6402f4FyQZD8DGQiALdP2e6d6/jp/8rqNBwJbyJ38FU9o5F72UJFaa6fXYpNNdgWsj7F49TjS7DIANyurnDzBuSDJfgYyEABbpmmdoE9+hha2k1NSAsy/Elhf2LV0JHvNVA8NnF4MEMgmm4tZH2OJVMYdh57Iiv3kDoKdFwCwVVrXCZ9ZtgItPeZfdUffC0rXnJvlIfocOL0YIJBNZd4fY4lMTuNmEFL5m7SL/N4JAECcuE5wHtJ84S2UWSZmquaQB/f36W1CHWQXSTcW43bEHmLdWEJXf3pM6LZJmA6a7cO5URtjYd2NOpbOmWETeXlh8K594vgAgHPilHVCUoj51bq0hNSS2FZSsRk3+RWcYNdcDjZupqfvZI/6gdPD8dw2g2kVMK3AGEsYJjtwFG55ZnXF2gAAm+e0dQIsxYyk3kOn9AAAQC+oE1shPqkvVSrC2wWqBABgFKgTAAAAhsh1Qv6loXmgTgAAwIWx/PuE+1f0LkbIO2fZm7SKQMN5v/z1b2aKGxMyUnC7tRKKfAnqxFgh75xlb9IqAg3ndUl/grgxISMFt1srociXoE6MFfLOWfYmrSLQcF7O9d99/3er9DWdzuLGhIwU3G6thCJfgjoxVsg7Z9mbtIpAw3k511P2tyVBi4FrOp3FjQkZKbjdWglFvgR1YqyQd84yUT48vnj5+N4ZD8unh5dXV7fvCvskeXt3dXX98KGwD8piEThSGs7LuV7rgSsMrul0FjcmZKS02nQIRb7kzOrEsTl0Ys6dIuSds0yUSWt+//paigSdLv+989WL15/i0Xc3Yrh7I/1HWKhUHLmMHIG4hjR7x6OwzkTuME8Wi/yRQvNyru8rDK7pdBY3JmSktNp0CEW+BHVirJB3zjJRpqyZsnx6/H97d/O2Y3xze8UWrSVjLPyCkoYaJTkCwYW7m5dpScmjMHh2LVSmRUrFYpE/UmhezvWuMLDidG5ancWNCRkprTYdQpEvOWmd0GfYmI8om0grPtLG5PJwK6aYsOJXK5GQX3L/mI8O9s/znkTIO9HDwuxzetDNc7RbLfc0oXhdOnLo9PqzP7lPnWUBwRLPep+WNGgJOk16VNw6EaBBaFX6iiOzpMphu2lzquR51xWaV9P9ZHFjQkZKq02HUORLTlcn3ONqSJQ5J1J+oSSSLDkP5sxSpLYD/U8u5J3q+ngeViKP50nYYlfrQlF1RKVyek9CF99NoEQfY4l6ufhByRFIYZc4cDMZtX9nrhliI7+m0Lwu6U8QNyZkpLTadAhFvuRkdcJlDdskndKHs7BuFX68Fg71P72Qd7mZMuyb2/QEbRdMS6qutmyqPnB6vU5QCuapyxowxhJ1t7BDkiNgl62rrYxm550uncivKK3mhZAg+K2EIl9yxnXCnu4sA91OJuSdadIrQsy/ugz9yoWXVF1t2dTOA6dX6gTlX/2Gp8z7YyxRn/0+QTqtjb9Ju8jvnZwFspog+K2EIl/S9HsnTSKqkyIZLfcXOdD/5ELe2WbIj7d3kr7N2oJ3pNvVlt87OUcOnN79eooOddPx1N+xgz7r9wmxh53i5cnijf2o8fvERX41aTUvhATBbyUU+ZJT/o4dMpoQklRuxsxuc43RKaMRIb+Y033qrPbnQycT8q5jCcvLJYqXEVZCxcOtVjoL6ek72aN+4HTzqB5ysSE6HjN1QNczxuIK+WHJEXDLM2XMLu+owQfER34taTUvhATBbyUU+ZJT1onLEvLOWdYU+x6wjNh3lHHSKgJ7mxdCguC3Eop8CerEWCHvnGVdCY//i5UKKhLut4QR0ioCe5sXQoLgtxKKfAnqxFgh75xlb9IqAnubF0KC4LcSinxJrhPyLw3Ng4aSgQEAAFwEy79PiAYAAOAiQJ0AAAAwBOoEAACAIVAnAAAADHF+deLz06tXT5+lcfZsa7UAAHA8m6oTZ5iUJ69Wj56hUwd5vr/SNdP6qfFMn5Z4OBwSNudiBfJauX/2G8dN43J2+rCRkBjmIcOA9/fdToSdM+IHIsx59898nBacCH74pRJxYGMsN5XorF6XMmoKc/gouuuUUbrG2mJ1umKpqhPc7Bj90IQ9w2K7hj7+1Oqe1iLfWbybLfYWmz+TKK4RH4qpce+AOjGPyas9Q1+OgRIBX39SMiruyBHRF7la20H+2Tsu+ONc5qY1hnPiKQeNTLDQTZ+s7izXucT10WZlWMIlR6Zny8qelTEPTWHHPgo7COm8DdbIlBYm2HuiSnCzem7fgAk6bjz6/HRfGydYitnr3ZKFdHOl+REY1//AaHa4iZysTsS1PoUnsHRXcHVLofWG3BaLMfgeoV0MuCpzV2vafA2QIWjBkp4A0+76c8+DsOC4bN1fvzotJRdAxT1v04BkY4rAYWOELRo226HsXOL6aDMq9IjJrTD8U2xUxuzZsqInG6i3mEdN0TP4Qdzs3HRGorRE2OyWeng0omfARB4yU57CFnW9b7qOpRMoHaBzhu1/YLRah+M5ZZ3Idcx4zosOR8USn1uoQ2qXXrkod0zLROFIllitU+iTr4QwdlLCn7Vzz4OwQCpuGgcpZhF1hUjL3zDBu8INtx3ctEbZwW5Pa4zhEcy5suX2LKv34fpoU5Q4Kuv6KXNHYuf6lulQQmp7B2tTcIfYRTofixkkkmaJKxV4Lmkw7EM62S81wU1nZKpGpe8UmT1iRo6LNtNJj4jpFtClBsz52didfXi0gEw+h9O+T9Q9CYumpbOSOtjOrNuz1FIeCsyNwnEsslp7lBTXtHY5i1nX02F0qU53dLd6k1S9c0Zu0mfcp4ANjpi6RjemWnSogc4lro8bze4DWwbGdFvWN3LoF7WBKYIhYkc4Cjd7mKT40o8oLUQ2+qUK3Dxwbo18lLTkYHmKWlixn9yBIUscI2AP5Z5p/YwdoTpaxxIjJvpE1qoTzhMhXVdlZ/rUuOjRUmmCnZ11+jx2te5o31naPEPs2g6sc4ErtSndu5RxLrv9IkVdHjYqxkKqfHUTm5XOJa6PNq3Cs7PF9feYLev2DMMYwhHtEI6Nn2IcbpC+kWtzkU1WGQnHR45GVI2Z7iXRN46xkNr7jZ9aSNGwc8uQT7IjDIzGlB2OZ5U6EetB9p6Iv/qIFvrloFM7qOZ0sYjGwxQDrsoSq9WjfK6O4JW2ng6iS3U6QxZdd3l0a5AHdh/Sl6XZq9CBbNZT3bqDRqZjCf3y8GXnEtdHm30TVe3qoj3a6UmNTiDc9S+wpbRPoDNICl/fjNJgyFQsNf3BSI/KudUBO4RztQN3Lk/pWNKeDndLLvIMxfojtv/waGa4OaxTJ9jlRLDHkEWkVzLob/vaw/7az8bQ8gOuyxKrlaPcX8NVVeJ5gXTuWaArZF2WyNCBs133RDou5hs5oZtlfI3HzS+8kWyUMxnfLVwf2uwOW8f2iXNE+r+iyX0YZzLn2BH8aHGVbuWETuHsE7CL0lV1jET/GqRBpIDac7lDZ7SUVP3pFfxInXGInj091C0eLz0yF4RdW3U00YnOEJM5WZ0AAABwEaBOALAt6LnSscwzI+hn7zFHnQAAADBErhPyLw3NA3UCAAAujOXfJ9y/oncxQt45y96kVQT2Ni+EBMFvJRT5EtSJsULeOcvepFUE9jYvhATBbyUU+RLUibFC3jnL3qRVBPY2L4QEwW8lFPkS1ImxQt45y96kVQT2Ni+EBMFvJRT5kq3ViQ+PL14+vnfGVYS8c5a9SasI7G1eCAmC30oo8iUr1olqilfjyAJwDnViYA3tlreC5Ai8vbtSN8nlq+uHt/RpuX74wIeEF68/ybnHS553XenO++5GXLl7k42QU0mrTYdQ5EvO5n1iZIZtl4jJO2epyE7qxF9+enN7dfNWlFADKo5TYo3VgvXbd+bQcTIq8ieQqr/vX19fzfAFMlJabTqEIl9ysjoRniX1yYtSxt2blErCncZQU4yfHl6KTZKOtFKiyZZ4lgy7qpB3ovOa4+fDrSwqJpGuF+bcy5AcARINAu8yN/VokLjpHctE6cy7oph5jS8VTyHLS6tNh1DkS074PqGPYOFrCnoEc5kldMjFw9x+5T1JljRU7ra2kHei8xroU1el38O0W94KkiMQJbxJvLzO+yIlMhKDQB0Cs5++3byriZnX1rzF6h9kQFptOoQiX3LK7524PIR8kb6tDukjJP38Ja8mVqvE9JIwtcR2W13IO9F5DdVVtVveCpIjwFKNQCl0GRDb/t4JdWJtabXpEIp8yUl/n/j08JLuqHc3lRyaqkWZYcuMYy3l0bWEvBOd11BdVbvlrSA5AizVCNRlVm71864lZl6z/ove4vORVpsOociXnPZ37Pevr29u7+TLer7BPjzeyHf3VEXi35Phu46Oyq0YSoh8myFCFvmhIvy20eguJe9ET47kfKF69uICJUeApRoBFbLoO0R59Bjx864ldl78jr2ytNp0CEW+5LR1opM3JVnwm0TA/T0Z/jq7+zt2+tWav7ugo1R1ZmScOULeic5rNiuve8GHLkhyBFhcBOIGJaiu51/1899HmCR+3rWkO69etxf7HHBW0mrTIRT5khPXiQsS8s5Z9iatIrC3eSEkCH4rociXoE6MFfLOWfYmrSKwt3khJAh+K6HIl6BOjBXyzln2Jq0isLd5ISQIfiuhyJfkOiH/0tA8aCgZGAAACr6cgQwBVmf59wnRANg+v52NDAQSk9M96kRDUCcA6EWS/QxkIJBAndgiqBMA9KK53ip9TcLqDFmABXVii6BOANCLzfWs6GfZJKzOkAVYUCe2yJbrxOenV6+ePksDgOXRXK8ZX5uqaJOwOkMWYOlJ93/83S+YX/3hGzE56MQfu8gBcHq2UyfKqtCqTgzMu5PS9Xx/pW6Sy9R4pk9LPBwOCctEhQe8f5ZmXEgY2oWdm844Cc31VulrElZnyAIstTrxzR9+9Yvf/TGqoV6I6qATKU0pqBNrgveJRTnDJZ0GStCcrqVkVBy3xeT53iT36YRZ7u91ptAk1q4TrDidcDojbZCo1AkqE/ktotOw0IkfE6gTK3OyOmHv0qTTn/x0KQnEtWO3J3pCtE+Mig6Yz1rqMfVIeCV5tYG44ryyJutaFQ2Cuu591lKyHHEWenXhqcIET2kZdnZdm1/S0Uiyn4EMBBKVOvHH39nKQIWi+kJBJ34VQZ1YnxXrBH2mxBEfL00eyR36U4sMSGelPmJZnXK1+ujcakktCE7T473uhZTISAxC2Cqid0ePR8IbrxzdBf2UTmaDrHESkuxnIAOBRFkn3BtE3wsFnfj4+Ig60YQ13yc4b6S0QcaYRhLpzuejJXy0MuzqDKyk1ZKaUI1ASXfbZ5FmyUOyxc1eNYLzYM77BOpEK1b93imS7vHyNh6+sflo77ArMrCSVktqQjUCdeIbgOgzsHHmAdniZq8awXlQrRP2p+tu1cigTjTklHUipYagxvv2Xm5bvoNDwegkj+EbW47SWdJJho0HV4VXYlereljTEglxE1QjoJBFI1EenUZ1lmDJVwXbwiYsNSlYlEqdCK8Q5u871csE6kRLTlYn+HaNpL+iwm8SAbl/tQdBpuEbW4+mYezffFkVXoldrdF5dU3WtTYuAnFTEhwgaSwWDzsjo5Zyts6SdlO8z55aneBKwdT/UiyBOtGQE9YJAABw1OvECFAnGnK2dSK/fCQWeiYFALQDdWKL4H0CALAeqBNbJNcJ+ZeG5oE6AQAYAHViiyz/PuH+Fb2LEfLOWfYmrSLQcN4vf/2bmeLGhMypEw//9M//8q//9u//8Z9f/9ef/vt/f3AjQxYRCXcX1ImxQt45y96kVQQazuuS/gRxY0Io3U8GdWIFocu+BHVirJB3zrI3aRWBhvNyrv/u+79bpa/pdBY3JsQJpXtK+pT6qQBQGVB5fHy0TRXUiVMLXfYlqBNjhbxzlr1Jqwg0nJdzPWV/WxK0GLim01ncmBAntk5Y+eqrr5xFBXXipEKXfcmO68SHxxcvH987Y7+Qd86yN2kVgYbzcq7XeuAKg2s6ncWNCXGidcLJx48fncUK6sTphC77kt3UibIqTK4TAyceOea2JEfg7d2VukkuX10/vKVPy/XDBz4kvHj9Sc49XjqRp7Fu3+mhN7dXYSUu7Nx0xuOF5uVc31cYXNPpLG5MiBOuE6VQRnIWJ6gTJxK67EvwPlHYe4S8c5aKzM5N5yw2ApSgb96KEmpAxfF3N1wtWDfJ/VjJ84ZZ7m5epmFD87pSErhZWdJxQvNyrneFgRWnc9PqLG5MiBNK91X58ccfnaUUNxRkEaHLvuRkdUJu6fAsefP204Mo4dD719ehEUhPnS8fH+jBMFLvwwOKJT5CdixunLs3vAYr8Wj3rDTOOCHvROeh8nSBuGxxk5jz+Hy2kiNAokHgaHNTjwahOlHbiOPFRf7N62sOb6hVr/Ne5Nl1bX5JxwnNq+l+srgxISOlc7FBVhSKfMkp6wSn77d3ksftlxUsZKHHzNBTykNvn5B0Uh+5/00a0rygfUrJZ7lxut36hbwTvZxOl33kmNuSHIEo4U3i5XUOppTISAxC+FKImPEmweIjz1uvu6CfekrVeLzQvC7pTxA3JmSkuIsNsppQ5EtO+j4R79KqEhNIwN3P4/vYDoGUOLhPKXqWG0c7HBLyTvSBoY4cc1uSI8BSjUApVESJxb53CrNwBQolii1u9qrxePH+QlYUBL+VUORLVq8T9Gm/SnL3c18f+55RnmXt1mKlPGu4fyHknegDQx055rYkR4ClGoG6zPoOykeeFR6QLW72qvF48f5CVhQEv5VQ5Eta1Il094YfIbqW3j4h0XQrh/0GyZ6rTSf5LBknjdzt1i/knejFIvPUpMxIiGcuOQIs1QiokEXfIcqjx4iPvDmULOby4J3l7zNnTEri/YWsKAh+K6HIlzT43km+tr66enF7Fyz2fu7rQ4f46wuGLdRZ2sV3U6Xo0TROHnmckHei81B2OqPzyi//d2wSF4EY1QRl7fyrfv7LCJPER94cyha7gNIyqXh7fyErCoLfSijyJSerE6cTSvSzfxqdIOSds+xNWkVgb/NCSBD8VkKRL9lMndA3jHHPhuFbqS6zHmlJyDtn2Zu0isDe5oWQIPithCJfssH3iUZC3jnL3qRVBPY2L4QEwW8lFPmSXCfkXxqaBw0lAwMAALgIQp0QFQAAAChAnQAAADAE6gQAAIAhUCcAAAAMgToBAABgCNQJAAAAQ6BOAAAAGAJ1AgAAwBCoEwAAAIZAnQAAADAE6gQAAIB+/vGP/wen3X4KSzcdUAAAAABJRU5ErkJggg==;" vertex="1" parent="1">
          <mxGeometry x="834.5" y="230" width="525" height="165" as="geometry" />
        </mxCell>
        <mxCell id="bQvXC9ChqrMoX_zcABg8-7" value="" style="shape=image;verticalLabelPosition=bottom;labelBackgroundColor=default;verticalAlign=top;aspect=fixed;imageAspect=0;image=data:image/png,iVBORw0KGgoAAAANSUhEUgAAAe4AAAB9CAIAAADr8BdYAAAAAXNSR0IArs4c6QAAAARnQU1BAACxjwv8YQUAAAAJcEhZcwAADsMAAA7DAcdvqGQAABcsSURBVHhe7Z27jh23k8bPQ0mAJnXuB3A0GEBzHmGBTdaJAkWaV9hUiTLNUygR4EhKnDgSFn/sLmDDt/UWWcVidZHdp++Xc74fCsfFIpssVnd/hzOyrdO//vU//wkAAODIiJT/90zMOBUAAICeZCn/Zw5oKvH2yi+//CLebbDVfm9tXUCg+FtBlYeUXzm3JqlQkw1B8beCKg8pv3JuTVKhJhuC4m8FVR5SfuXcmqRCTTYExd8KqvzOpPzr093d01dpRMrING7taZu0Xy7+qFuwVZ1nWPf5fIqcnyXQytwP59G5tZdrP1DlV5FyeuL55RDOz23vQBmf+22pPW0+P+Jq3tD62xV3nPfYfTtG3YLWdXWqqJiX5XIgHftVOheltHrvVrczqkTXR5/it75bqOEEqPJrSXnPm1SOnPsG15825hofpnZJPZ91t20b5/iosrSvG6ciZ5mvywvrst+h5qG39/eL3c4iuzkYl4vfAWo4Aar8RlJu3wH7XV2Jz3xCrj9tTCPPkEF6p+NJ7Zl6Sf4kKely+e+PrreLtsXb4Kbdvo3YeG+61qVPW67QtDUM7Ublh6zdS0206ZeOPykw8YaLz712EvYl4me5WXoVPxDqLLFQPC5lqmE8Yzyln9lyx61Xtwuq/La/YFEtce9GuNNZK2e9g/WnjXFraXbsUK8+TJJgkT/7e6L77ZINcNNuwUZsvDft6941z+O1GmrMdPakn5rwvLWlq5vlgbaL/e6rbo/W4suLH9GKuZraYurrbxn+MNwOVPlNT+XxnhmSxNvx5bXTqD9tjF9Lnh35R6OXYo1jW2SPD9oFaWPHftoBZbw37W91PHHZhaR6DNewWfkhXNivECeuLm1H2gGuDuxrxHbdMP2KL1CY65rb1WLyOAZFboEqv7WUX4yXY6ZRf9qYYq34xic9afRSkH/lMmduS3Dx7SL3/BSbdoPs20+O96Z7XfqniHTL5I3KD6GXmnCzurQGyVHlKMe7iO26YXoVX6Hbe1HKyXd3IbrAQZXf9nfl4WY2XtYclwvsrZyF+tPGVPPUp832SoJF/vujx9uVXqmwWdlNcDminzHen0vrygq8eqWGoT9Vfgg99xtXrC2tI80lkmv4R60+0q5s4tboUXyFik8Vo09b5VhDO974ob8yDwhQ5ffzx55JTTge3rIYM/+exSzUnzamzNOGbKr63rr8Obgner1d6YXS3UjZeZgb3I+ekhpauiqRe0et2rGuLECYaculzbLpGcwPoQ5v1McMTq0bpUfxCSpSqJa8Qs411WbKuwBKqPKrSPmeqD9tbdBzpE+PeW8PxLD9zsfUdW3lh7DVfgGB4m8FVR5S3gXpSTp+Q8qHMXHdRuWHADXZEBR/K6jykPIrZ6v93tq6gEDxt4IqDym/cm5NUqEmG4LibwVVHlJ+5dyapEJNNgTF3wqqvEg5AACA43Jzp3Jw9fw4GZkIgOMAKQfXhujxBGQiAI4DpBxcGyrH1mlrEtZnKALAsYCUg2vDyjE7+lk2CeszFAHgWNSl/Ndff/3tt9/+/vtvafemS8qP+Z/YgMOhcqyirE11tElYn6EIAMeiVcpfv3797du3v/76S0L9yFJeCvfepLwjn6v81qFN2f9JiNlj7BHm37ednf8TzkakTGLcf+aZUTm2TluTsD5DEbAG5iG8zKDBC7GHHFpolfLvvvtuhJpfyan8QKn2J2zK/B+J0h7pn0a/w/+8aOat22Ly/1nFRsLySbttfAIqx6XjfML5jLTB0sx0x9djxwl3STnxww8//PTTT3/88Yd0XKJyKg/vamJXVeAM42f826cC7tB4rMfsArxf/Z+bcLP831ZJfD4aE8blywi7My0tejwBmQhMgG6mvEX8gNmbK34e0my1/FjGV8XP5gtL0FMk8P98X/8+ObdInIQONKGtf/mITFIZeSRluCDlxPfff09q/vvvv0tfJ4WUhxLnSu2qAJxPvDuSocra3lKdhbQp0U7dvt+p0dZZMEuQGypsF9WaE5VkxiB6PAGZCMwCP1D25qqfgzRIHjuK1R9AHhy6U788PM0r7AD7MOfL45JhweSEf1ZHuoVSV4ztjctSTpCaf/v2rc/Z3Eu53fneqtCR4d5SnQW3O/vJAwTzTM8CLSFHmXSYKSNMJRlwWNxdtjdX/dJhv/oE8hg30kUIN0AyYMxPhM7pGFkO5uDOWPhUXi3HTujIcG+pzoLZFLnyl8Dl80Zi9r2XE2qEHPvSzr402IpwZ9O95Ntqb676pcP+jFJuuwiNOKdjpPXLYbvhgpQP0nHCS7lRCgo40dgYztDeG/VDrrOeTPeA3Wm4L3IiDnttxnNrFhrrRmwkLJhKXY4EB8XcSnnAwj/kRktEPA7m58AMbEIdPI8+JOI3r7ADGo9XRHu90z7S+uTUk9ueLil//fr1zz///Oeff0q0B4WUi2gE3djb3+fEGVZvWMp6V/lOxe6UoB2mJvXEWxSY/zl16xLNSFw9/p3Xi6UA1ie99+1/nZ4ZFlr5KWx5APixsQ+P+vla+WNPfbpsV1jGXlI6Mq450o7ZsTK0SvnUf68cAADAWrRK+QgdJyDlAIA50GO9ssOj8I6oS/loIOUAALA+Wcp/mQNIOQAArM/8p/L/+t+/92yUpItct22131tbF0aG4m9lVHlI+ZXbVvu9tXVhZCj+VkaVh5RfuW2131tbF0aG4m9lVHlI+ZXbVvu9tXVhZCj+VkaV35+Uf3734uW7Ty44n1GSLhJs4UU3tPp+l7dbWxdGhuJvZVT5Q0n5HIJLSbpIsNGLau8cuS1heb8fHk+aIWV7evXmA31aXr35zF3Ci7df5NrhVq/z8ubXpV0rDx/9beKm2bIUgbskQlSDhNQwFypM+Hj/UrqVopJf3pRjHh7T5I/veSFKOF3y/uEUbl+ZgL9lHyszy+px0cYzcHGJx/ept4/l4jfzvP9QCWr1DLpckar62mwEa/VseXo/vX0lI3hMS1bNe1qrfCP59ISI2fy77zXjSyEV621UeUh5tNGLzpHSomb3S+8qPyLkyEPsk/94nx/Kj/fmPR9q9Tovb3bd+NJmMXr/ECXSbpmbNkg+X3IxqF1Bu43W26vc4NLcGG1Wpn0VuipzttyycmRlzktL2K//HpaLbychn7XJBrWrOn+It1RVm9Vr2yZMFh6JPODLm4faPCFSrF4fliLk2689N0MOmvEXZhum5lT5xaQ8ZvaGvuf1HeCvm/TY5e9G3kAeIBHz5cmX5C+35ndps16XjJLMzamLml76mqUZaEC4hSFy/0F6iyPJsIQnmt8vJ9kmTEEXzBM5wRrrrmhmXap/UWq3ZS1IDqYKXA5G4whJHmuoHVAOLs2N0WZ03r99xWfD8B38NnZV5my5ZcVIerZpNvkWTwMuLTHsecjFd6tzs0ipTJKtmurl2bTLBbPRdi49Ehpx97RtmDQbhfL5s9nxF2arDeg0qvySUp6/WMw+OcXQK5FwVgoDjOS5PVTek2JC9nsYJZn8ORZ1Dn3ys0KXqxMGjE94opn9BguP18tXxbdLJGZFAwJ6uBtrbt3VLK8bdpdqruaKz00blPvVHGmDsTyCuTZIIVXVXmX9NnNjtClOfGzY109ZOxIH12+ZTiWWvtj8BmtLpAvDySb5faxR/MaFaZWYqcBrSYPh+9WWapqNm34J0+WCam2XyOoRM3PjnrYPC5NoqsGK/Nns+O7ZghnF6GFU+WVP5fW8Q4qUKDu1wezbqzRSdgWG7Vn8WRa1veS4po3LVcyAhCda3i+bJuZ8Z/QUEhME3a+7ltXvr5oLcpM+410J2OJIqBl0c2pEp+oYXJob42ZLMt0QlLY53S1rmzm8elFoOpYIgUjbWi3WXnzzhZGD5TAX9Kk2Bly4tma5V35iDhssL9EIO/bTDYtzBGxXHpny9/GmX4/EiuXmBaPKryXlLm8xSpdo3mP26VOroL2lM9woSfHtJOzT59BFXW/bVdpc3fJ+2WwmF7Ia9jA58+uuZWbd5ovE5rbs7g45uuXuoJqJ0BlWfkdRdLWaG6NN6/DqHHHjvZlb1hwZzteG8IP/yCW6rP5yabOcubZWV6psbbNplwtmaz4SbfOYSL6nHcPI0bJX83fjnV+NlAM6jSq/ipRHyZYf6lPvveyQfxjJJQ6FoAvN5RKJV6WSFRP2Nkoy+XMsqr18rc7gnfEJTzSz32iamPM10nasG2h+3bXMrhtfqvyOpV/l5Zc5DKD92p2Gs625oR1BtkYk3OV8QOtTQDdGm20LVePVW9YYGQ6h+fHjH/yrU1XjvS0XvzFJevjbVrSRaqoX75rapeTze03Ggy9kle5p9zB9Qur5F+N7LDpILqjy60h5bMbvqECIxwJF5Fsr1CI2+c8P9TeAJkLDOChf1LE3YBe6ZJRkbs6xqPTmP/aM8aoTrwuka1ewxn7JNB/2JSGG3pb0g2cgvzwjzK+7lrl1o5onWPLKG2FrIpfEfzmsGpQrGT+s9dVts/rtaP9dRB7DtN8yN3NjtqiMLnMyXcLFe1sufiPPlFUjSLTnkCNJxO21PKAxW/rC9pdXzD4S/qUOtNzTS8Oqj03On3ybW3U28QlzH/sZVX4xKd+rUZIuct221X5vbV0YGYq/lVHlIeVXblvt99bWvWT5x9DE4JPX/m1nxb+JmrNR5SHlV25b7ffW1oWRofhbGVU+S7n85RHToKloUgAAAGsy/6lcPAA24sfJyEQAHAdIObg2RI8nIBMBcBwg5eDaUDm2TluTsD5DEQCOBaQcXBtWjtnRz7JJWJ+hCADHYsdS/vXp7u7pqzT2x8j06LLT6fwsrUE8n0+nPVdkL6gcqyhrUx1tEtZnKALAsdillLNKXqOUByFv6PjzOU8SpDqiI4oIBUbXxF4b8rh7eg5fK4bYHbqE0Utti8qxddqahPUZigBwLHAqH8uY9BpKLJqZAtTHgh3i0SsjDXc4OqHkUdmCzfD5PHqlTVE5Lh3nE85npA3AcVhSykWrklwF4TifY+j8LH1ZqgQdufypPKyqWiUqV83kKZyNVQOF85N2xWb7RvLlVieZOCBGJIGABMuIc4fDF9Mnz1yZyyx6WESPJyATAXAclpPyQomCgkTloB51nJTwRTre9c5NTtEkK2gmSabjNswo29WxkXy5bEsaTA7ZDNgvI94dAV19R9+oPEFMLxMzoQGBCUtsjujxBGQiAI7DYlLuZIK0QWWr6siwKCgc197lSLKYf2NdzST25GyZalfH5cUEgRyyCs1+GYlUZhmCvbxjKlqQ0PUBAPtmSSl3MqER59Cnnmk1op8xvBi0RhRNXqgtkxiQCPtE2UWfHZcXEwRyqBTrFvm2Cj8CO1UlIcvElQAA67HoL1iaSqDC4RwjKOTmw6yJLwctcj6nM3lbJjHCsbwj28W+iYSh/vJYEtskzAAVznBt9MoI+26OYdjry7koojucuhIAYD3W+WPP5m8bCieoPo8iVdWROmxRaBWjz/VMpLOxI/5jT+lKwy5cHvpz20ym0m1agTISLsrpjsCmZDMIcMbSiE0eBwDYO0tKOSiYqsSN7wIAABAg5SsTj73j1Dyc0SHkAIAKkHIAADg8WcrlL4+YBqQcAADWZ/5TufubivZmlKSLXLdttd8N1/23f/+PiebmhPW0W3u59mNUeUj5ldtW+91wXafLI8zNCetpt/Zy7ceo8pDyK7et9rvhuizHv/7+f9Zpazqfzc0J62m39nLtx6jykPIrt632u+G6LMck0Fa1Va9d0/lsbk5YT7u1l2s/RpWHlI+1z+9evHz3yQUv25c3L0+nh49FvId9eDydXr35XMQ7bbb9DrQN12U5Vsl22u2azmdzc8J62lY3HUaVh5SPtVFS/untq6aOf7zPk3y8l//M8vF9W4TUfOCieb/2WkqevhU+0Kclfk+ELuHF2y9y7XCbrc4DjdZlOW7Tbtd0PpubE9bTtrrpMKo8pHysjZFykuZ8rA6yTqRJ3j+c7j+keJT7MsKHeg72NLtfnZCcINOVLdgMP96P++kh2mx1Hmi0Lsux0252nM9N67O5OWE9baubDqPKLyblQSYe71/G090pKogKRzj38TGThElPoCsZJSl+ToOMJCz4Iq+BdER9+e7NAzV5pB6TT/dvtSs2VXOF2uXlmVprkhIwwTISfFpi0GE575eM56FPntlMm8wsOs0a665otK4q8mhzc8J62lY3HUaVX1LK9XwXfslLApHl8v7hMWqf/fXCSkZJqq+n1JChO4FyJOxCT8HNE7HtKjW6cnlNhbOYWg1lv4xEv0y10+x+ycJ5/OUrSSmml4mZ0IDAhPM4m1t3NaN1nS6PMDcnrKdtddNhVPlFT+WqbqREQdbfP/Dn43vqZaWbLBlDjZLMzSSLnFiIWHWj/O0uGjtqNtXvuHwuKW/OedEa+yWzl3dMRZUhJtwdv+5attW6MDIUfyujyq8q5eE8/oFP4vFXKx/4bL6qUZKmyb/hST8cUM76kwTn3yF8ZRd9dlzeX8ol2CLf007ljama6RVmv0sGm193LdtqXRgZir+VUeVXkXJSH/Y/v7t/KXL26e3j/cOjCN+KRknaJv+2RxTW5Ezx4lhd/IJFu9i/cLmpg5oZoL/tCdfKzwo+wr7/Pug0t99K2trFEf2eKHuHmF93LdtqXRgZir+VUeUX/V25ooc7OZ4Hv9S1VYySbERCnvnsKb8pPp1ekL5Tek7OzKb4jz2dJl643G6fBToRJZt6GVsuF2l+nfSwyn5t2jI/Q7mF+RM51RHm113LtloXRobib2VU+XV+wbIjoyRdZE2z5+sxNvz7b6v93tq6MDIUfyujykPKV7Z47B2n5qTjw0/KW+331taFkaH4WxlVfjEp36tRki5y3bbVfm9tXRgZir+VUeWzlMtfHjENmoomBQAAsCbzn8rFA2AjfpyMTATAcYCUg2tD9HgCMhEAxwFSDq4NlWPrtDUJ6zMUAeBYQMrBtWHlmB39LJuE9RmKAHAsIOVj+fp0d/f0VRr9octOp/OztDp4Pp9OYxYAKscqytpUR5uE9RmKAHAsIOVjGSXlQchFx4NUJ3gijSSlp8CMYm5nC3ncPT2HrxVD7I7fNcyMi6+JyrF12pqE9RmKAHAsIOVjGSPlVk3JbxzOtW3k3rhzoEtIHpUtNDOcce0VUTkuHecTzmekDcBxWEzKo0w8Nc+ZQZmEqBdhzPkcY+dn6TQixnixmY2whGqVqFwtQ94Fj6Rhwvmp5wbN5VYn04oJ04xX8TDjzgFPF7KMa1Vmd1kdEtHjCchEAByHJaVcdbkhYRFWjDAmdlBTnfBPIygVuZmNvIxZUOCI3UVs5FF9N5gvaW6FRghp5zrQ+DY8BzTfHX1/8pQxvUzKIzDroisjejwBmQiA47DsqVx0S32rHRSxcevYYYHFdCUJ5fOZl2/PkLvUJ6pdHZcXEySCuj59tZpt/JZrxmMn7JicFf3Igg7ATbGilNMnH/xshAPO0ebi0EokV0nJqdWWoUbYJ8ou+uy4vJggweEW+bYKPwt28paEErOvDQBYinWlPEXIbRxavRPOhOuoCC14PqczuaZRZphiOSvbxb6JhKH+8nT+Tr5MFYYGV4UzBcS3E8yAnbGcnSK6w/nXBgAsxaq/YAkKHQl/2EkRHVN1ZKz8DncpwkKqXu0ZMiYr/mNP6UrDLlwe+lPbTiXL69VWTU1ys2BTMjlEOGNpLFx3AMCcLCbloMYwbTbKDwAAHUDKVyYee/uoeTijQ8gBAL2AlAMAwOHJUi5/ecQ0IOUAALA+QcrFBQAAcEwg5QAAcHgg5QAAcHgg5QAAcHgg5QAAcHgg5QAAcHgg5QAAcHgg5QAAcHgg5QAAcHgg5QAAcHgg5QAAcHgg5QAAcHgg5QAAcHgg5QAAcHgg5QAAcHgg5QAAcHgg5QAAcHgg5QAAcHgg5QAAcHD++ef/ATAOUZIUWVXAAAAAAElFTkSuQmCC;" vertex="1" parent="1">
          <mxGeometry x="834.5" y="500" width="494" height="125" as="geometry" />
        </mxCell>
        <mxCell id="bQvXC9ChqrMoX_zcABg8-8" value="Manager" style="text;strokeColor=none;fillColor=none;align=left;verticalAlign=middle;spacingLeft=4;spacingRight=4;overflow=hidden;points=[[0,0.5],[1,0.5]];portConstraint=eastwest;rotatable=0;whiteSpace=wrap;html=1;" vertex="1" parent="1">
          <mxGeometry x="834.5" y="460" width="80" height="30" as="geometry" />
        </mxCell>
        <mxCell id="bQvXC9ChqrMoX_zcABg8-9" value="Users" style="text;strokeColor=none;fillColor=none;align=left;verticalAlign=middle;spacingLeft=4;spacingRight=4;overflow=hidden;points=[[0,0.5],[1,0.5]];portConstraint=eastwest;rotatable=0;whiteSpace=wrap;html=1;" vertex="1" parent="1">
          <mxGeometry x="50" y="400" width="80" height="30" as="geometry" />
        </mxCell>
        <mxCell id="bQvXC9ChqrMoX_zcABg8-10" value="Traffic" style="text;strokeColor=none;fillColor=none;align=left;verticalAlign=middle;spacingLeft=4;spacingRight=4;overflow=hidden;points=[[0,0.5],[1,0.5]];portConstraint=eastwest;rotatable=0;whiteSpace=wrap;html=1;" vertex="1" parent="1">
          <mxGeometry x="50" y="-29" width="80" height="30" as="geometry" />
        </mxCell>
        <mxCell id="bQvXC9ChqrMoX_zcABg8-11" value="" style="shape=image;verticalLabelPosition=bottom;labelBackgroundColor=default;verticalAlign=top;aspect=fixed;imageAspect=0;image=data:image/png,iVBORw0KGgoAAAANSUhEUgAAAfQAAAB/CAIAAACWtKdyAAAAAXNSR0IArs4c6QAAAARnQU1BAACxjwv8YQUAAAAJcEhZcwAADsMAAA7DAcdvqGQAABaOSURBVHhe7Z29jtzGssf3oSRAmzr3AzhaLCDNI1zgJuckChRpX+GkSpRpn8KJAUdW4sSRcIOLg2PDX1e3uqu6uljd5HD4Mc0h/z8URt3Vza5iNfknd2Rr7/7zn99gMBgMtjO7+xcAAIB98fXr1yDu/7sQCy4FAABgMlncqTUfflxsmV9++UVaR6VVBY4WFxAofiu48hD3Y3E0kcWONwTFbwVXHuJ+LI4mstjxhqD4reDKQ9yPxdFEFjveEBS/FVz5LYn756f7+6fP0omUnnngaptVAd6OSZvSqvILxH0+3UVOz+LoZenL9dbB7dYKrvz64k5XPN8cwum57x4o/UvfLbWrzedH7PgOrd9vsQb5rIc3aNKm9MbVpaKGnhfQCxk4X2UwKKU1+mz1dCaVaH+MKX7v3YYazoArfxVxH7lJ5cylN7h+tTHHuJj6RfZ00vPvKwX7JxWqP25cihrrPFLPxOX2gL6H0dFPHHs6q5zNjXG++AOghjPgyrcQd3sP2Kd3xb/wW3T9amM6eYYM0j0d392eaZTkT5KSIZf/LTB0v9GJ8olx1xbEeqx/NENx6dMWMHRtVUO/sxeXxB6lL9r1oeNPE0y8BKTNo3YRbovHr3JYRhU/EOosvlA8LmWqYXzreEo/1+WBo1d3CK58w69lVEvcvRF2OqvnojtYv9oYF0uz4waN6sUkCRb5c3vbDN9vckrctSdlPdY/mv6499139lpV1WcGRzJOX3jdWujqyfJEO8Tt4aOOR2/xRQoiWjFXU1tMFQTL5RfDceDKt3tzj3tmSKJv55fHzqN+tTE+llw78kdnlHydF7nIbVxoZ8SOG/bTTij9o+m/z+NbmQ0k9WS4qt29uIQz5yvEhauh7Uw7wdWB2+qxQwdmXPEFcnNdc79aTJ7HoMg9cOWbivtZfzlnHvWrjSlixTs+6UlnlJz8Rc2SuV2Hs/cbNU9PsWtPmdv2k/2jGY5Lf4ps9yze2YtLGKUv3K2GVic1VEvK+c5jhw7MqOIrtL1nxZ3abhdiEzi48g2/cw+b2blZs18OsFu5CPWrjanmqVebHZUEi/xvgRH3W7rJwunL+YUme/Qz+sdzLq5E4OiVqobxtBeXMPJ8Y8RaaJ1pDpFcwx+1+ki/chJHY0TxFSo+VYw+bZVjDe180w7jlXVAgCu/kb9QTWrC/nCXRZ/5LzgWoX61MWWe1mVT1fvW5c/ObTPqfku3mJ6fbARPc5PHMVJkQ0+jEnl0UtSBuBKAMMuWoU3YdFXmy1Knd+pjJqfeQRlRfIKKFKolN5Vrmmoz5S6AEq78+uK+JepXWx90HenVY+7bm+ayCizH3Lh2Ly6h1fkCAsVvBVce4t4L6Ul6RYe4z2Vm3M5eXAL0pSEofiu48hD3Y9GqAkeLCwgUvxVceYj7sTiayGLHG4Lit4IrD3E/FkcTWex4Q1D8VnDlg7gDAADYEyLux3lzBwfkn7ORhQC4KSDuYOeIQs9AFgLgpoC4g52jAm0bfV3CthnyAHBzQNzBzrECzQ39LLuEbTPkAeDmqIj7r7/++ttvv/3999/SH82QuO/lfwICN4cKtMq0drWhXcK2GfIAcHPUxf3169dfvnz566+/xDWOLO6llG9N3AfyOchziE7T/uMn5qzjiLB8Jezq/L+ddjxlEtP+19SMCrRt9HUJ22bIA66BuQjPc9HkldhCDv3Uxf2bb76ZoO87eXO/oVTnEE7T/NtL6azpT6Po4Z9pWrgYtrz8L8ZYTwif1Nz6Z6ACXTZcm3BtRvpgbRba8eux7YR7xZ347rvvfvzxxz/++EMGzlF5cw/3amJTVeAM42f8DV4B9xp5W5fZxXAF9B9t4W75D3SJfzk6C8bwpYebC4UWhZ6BLARmQJsp9xVfYHZzpZ2ndHs9P7rxUfGzewsTdBUJ/MsJ9Lf0uSBxEXrFCX39dS2ySGXmjWnFkLgT3377Len777//LmODFOIeSpwrtakCcD5xdyRDlbWtpboS6TRFTbUg/tyN2i6CCUHNUHMbVHeBqCQzBVHoGchCYBH4grKbq+3spEly2ZGvfgHy5DCcxuXi6R5hJ9iLOR8eQ4aAqRH+rM50gdJQ9G2QM+JOkL5/+fJlzPu7F3d75lurwkCGW0t1Jdz52k+eIJirfBEohLzupBee0sNUkgE3i9tlu7naLhvcrl6BPMfNdB7CTZAMGPNTo2sMzCwns3N7rPnmXi3HRhjIcGuproQ5TWrKr9bL7ySJxatRLqgeatjbePHQoBVhZ9Ne8rbazdV22eD2guJuhwj1uMbATNsup22JIXG/SNkJL+5GKcjhRKMxnKHdG22HXBd9V90m9tzDTslbczj7rj/3FqETN2I9IWAqfjkT3ChmK+UCC3/IRotHWuzM14GZ2IUGeB29SKTdPcJO6FxeER31jf6Ztk2NenKboFfcX79+/fPPP//555/iHUEh7iIaQTe29juxOMPqhqWsN5Xv8thzJ+icU5dG4qYFlr9yXVyi64nR4+8fXy0FcH2SEvT/kkIzLfTyVdhzAfBlYy8ebedj5S9U9eqyQyGMPaRsyLzuTDtn21pRF/e5/507AACAptTFfYKyExB3AMA66Ku/ss3X5Q1REffJQNwBAGAjiLj/sgQQdwAA2AgLv7n/z7//3rJRks5zNGtVgYZx/+u//zHT3JqwkYbbrZVR5QmI+7GsVQUaxnVKPcHcmrCRhtutlVHlCYj7saxVBRrGZYH+9ff/s42+rmuzuTVhIw23WyujyhMQ92NZqwo0jMsCTZJtdVwV3HVdm82tCRtpuN1aGVWeaCHuP7x/8fL99855FaMknWeiTTyFn96+vLt7/FT4R9jHN3d3r97+UPgvtMUqcKE1jMsCrSLu1Nx1XZvNrQkbaa02HUaVJ1YTd5W/gcbVjZJ0nok26RS+f/eqq+yfHvIinx7kv95986HPQ/o+u265AnY1Oh16cnykT0t8loQh4cW7n+TYy22xyl9oFJcFuk/NXde12dyasJHWatNhVHlifXEvPZOUcRGjJJ1nok05BRLr/OodhJ5Ii3x4vHv4mPzxAVB6+MWfnZPNVkBDUCMId+WkbM6fHqb9zBFtscpfaBSXBdqpOTdcm7u2zebWhI20VpsOo8oTK4l7/P4h8uLxTZSM0mPfChf4wmGMUZLSDqHtO3Joi+AG0kvry/dvH6nLM/VV+u7hnQ7FrqqwUDu8fO/OYioJGGfpCW0KMef1mSxXgIxXpk+OZQIlM2nMs07cKxrFVY2ebG5N2EhrtekwqjzR8GuZun6tapSktvW9NciueydlD2WVhNu/NduhUrUrh9d0OZ+11VBul57YLlO90GwFyMI7+8tXkmRMOBNzowmBeUHJXNyrGcV1Sj3B3JqwkdZq02FUeaKduDspyVq2olGSuZuE8sNj+rnBpsQZcsI8pG3X1fbA4UuJe3fNCdapAJldcGBxqhUxQ+J93GtZq7gwMhS/lVHliabi3iclqxklabr0Mh5lVLPSb4fKDF225RB9Dhw+XtzF2SPoS7+5dxbvJlyYfd5cbD7utaxVXBgZit/KqPLEmuLOWqCS4T0kFuaLjqsYJWm7JLgPj29Ec420kb949S6+ltEhbp85POqy7ZKZCfodUThWfp7wHm4v+Z07WXkiOsQefZaUo5eYj3staxUXRobitzKqPLGauKeva/Nfn5Ye0ovgiMwQjvFGSXY8IYH8NirfL2uGTs5MtvwXqjKUpp05PDzM0qs9S3Yiinh41EU0n9LTfcBMskoF7IlIRIayzX8NPvMvvX3ca1mruDAyFL+VUeWJFcV9g0ZJOs81zb6DT7Hy3f9ya1WBo8WFkaH4rYwqT0Dcr2nxRXiavoe/0pz17szWqgJHiwsjQ/FbGVWegLgfy1pV4GhxYWQofiujyhMi7vLrNuZBS/GiAAAA2rLwm7u0ANgM/5yNLATATQFxBztHFHoGshAANwXEHewcFWjb6OsSts2QB4CbA+IOdo4VaG7oZ9klbJshDwA3B8R9Ep+f7u+fPktnPHTY3d3pWXozeT7d3U1J4mioQKtMa1cb2iVsmyEPADfHlsT9UsWcqLBLMCl0kHZW9ijyTFomSHVEtX+EhxyTK2CPDfncPz3nrCJxuJLqjaECbRt9XcK2GfIAcHNA3CcxJbRR0+eTk2f6I8t+bI3xdJqXowtKEpWTkhFpT47UFBXosuHahGsz0gfgplhP3EkXhKAJQYVyj3XkqfMimmeI0Jje+fmXEo5WrRKVyyv6oDzTnNFTmc+5w61OZuKkz5JAdqSUBj2ueTl8MH3yypW1TNCbRRR6BrIQADfFSuKugsGQRkhXBsIfaQINsqZkcSmE7Mz8KeQYJprAHhs0dvKsaj5K5fCeZMVrM+D2GI9vToCOvr+/lwViwpmYLk0IzAjRHFHoGchCANwU64i7UzLbDQpyenYebttGlJTEufnTSLL4fEqr2LjkqwZlqkMDhxcLRIK0Rp9VaG6P8URq616APXxgKQpIaHwAwObZqrjbw4nh+ROh46No6mr6Bs4r2/VdrHKIPgcOLxaIeqmOUqzHeCLGPQW7VJFil5mRAABXpd3XMqWm5IPyfOHM/InQAqdTem83IcLC1DYeH8wOcdt4wlR/eDwne0juBFQ4w0hsjfFwu7PQpdjjy7XIkwLNjgQAuCqr/YUqaUH8foII+pC7US2sUph2EHX+stcc7oWyOn8aIYqql6wWFiTFd0EJkxL/harL58zhYVz6ZqVA92jNZ4wnrJRPYAI2SZeW1F06c8oMALg+q4k7KJitxAX5eQEAAB0g7tckvggvpe/hPR7SDgCoA3EHAIAdIuIuv25jHhB3AADYCAu/ubvf9rQ1oySd52jWqgJHiwsjQ/FbGVWegLgfy1pV4GhxYWQofiujyhMQ92NZqwocLS6MDMVvZVR5AuJ+LGtVgaPFhZGh+K2MKk9sTNx/eP/i5fvvnXM5oySdJ9jKQTdl9Qqsb0eLCyND8VsZVZ64HXFfQoIpSecJNjmoji6R23UsV+DjmzvNmfK/e/X2I31aXr39gYeEF+9+kmMvt3rl1zcfl85aefzkN4675pSlCDwkHqLqJKSGuVBhwTcPL2VYKSr509tyzuObtPibDxyIEk6HfHi8C9tXJuC37FNlZYkeg3augbMh3nxIo2MsF7+b58PHilOrZ9BwRara1m7HWatnz9X7/btXMoPn9GTV3dNa5TvJpytEzOY/vNeML4VUbLRR5QmI+4ygS6R0ZbMVoLuXLxpqyGXtT+fTQ75MPz2YO/9Sq1d+fbNx422c5enDYxRNe8rctU5q8yFnnToU1Nyovz3KTS7NzdFuZdlXYaiyZs+WlTMra54LYV8IRlguvl2E2qxW1qlD1fWDv6eq2q0e27dgsnBJ5Ak/vX2srRM8RfT6tOShtn0QuhWy08w/s9pl+k6VJ9YR95jZW3ry6z3AD6B02eWnJZ9AniAe8zjlQ/Ljrvt07dbrnFGSuTs3qBmlBy+tQBPCFgbPw0cZLV5SLkt4cfMV4LT7pCoohblGZ1gn7hXNxKUdKYrvTlkLkp2pAued0dhDIsiqaieUk0tzc7QbGx/eveL3x/BUfheHKmv2bFkxk652Wk2e62nCuRCXXQ+5+C46d4uUyiTZqqmeX02HnDMbnc65S0I9bk/7pkm3UyifP5udf2a12oRBo8oTq4l7ftSY8+QUw6h4wttTmGBE0J1D5T4pFuT2CKMkU3uJoK5Bn3yt0OHaCBOmJ7y4mQoECxfcy1fFEygS86QJAX0BnGou7tUsxw1nl3ZBzW0Hd61TdrA70zpjeQRzbBBHqqo9yrb7zM3RrjTihcRt/ZTYkTi5vmW6lFh61PkTrIVIB4a3n9QeY53idw5MUWKmAseSDsP71ZdqWo27PoQZck61vkMkesSs3NnT/mlhEU01WJE/m50/vFowoyEjjCpPrPjmXs87pEiJcqM2mdv2KPWUQ4HLzlnaiwS1o9RwXeuXo5gLEl7ccgXYNFXXdkbXJTFD4n3ca1l9x9Wck7v0GfcpYIsjrq7TrakeXWpgcmlujlstCXdHYvrWdFvWt3K4GaP0DIQIjkhfrB7rL755hGRnOc05faqdCWeOrVkelZ+zwwmWh6iHG/bTTYtrBOxQnpny9/5uu+6JFcvdM0aVJ64i7i5vMUqX6O4xt+lTq6CjZeNyoySlbRfhNn1eGtSN9h2l3Q1YrgCbze1MnpddXs583GuZidu9tdjcKbv9ooae8rBTzXjoPVe+2SiGes3N0a5tcHT2uPnezJZ1Z4Z3cEP4umBiiCGr327aLVeuxRpKla1vNR1yzmzdS6JvHePJezowjRpa9mr+br5rVz3lhEGjyhPri3sUcfnBP40+yBnyDyy5xKEQdKA5XDzxqFSyYsHRRkmm9hJBdZSP1RV8Y3rCi5upQDRN1bXV0/fqd6H5uNcyGzfeZvmuS18J5ts7TKDztWca3n/NFg842TqesO/5JW5MAd0c7fYFqvqrW9aZGV5U8wXJXxdUl6r6R1sufmeRdDv0RbSeaqpnd03tXPL5TifjyWeySns6PE2vkHr+xfwRQS8SEKo8cQVxj9341AoEfyxQRJ5joRaxy38zqd8bGg9NY6c8uuNowAY6Z5Rk7i4RVEbzX6hGf7URjwukY5tYpwJkmiG3JUWG7p/042og304TzMe9lrm4Ud8TLILl1tiayCHxP02rOuVIxk/rvZn7rL4d/d9g5DlM/5a5lTurRa10mZNpCOcfbbn4nTxTVh0n0Z9D9iRZt8fyhM5q6RHuD6+YvST8bR7o2dNz06qXTc6f2ja36mrSJsw+jjOqPLGOuG/VKEnnOZq1qsDR4sLIUPxWRpUnIO7HslYVOFrcc5Z/eE1c/Ha2fdtY8Q9RczaqPAFxP5a1qsDR4sLIUPxWRpUnRNzl123Mg5biRQEAALRl4Td3aQEAAGgKxB0AAHYIxB0AAHYIxB0AAHbITYn756f7+6fP0gEAANDLtcS9qsvqHKnaC4r7wFILRtkyz6c7PU06Zeo806clDoch4farQufMnJ7FA8Bu2cab+0g9vY7sHkTco9SxyInOV07cPgGeTzcuiXq+4YEFeQd7Zx1x79w98Z5KwhFGGOqKs+NzvUD2LPf2yKHj51Pnda4Mv1+0CHrq/pxVD3eAOZfKmQKwN9Z6c893ErecjgR3Vnxzs5V3IHmSK0+bDS9Fn7o4xfHJ7J9w0vf3ubzyXIvEIoTqE2lPbhlzaXXaAOyT1b6WSbfP8ymKhCgma0W6r1RGbSOKScI8AOy0+fBS1cUXjLJ9qhUo6e7bbQJxB8dive/cSSro/hFt7wpHkgp1lg3FesrRyfBS1cUXjLJ9qhWoc+uCaPI/1BaDo7LiX6jSHXQ6ibbL7fT56ST3VOw/p3uMenLjBd3vSgh58hprfOcuC2o7J3MAqhVQyKOVKEdvDVX3Q+0wOCwrinvnHhJpCNrNhJ7RCx4QZ5wQ4NF0ED0rFtMXDm0SqCeze1wFYp0TXCDp7KIeevlB2sH+WVPcAQAANALiDgAAOwTiDgAAO0TEXX7dxjwg7gAAsBHu5E8AAAA7AuIOAAA7BOIOAAA7BOIOAAA7BOIOAAA7BOIOAAA7BOIOAAA7BOIOAAA7BOIOAAA7BOIOAAA7BOIOAAA7BOIOAAA7BOIOAAA7BOIOAAA7BOIOAAA7BOIOAAA7BOIOAAA7BOIOAAA7BOIOAAA7BOIOAAC74+vX/wcBHp4Tpj2jYwAAAABJRU5ErkJggg==;" vertex="1" parent="1">
          <mxGeometry x="834.5" y="40" width="500" height="127" as="geometry" />
        </mxCell>
        <mxCell id="bQvXC9ChqrMoX_zcABg8-12" value="Notice" style="text;strokeColor=none;fillColor=none;align=left;verticalAlign=middle;spacingLeft=4;spacingRight=4;overflow=hidden;points=[[0,0.5],[1,0.5]];portConstraint=eastwest;rotatable=0;whiteSpace=wrap;html=1;" vertex="1" parent="1">
          <mxGeometry x="834.5" y="-40" width="80" height="31" as="geometry" />
        </mxCell>
        <mxCell id="bQvXC9ChqrMoX_zcABg8-13" value="Qna" style="text;strokeColor=none;fillColor=none;align=left;verticalAlign=middle;spacingLeft=4;spacingRight=4;overflow=hidden;points=[[0,0.5],[1,0.5]];portConstraint=eastwest;rotatable=0;whiteSpace=wrap;html=1;" vertex="1" parent="1">
          <mxGeometry x="830" y="189" width="80" height="31" as="geometry" />
        </mxCell>
        <mxCell id="bQvXC9ChqrMoX_zcABg8-14" value="" style="shape=image;verticalLabelPosition=bottom;labelBackgroundColor=default;verticalAlign=top;aspect=fixed;imageAspect=0;image=data:image/png,iVBORw0KGgoAAAANSUhEUgAAAXIAAAA/CAIAAABy99RYAAAAAXNSR0IArs4c6QAAAARnQU1BAACxjwv8YQUAAAAJcEhZcwAADsMAAA7DAcdvqGQAAAtUSURBVHhe7Z2/jtw4Eof7oWzATp37ARwNBpiZRzjgkrvEgaP1K2zqxJn9FJss4Gg3ceLIuOCwWBv+d74fWSWqVKQkSs0WqVF9KPSUShSLVSSr2b2e2dPff382MTExKShWVkxMTArL6VfDMIyiuLLy30IU7MowjP3CZeVnCdAVa9vy4cMH1o5BrXiP5jeHo629HJATKyv742jbu+X5PdraywE5sbKyP462vVue36OtvRyQEysr++No27vl+T3a2ssBOWmprPz58vHjl3/yhSe2pDja1J4VL6U0L7GKWnku4Pft3clz95YNoyzMzNHWXg7IyeXLCuaJppS5ezs2c7E9b45TU6u9guX7qFHSS9lH3Mc4neS8xCpG/Yau/O6d37oLmYg3MOkUw8qONoSTl6KcsY0uvTwXuwM52aSsZOYubnnO1BL3cebGt/fdXYh2LHCyr0rLuF/fFZTLlO4Zv6RPVBZ3N7vWyXAyopkf2wSZzfYGclKjrMiZk+U8Yc86Y6Snlhh4d/1268u/g73FXWxFdsW31KjaY2opIywKgy5l+NIi7dlM+cWrTJe7lDl014PML/GdtXXDpXbtT1CEn3DW6a7shHS26F7GyBqbww2Dba5v8tS58G8HL7ujXn9jxnmjICcVPwSFHaBm1E1Av8MzEpueWkL1EHySgrth5thtNCrSW2J6KXMAdClDkBZpz2bc7+PhOSWVw2ATNzPJ27rUb8p1MlhqKG+RPv1UxOjYeLV7QofKpfQV1rxkea5aADmpd1rxqRR05Ua2j59NkZ5aQvfAE8U/BndhG7ydeVqc1ZltRop8lQ1iezbjW8i/1UpHnD2CcjjM/BJm4mV8x0nXsqVsoPJAerDIW+PkjY2Bmdz210lf1I7IGENrICdVy8qsPW6TIj21RNSDX33d2h7chZE+Fs17rMvsUoZ699JfygBJl69kz2baL35ywRjpfJD5JWRtXbpMug5GKGGbxu2VRd4aJ2tsAUQ/W1agq0F6dUcgJxW/W3E5Hiyx3s4PyAxPkJ5aIuk9TK28y26jUbVHxlLu1q8LlqNxKlnCq7fnM+eXPZD3RA7d/S7zS8iM13tMuQ4txSM8VvcjlR++TgShyBhbAGNDh3iVg/AuZHuhu/uJfloHOWnkK9tuD5DdrQ1vE/9lY4L01BKxd2mSAwhrSI2KjC2RtZS71Rui4WRSM9U4j8zt7a6CV9DfXeV1wi87AKLb2LVw262sfmmF5oP8iMbdVZqMsQH04TrjFaZUMRgiHuS+QE4uX1YuT3pqx8CkhakSa2hHLIu3HOf6lZlfQq14c2h5bLVATg5XVrC2u2OJlZVlnOl3kPkltLx1Wx5bLZCT451W9k+teI/mN4ejrb0ckBMrK/vjaNu75fk92trLATmxsrI/jra9W57fo629HJATV1YMwzAKch9OK8a9599nwx0Zm2BlxdgBXBvOgDsyNsHKirEDQmmQytglkDoBi7EZVlaMHSBLAynhNb4EUidgMTYjUVY+ffr0+fPnHz9+8HU2U2Vln//wzGiEUBpCgQiXQQmXQOoELMZmpMvKzc3Nx48fv3//zqY8+rISF5FtysqEl3tZ1xCU/KUVEaO/w5SPW/ZO/3R2YIkHse6f1/aE0iCVsUsgdQKWJhBzNM+ixhdi1RjSZeXJkycrKkvTp5UWZqg4Lijx62hdjPgpaon7zbXCoctk0m/6SItz39URaT+DUBpiRelA6QRfV6dQQrZj1YBHywp49uzZu3fvvn79yjfmSJxW3Arr2CCb5Ne/+j/h51Bvpvua0xko3vDLNnQZ/0of28sx6NC7jy2kFnLNteEMuKNLglh5kVH+Zeys902GVyOnOXrKvw7XM0CSGfrbOuFvVionvhO897jr8HeuuJNEyzIbZ6qsgKdPn6KyfPnyhe9NEpUVF3kfwKJxrYO8+FSw37DFthnAxnRB8T4O4etIxT4vgnAB1WVYOg05B4nBrIFrwxlwR9tA+ZaxB703ohHPCmzp+aHG7nZ3n3M7fEI2kHPdP+5dOoed4n4mWypH3S1vy2emrABUFnwayjmz6LIiB7RqcIuZ8LvNADZGRSdfqQEjFlAR4ILfw7p3sdhCJAZzf1FJkLEHPVZIT04QtVEtlQWoBjwCQhwklTLRMm5MxmwueVpJjvKiTPjdZgAbI4KCyn9osn+j6Sgee9xhsECRO6S462ZxgXehUtQy9qDHCukFy4q8BYJFKRMtpR43y2CqrCyqKUCXFbG+YVBL/SKQX5mIoLsRFH3HbgEZqcs2nxRcrEN7f1WEgV+PtDiHXarjlvcVESnn3/3gPLCFNTL2aRINh+AG9RNyyPrwCdlgkH1PuKuV8ZZSh5Ie3BSjZeXm5ub9+/ffvn1jawZRWeGl7lb7Nn8+j/wms9ONZYNRbIeMFCDC7hJ3fOIdixfFLMovGFq8d/m/MSg/hAbpFvv4X7QUzdxVP0kj+aGsytwGvX+Wv7INyZe3nBv5SKxwu2FL2WbVxkmXlXP/3YphGAcmXVZW1BRgZcUwziAcdwKLjggNkSgrq7GyYhgG4LLyoQRWVgzDAIVPK//568f2AtfKcr+lVrwV/f7jn/86U1SfpeRoay9HkBMrK/uTWvFW9KtqxApRfZaSo629HEFOrKzsT2rFW9EvlYZPX/4nlbFLpZOoPkvJ0dZejiAnVlb2J7XireiXSgOKhawgoXaoS6WTqD5LydHWXo4gJ22Uld9/efDwl9+UMVvgWllWysph/PH84el0/SayZ8jr29Pp0fPfI/ukFIt3oVT0S6UhlA9VR9Sl0klUn6WkVk5aFuSkalkJ23jPZeW3F4+GNeXNVd/Jmyv+Bwi3r8YsqCwLnfbxymcxeFSo13iV+JrlbjEPXvzBzy6XYnleKPBLpWGsjqhLpZOoPktJrZy0LMiJlRUha4aBMtEfN1yJAV0nr65PV687uy89sYUOO2TMFBlv6BCKKxmJEOQI31ytO1V5KZbnhQK/VBpUHSFF6XQpdRLVZymplZOWBTm5TFlxi/v2Ch8NPP1GYmiV+88OngfXt9gMz6/5ctEeg8A16/A7OBc4Xfv1G8/7opbh+HC6ehFu+cvksNXj8Vmj39g8AGGMLU6Hi0WHiD5eCPWDV+pZdNuJcHqeDPxuKPAbqsNqUX2Wklo5aVmQk4uVlfAO6b4+GC5rWOg9M+wB176rJud8KBDv3r2XIGSRvtRJYXoYicdTFSEENdjPpMcWr8dDnRQZL8SdUx4+4iH54fX4kaCBY4mLpCi/mwn8qhqxQlSfpaRWTloW5ORyp5WwJ7F/uvd5v7wddDc0k+0Hz2YJXPeX3RZ9dd3VNeV3wlfy1sTjpcrKsM9ZGcQLkY9PdIXMgDOKi/a7ldTymyMtj62WICdblRX3VaLY53Q3VpSeJ3AtLnEA8Rs49Kz8TviKb+F14vH8ssLGkVJy3mll0NVweJHIurZYtN+tpJbfHGl5bLUEObl8WcGegS4s7tsK0mGkVb5gYyQEruUl+r+6vuXdHvsd9B99CFLDmHm8iy5cQkSD8InMPctnKG0hff13K5B42OEWWULNiu8uEe13K6nlN0daHlstQU4u991KgN8e+RN+9wVt2HjKsmLpw/XA4rz378nar+pfDJW+slXDmHmczmJ0nKFi0eHLB+4SYTyx5az/EuREDkmE48HY+q/Guy/LV4r2u5XU8psjLY+tliAnG3wIurjAtbJsKfLcsUbi886c1Ir3aH5zpOWx1RLkxMrK+eKPA+sqi/sadfEJola8R/ObIy2PrZYgJ5cpK9sKXCvL/ZZa8R7Nb44cbe3lCHLCZYX/ENN5oCv0aBjGwTnxT8MwjEJYWTEMozBWVgzDKIyVFcMwCmNlxTCMwlhZMQyjKD9//h/7Hr9KIxFewAAAAABJRU5ErkJggg==;" vertex="1" parent="1">
          <mxGeometry x="50" y="271" width="370" height="63" as="geometry" />
        </mxCell>
        <mxCell id="bQvXC9ChqrMoX_zcABg8-15" value="Datas" style="text;strokeColor=none;fillColor=none;align=left;verticalAlign=middle;spacingLeft=4;spacingRight=4;overflow=hidden;points=[[0,0.5],[1,0.5]];portConstraint=eastwest;rotatable=0;whiteSpace=wrap;html=1;" vertex="1" parent="1">
          <mxGeometry x="50" y="220" width="80" height="30" as="geometry" />
        </mxCell>
        <mxCell id="bQvXC9ChqrMoX_zcABg8-16" value="class diagram" style="text;strokeColor=none;fillColor=none;align=left;verticalAlign=middle;spacingLeft=4;spacingRight=4;overflow=hidden;points=[[0,0.5],[1,0.5]];portConstraint=eastwest;rotatable=0;whiteSpace=wrap;html=1;fontSize=29;" vertex="1" parent="1">
          <mxGeometry x="50" y="-970" width="260" height="150" as="geometry" />
        </mxCell>
        <mxCell id="bQvXC9ChqrMoX_zcABg8-17" value="table" style="text;strokeColor=none;fillColor=none;align=left;verticalAlign=middle;spacingLeft=4;spacingRight=4;overflow=hidden;points=[[0,0.5],[1,0.5]];portConstraint=eastwest;rotatable=0;whiteSpace=wrap;html=1;fontSize=28;" vertex="1" parent="1">
          <mxGeometry x="60" y="-100" width="250" height="60" as="geometry" />
        </mxCell>
        <mxCell id="bQvXC9ChqrMoX_zcABg8-18" value="" style="shape=image;verticalLabelPosition=bottom;labelBackgroundColor=default;verticalAlign=top;aspect=fixed;imageAspect=0;image=data:image/png,iVBORw0KGgoAAAANSUhEUgAAAqkAAAIwCAIAAAAqLWUbAAAAAXNSR0IArs4c6QAAAARnQU1BAACxjwv8YQUAAAAJcEhZcwAADsMAAA7DAcdvqGQAAJ4GSURBVHhe7b1tcB3HeefL71tbtR929WG/bbayX/bDVqkqtbmsJE5lP2zVrnJv3aokduLEcd2kQPlGobSO4limbMdRLGkjx6FvJEUUAEqiXgnSJECCBxQpgOabrBeTIikSIkSJICiRAkAAJEFKMl4I3Wfm6el5pqenOTh95pzGwf9XLain/919nme6Mf8ZEDhnzRdffDE7O0tfi3Crly5dUjUbPjOHqSJfSZgx+6jIVxJmzD4q8pWEGbOPinwl7rHwfhO3inwlYcbsoyJfSZgx+6jIVxJmzD4q8pW4x8L7Tdwq8pWEGbOPinwlYcbsoyJfSZgx+6jIV+IeC+83cavIVxJmzD4q8pWEGbOPinwlYcbsoyJfiXssvN/ErSJfSZgx+6jIVxJmzD4q8pWEGbOPinwl7rHwfhO3inwlYcbsoyJfSZgx+6jIVxJmzD4q8pW4x8L7Tdwq8pWEGbOPinwlYcbsoyJfSZgx+6jIV+Ieu4ZkH+i1VW11gHzbG+Tb3iDf9gb5lgfP/SZuFflKwozZR0W+kjBj9lGRryTMmH1U5Ctxj4X3m7hV5CsJM2YfFflKwozZR0W+kjBj9lGRr8Q9Ft5v4laRryTMmH1U5CsJM2YfFflKwozZR0W+EvdYeL+JW0W+kjBj9lGRryTMmH1U5CsJM2YfFflK3GPh/SZuFflKwozZR0W+kjBj9lGRryTMmH1U5Ctxj4X3m7hV5CsJM2YfFflKwozZR0W+kjBj9lGRr8Q9Ft5v4laRryTMmH1U5CsJM2YfFflKwozZR0W+EvdYeL+JW0W+kjBj9lGRryTMmH1U5CsJM2YfFflK3GPh/SZuFflKwozZR0W+kjBj9lGRryTMmH1U5Ctxj8X7+i0P5NveIN/2Bvm2N8i3PHjuN3GryFcSZsw+KvKVhBmzj4p8JWHG7KMiX4l7LLzfxK0iX0mYMfuoyFcSZsw+KvKVhBmzj4p8Je6x8H4Tt4p8JWHG7KMiX0mYMfuoyFcSZsw+KvKVuMfC+03cKvKVhBmzj4p8JWHG7KMiX0mYMfuoyFfiHgvvN3GryFcSZsw+KvKVhBmzj4p8JWHG7KMiX4l7LLzfxK0iX0mYMfuoyFcSZsw+KvKVhBmzj4p8Je6x8H4Tt4p8JWHG7KMiX0mYMfuoyFcSZsw+KvKVuMfC+03cKvKVhBmzj4p8JWHG7KMiX0mYMfuoyFfiHgvvN3GryFcSZsw+KvKVhBmzj4p8JWHG7KMiX4l7LN7Xb3kg3/YG+bY3yLe9Qb7lwXO/iVtFvpIwY/ZRka8kzJh9VOQrCTNmHxX5Stxj4f0mbhX5SsKM2UdteL7j4+Pd3d0vb922s3fXbtAU6FS/tLWnq6t7YmJCLUMC9rMkzJh9VOQrcY+F95u4VeQrCTNmH7Wx+T733JadvX09tQPP7j/eOfTeUwdGnjrwPkrFZYRONZ1wOu07evtoCdRixGA/S8KM2UdFvhL3WHi/iVtFvpIwY/ZRG5hvZ1f3zt17ugffzZkTSpNK9+Cpnbv2dHV3qyXBfs4SZsw+KvKVuMfC+03cKvKVhBmzj9qofJ977rkdu/qfjp71TUNCaWZ5emiY7H/LFvX0j/0sCTNmHxX5Stxj4f0mbhX5SsKM2UdtSL7j4+M7e/vwxB9I2UxP/719/G//2M+SMGP2UZGvxD0W3m/iVpGvJMyYfdSG5Nvd3d1TO2A40K/95pnblv/+++ceemH/T2onjLEonqWnNtTV1UVLg/0sCTNmHxX5Stxj4f0mbhX5SsKM2UdtSL4vb9327P7jhv189S8v/cm9l7523+Wo3BsXrsRf/3j9Jeqw7rvjX7n3+2T/xlgUz/Lca8df3tpDS4P9LAkzZh8V+UrcY+H9Jm4V+UrCjNlHbUi+O3v7OoeGDfvpO7PA6q2lL+YXv/jlwhefzi3Nfr4089nS5I2ly9dvXZi+9czrN/7b7319Q2efMRbFs0T/6t/bRycf+1kSZsw+KvKVuMfiff2WB/JtbxqS7+7du/N/zrfr9PzspwunR6+/88G1U6OzY5OfvzFy9fCZmeGPPx88NVM7Nv3++ELXwavw/pJlY9/Pf/DkC9ZCktGZloMWhZYG+7m9Qb7lwXO/iVtFvpIwY/ZRG5Jv7P2G97zf++7c1Zvzv3j/6tHTU2+evfr+pc8OnJree3zqndFPd709tf3IJ8dGZ/9l/0RDvP837/rymjVr7nm0i+p/cM8GqlOL7NAG5V9eG/6L+/6qI8df3PvNJ/afMTpToUWhpcF+loQZs4+KfCXusfB+E7eKfCVhxuyjNiRfq/fvOPHZ1Oz8z4enh05cOfzuldMXP917bKrvjfE3zt3cdnTypQNjR8/OPD7wccO9v43LD7t3KMMX/HDzTqMbF3h/njBj9lGRr8Q9Ft5v4laRryTMmH3UhuRr9f5tx25OXJs7cnp6//ErB05eOTH6af/bV356dPzw2ZsvH57cMjh28MzMxt1jVu9/6IX95OX/8T/fSYUqBD3Na5VbGOrJD/oaugOgr/q5nw8Zmo1aeHJmhf14YGjkvm9/V3l+zH1/8yA1mt3iAu/PE2bMPirylbjHwvtN3CrylYQZs4/akHyt3r/1zWuXZ+YOvju99xdXXntn8u3zN3vfuLL18PiB4RvP/2xy8/6xwXdnfrzzQ4f3E/wnAFzX7WzhVPjOgBrlc7/0fq7L/jwDq3zTIO8qwi+PbR1Uth/z2CuvGR10gffnCTNmHxX5Stxj4f0mbhX5SsKM2UdtSL5W73/59amxK3OvnZje/eb4wNvjP3//Zs/RKy/+7PKrp64/Mzj+9N4Le09MP7ZtxP3cz4fs8VQx3FofFnm/bOdS1HMFlW/93T+w8X/roccMSRZ4f54wY/ZRka/EPRbeb+JWka8kzJh91Ibka/X+5w9OfDAxt/utiZ8eGtt55OLQqakXhj5+Zt9o75sTm/aOPbn7g93Hph59edjH+7V5Fzm6bOfCLRL9Kiul/GT3W+vu/sa6u+/euOtNQ5IF3p8nzJh9VOQrcY+F95u4VeQrCTNmH7Uh+Vq9/5nBy2cvfbbv2OVdR0d3vT5KlVd+NvbC4PntRz7q3jf69N7zvW9PPfLCuy187l+55cF/3PTgj582Go0C788TZsw+KvKVuMfC+03cKvKVhBmzj9qQfK3e37l37MPJX54am31rZPr196YOD88MnZ7Zd+JK7Z2p3cene38x3Xd89uEtJ5fl/VTy7dRZ3hNI7+e67k+Nxsx0yD1XVnn81VNUjEajwPvzhBmzj4p8Je6x8H4Tt4p8JWHG7KM2JF+r9z/y0tl/7j238adnf9wz/I9bz/zo5TOPvXT6f7946tEXTj6y5RS5PpXvPvXWcr2fCtU11FP2IaT3U+FDhifkyTUr0fvLFHh/njBj9lGRr8Q9Fu/rtzyQb3vTkHyt3k8W+5V7v0/W7i54P/+KCi0KLQ32c3uDfMuD534Tt4p8JWHG7KM2JF+r9/+kdoJMnZ7p3YX64HP8qih47s8TZsw+KvKVuMfC+03cKvKVhBmzj9qQfK3ej9LaAu/PE2bMPirylbjHwvtN3CrylYQZs4/akHzh/QEWeH+eMGP2UZGvxD0W3m/iVpGvJMyYfdSG5AvvD7DA+/OEGbOPinwl7rHwfhO3inwlYcbsozYkX3h/gAXenyfMmH1U5Ctxj4X3m7hV5CsJM2YftSH5ks2AAKGlwX6WhBmzj4p8Je6x8H4Tt4p8JWHG7KM2JN+//du/5QoIB14U7GdJmDH7qMhX4h4L7zdxq8hXEmbMPmpD8oX3Bwi8P0+YMfuoyFfiHgvvN3GryFcSZsw+akPyhfcHCLw/T5gx+6jIV+Iei/f1Wx7It71pSL7w/gChRaGlwX5ub5BvefDcb+JWka8kzJh91IbkW+T9N0fvv/nhusWFT5eWllQTaBZ47s8TZsw+KvKVuMfC+03cKvKVhBmzj9qQfK3ef3PkS/MfrJ27sPbTY/9+5sq5hYUFJYCmAO/PE2bMPirylbjHwvtN3CrylYQZs4/akHzz3v/5J5sWZ9bNX/qd+csdt079p4tv/I/p6Wn30/+5c+fWrl2rDoA38P48YcbsoyJfiXssvN/ErSJfSZgx+6gNyTfv/b+c2LIw9eVb479z69x/uXX8V0YGf+P8+fOLi4tK/uKLvM3nvV99yO6a6HuWvm7cuJHbuSfBqkZ3AAS8P0+YMfuoyFfiHgvvN3GryFcSZsw+akPyzXs/ce3Mry+M/dfFd37l2uv/bntP5+joqPT+PHnvly2x16+lFqM9Pwow8P48YcbsoyJfiXssvN/ErSJfSZgx+6gNydfu/WNPLX78WzcO/5sjO+86cuTIzMyM/Jm/NG/12L5mjeHihvfXarWOjg6jHd5fBLw/T5gx+6jIV+IeC+83cavIVxJmzD5qQ/K1ev9nn2xevPRb1w7/2z179nz00UfG7/ppwybLJ1OnSt7FDe+nr+T91BneXwZ4f54wY/ZRka/EPbYZ3j8+Pt7d3f3y1m07e3epd9YGrYNW4aWtPV1d3RMTE3qNisD3kqTkzFbv/3z8GfL+2UP/6vWjB69du6ZaEwxTJ8p4P7fA+8sA788TZsw+KvKVuMdW7v3PPbdlZ29fT+3As/uPdw6999SBEePztVCaW0ZoFWgtaEV29PbR6lS3t1ai2pB8Hd5//fC/Pnr0aKO8n9gY4xgFGHh/njBj9lGRr8Q9dg0Nro4nnnxy5+493YPv5hwIpfWle/DUzl17nnzySbVaoEFYvZ+4ceZXx4586fjx4zdu3FBNCdqw16xZQ/5NFenojNX7CfmbAfD+ImhR1PIAAC5dqvC5/7nnntuxq//p6FnfdB2UQMrTQ8Nk/1u2bFFrlsOxvoTPzglTbUi+Rd5Pj/sffvjh5cuX5+bmVFOCNuxarRb9mt+aNR0dHYaLcztBdSnREHj/bcFzf54wY/ZRka/EPbYq7x8fH9/Z24cn/vDLZnr67+3jf/vPg+8lScmZi7wftBB4f54wY/ZRka/EPbYq7+/u7u6pHTBs5td+88xty3///XMPvbD/J7UTxliU6kpPbairq0utXBZ8L0lKzgzvDxB4f54wY/ZRka/EPbYq739567Zn9x83POarf3npT+699LX7Lkfl3rhwJf76x+svUYd13x3/yr3fJ/s3xqJUV5577fjLW3vUymXB95Kk5Mzw/gCB9+cJM2YfFflK3GOr8v6dvX2dQ8OGx/SdUX/TfGvpi/nFL3658MWnc0uzny/NfLY0eWPp8vVbF6ZvPfP6jf/2e1/f0NlnjEWprkT/6t/bx0tjgO8lScmZ4f0BAu/PE2bMPirylbjHVuX9u3fvzv85367T87OfLpwevf7OB9dOjc6OTX7+xsjVw2dmhj/+fPDUTO3Y9PvjC10HrzbW+9XvR61ZYz1s17Kx7+c/ePIFayHJ6EwrReulVi4LvpckJWeG9wcIvD9PmDH7qMhX4h5bqfcbBvN+77tzV2/O/+L9q0dPT7159ur7lz47cGp67/Gpd0Y/3fX21PYjnxwbnf2X/RNF3v+bd32ZPPueR7uMdkfhIfpfEOThH9yzgerUwlKblX95bfgv7vurjhx/ce83n9h/xuhMBd7PNCRfeH+AwPvzhBmzj4p8Je6xTfX+HSc+m5qd//nw9NCJK4ffvXL64qd7j031vTH+xrmb245OvnRg7OjZmccHPm6g9//H/3wnDSk6bO/yw+4dyvAFP9y80+jGBd7PNCRfeH+AwPvzhBmzj4p8Je6xTfX+bcduTlybO3J6ev/xKwdOXjkx+mn/21d+enT88NmbLx+e3DI4dvDMzMbdY1bv58d0Dd0B0Fe6G+AKPcrHzQrqTEP4XoGhunGoZ6CeXGfo/kC/6MouQyP3ffu7yvNj7vubB6nR7BYXeD/TkHzh/QEC788TZsw+KvKVuMeuIdkHem1Vy2L1/q1vXrs8M3fw3em9v7jy2juTb5+/2fvGla2Hxw8M33j+Z5Ob948Nvjvz450flnnuZ7fm53iCvJ9dnIpuoTp30D/zl4fa+/VUug9X2qA8tnVQ2X7MY6+8ZnTQhdZLrVyWovVtVxqSL7w/QGhRaGmwn9sb5Fuepj73v/z61NiVuddOTO9+c3zg7fGfv3+z5+iVF392+dVT158ZHH9674W9J6Yf2zayLO+XHbjIbmW8X/Zvv/Ktv/sHNv5vPfSYIcmC536mIfnC+wMktOd+fMJZQzA+mQzXK4l7bFO9//mDEx9MzO1+a+Knh8Z2Hrk4dGrqhaGPn9k32vvmxKa9Y0/u/mD3salHXx4u7/3UYqgaeD+Xn+x+a93d31h3990bd71pSLLQeqmVy4LvJUnJmeH9ARKU9+MTzhpUzE8mw/VK4h7bVO9/ZvDy2Uuf7Tt2edfR0V2vj1LllZ+NvTB4fvuRj7r3jT6993zv21OPvPBuHd7Pkvxnfni/Lg/+46YHf/y00WgUeD/TkHzh/QESjvd3dnXjE84aXvQnk6mzbKM565unOnXFeH/n3rEPJ395amz2rZHp19+bOjw8M3R6Zt+JK7V3pnYfn+79xXTf8dmHt5ws8n7+dT82eKv3S78v7/1cIYn76Dnbpjz+6ikqRqNR4P1Mpd4/fv36I3v2fHL16vz8vGoCzSIQ78cnnFVXbvvJZE1YXyvVqSvG+x956ew/957b+NOzP+4Z/setZ3708pnHXjr9v1889egLJx/Zcopcn8p3n3qryPupsHkThveTnXM7sVzv13VG3wSsqgLvZ6rz/svXrj1+8OCVxcWH9u49e+FC/qP8HKxduzH6WN8VxrmNa9es6aipo2WyZk2Dcw7B+/EJZ1UX9yeTVb2+RVSnrhjvJ9P9yr3fJ2t3F7yff/MLvJ+pyPvJ+J84ePCzuD67uPjtWm3YsH8yysTsVCXf4kB0zh7EBiyG01FCdtJah2omOmqZV8xMTmTmLJow6pQx/lpHqusX0z1yLdSQmc+XELwfn3DWhOL4ZLKq17eI6tQV4/20d2kH0zO9u2CXN7/A+5kqvP9S/MTPxs9MLy6uHxg4I+3f9NdMiylZEL3lVFG9o0OMz0iJ0UZVYdS1jqzvygmJ7JzWCQ3rjudP7w1I4356RL7FmM6fELwfn3DWhOL4ZLKq17eI6tQV4/0owRZ4P1OF9/+wv//K4qI6SDg0Pr6hr29ycpIP2RzZH9lN8y2JhXIbj0shUbWKB2xulD6cWnVquPRaaSuTaUinjjDmtE4YVeUMhJgk7ZY05luy1QYQgvfjE86aUByfTFb1+hZRnQrvR/Et8H6mCu8fv3r1kX37ZoX9n56a+ua2bYODg2NjY6pJGJ2q5FqsBpmSOK9w4KSfcOJ0oGzUIxKSm4yE9OXMOa0TWgIUTWmASbD5FqPqTwjeH18VK/yEM/59JqOxDUqjPpms6vUtojrVy/tJ9oFeW9WywPtXVqH1UiuXpWh925WG5Gt4/8LCwsjY2AMDA9Ox/ZPx39fT09/ff+LEiZmZGe4jrVFVci1ZP867IlslDUukdIbUltNJkskJ/UKaTIuIJD+ndUI5QiGa8k6fb4mwzFI/tCi0NK3dz9aroucnnMlyW++Xfw+1gkodn0ymzni747Of8dyPEhVaL7VyWYrWl/HZOWGqDcnX8H5ibm5u+MKF9QMDh8bH6YmfjX96mm4Gkh8GCJ9TlVzLbY0w+mF/LWP9sScreHQ6eWq3ZL3m1JnXEpHk57ROKEYkiKa8u9v9XtwG+BPMc7/5ref5CWeytKv3U2nIJ5NVvb5FVKf67OcKvR+sLNTKZYH3S0rOnPd+guz/zIULD+7aNTg4ePLkyYzxE8I7826aGOTtrJDMMu0jxhPqKV2YetRZ6VHXTN/szUDqx5Y577BNqF8uJZ0kErmfni7fwnVjDh+C9X6fTzij8lD2Y8yIfCO/Jwq/P4rG2ocK3x8w+o+oW18a8clkVa9vEdWpIXq/9fIHgqVoveD9kpIzF51Msv/JycmLFy/OzMxkjD8msk75JJ1viYwxwe6K2kPzzklSdCwb4/nUsZyb5siM1VPZ5lxzh3VC9XKMnDzxenEUkW+JBukDf4L1fp9PONP+zYf6uZ/atW1zB2qhunzut/aR758mO4RQlvXJZHzaDape3yKqU+H9wBd4P1Op968qfK07c/PQAIL1fp9POJNWTcX6M3/p97Iui27nCs1jdAikeH4yWdXrW0R1Krwf+ALvZ+D9jSN+2q/X/ot+slE3wXq/zyecGV4uvZ8ljdX7833oWV8dxOi7ikCK5yeTVb2+RVSnwvuBL/B+Bt7frgTr/T6fcFb03M+mzu3S7/P1fB8u3BLgDwB8Ppms6vUtojp1JXn/zdH7b364bnHh06WlJdUEAgDez8D725Vgvd/nE874MV07NNUJqkgv5xsCrst7BWsfaqQ5qYVnpkOqB1V8Ppms6vUtojp1xXj/zZEvzX+wdu7C2k+P/fuZK+cWFtQbWoGWA+9n4P3tSrDe7/kJZ2znjH7ulz+6l95PhQ8Jax++IWCokYesuALvZ9xjm+f9n3+yaXFm3fyl35m/3HHr1H+6+Mb/mJ6edj/9nzt3bu3ateoAVAm8n4H3tyvBej95MD7hrLEF3s+4x1b1vn75y98vJ7YsTH351vjv3Dr3X24d/5WRwd84f/68/EunvM3nvV/dka6Jblno68aNG7mdexKsanQH4IbWS61clqL1bVcaki+8P0B4h7d2P1u9H59w1vBC51md8XbHZz839Wf+1878+sLYf11851euvf7vtvd0jo6O5v/KWZL3ftkSe/1aajHa86PAbSmyq6L1ZXx2TphqQ/KF9wcIL0pr97PV+1EaXvDcz7jHNtf7x55a/Pi3bhz+N0d23nXkyJGZmRn5M39p3uqxfc0aw8UN76/Vah0dHUY7vL8O4P0MvL9dgfevngLvZ9xjm+r9n32yefHSb107/G/37Nnz0UcfGb/rpw2bLJ9MnSp5Fze8n76S91NneL8n8H4G3t+uwPtXT4H3M+6xTfX+z8efIe+fPfSvXj968Nq1a6o1wTB1ooz3cwu83xN4PwPvb1fg/aunwPsZ99gWeP/1w//66NGjjfJ+YmOMYxS4LfB+Bt7frgTi/aA58Gk3qHp9i6hOXTHeT9w486tjR750/PjxGzduqKYEbdhr1qwh/6aKdHTG6v2E/M0AeH8dwPuZSr1//Pr1R/bs+eTq1fn5edUEmkUI3l+0MUBjKTrPVa9vEdWpK8n76XH/ww8/vHz58tzcnGpK0IZdq9WiX/Nbs6ajo8NwcW4nqC4lGgLv96FoveD9kpIzW0/m5WvXHj948Mri4kN79569cCG//0GM16cAEEUfBMCLAu9fDRSd56rXt4jq1JXk/SBMitYL3i8pOXP+ZJLxP3Hw4GdxfXZx8du12rC//ZNLLuvzbvL9My3yIDZg0Vm8b0Z2Cv3Ru0RHwSf/KkrNGXUyjb/WkeolPvy34AMAeVHg/auBovNc9foWUZ0K7we+FK0XvF9ScmbjZF6Kn/jZ+JnpxcX1AwNnPO3fNNfbYekvmqQa1aOfueneGSlx2agqjLrWkTVdOSFRak7Tt+OXSO8NSOZ+ekS+JVMV8KLA+1cDRee56vUtojrVy/tJ9oFeW9WyYJevLGi91MplKVrfdqUh+Rqb/4f9/Vdy72F1aHx8Q1/f5OSkOo5cTBH5ljI9dUSQU27MPuHqHpEzpv2VT96mfwKNU4fi6ZobpQ+nPp26LU2YtjKZhnTqiFJzSlkj5tEvrRvzLdlqCu/w1u7noqsiPuGssRRdzdoPn/2M534QUbReRevL+OycMNWG5GuczPGrVx/Zt29W2P/pqalvbts2ODg4NjbGLcajKrk2H5KNcY2MW3XQBuk0RXf/FGG75hTCidOBslGPSEjuLhLSlys1pzVA2ZrGmMSbbzGqGl6U1u5n63cZPuGs4RRdzape3yKqU332M7wfRBStF7xfUnJm42TS1XxkbOyBgYHp2P7J+O/r6env7z9x4sTMzAz3MUwvPSTni30s08J1YYpZ0719fwH7JGmJW6bdEk+W84sZ8rNlWuTLlZvTHqBozTt9viXCNhEvSmjej084q4Kiq1nV61tEdSq8H/hStF7wfknJmfMnc25ubvjChfUDA4fGx+mJn42frvL68ywMr0oPycZiS8u0cF04nDGccPeXRD/sr2WsX1lyDI9IZ0i9lnzXnC4zv3i5knOKEQLRmnd3u9+L2wANL0po3o9POKuCoqtZ1etbRHUqvB/4UrRe8H5JyZmtJ5Ps/8yFCw/u2jU4OHjy5Elp/ETGVCNLU4faGVNj0yanNdFf4+6fgZwyHZ7tlDylZ2w10aOumb7ZmwH9uuXnTKQM6TyRzvPoGfMtXM9Pw4sSmvcT+ISzhlN0Nat6fYuoToX3A1+K1gveLyk5c9HJJPufnJy8ePHizMyMeX2PvEsRWVh6qAwtdTPhbJFp8mO0GG46q7V/Bm2gmc4xJEXHsjF+KXUsX5bmyIzVUy1jTiVp5PxxiJxBchSRb4kG6QMNL0qI3o9POGs0Rd+AVa9vEdWp8H7gS9F6wfslJWfG5q8bu28vC/P+QcGLEqD34xPOGk7RN2DV61tEdSq8H/hStF7wfknJmbH5PYgf9T3s3/JzjRhelAC9H59w1nCKvgGrXt8iqlPh/cCXovWC90tKzozNHyC8KMF6Pz7hrIEUfQNWvb5FVKfC+4EvResF75eUnBmbP0B4UQL0fgKfcNZYis5z1etbRHWql/eT7AO9tqplKTr7+CizMKH1UiuXpWh925WG5Fu0+UEL4R3e2v1ctDHwCWeNpehq1n747OemPvfjo8yCpeiqVLS+jM/OCVNtSL5FJxO0EF6U1u5nbIzmUHSeq17fIqpTffZz87z/th9l1qg7U3UPHN8F8+HGVf9mF7el6LsF3i8pOTMu8QHCiwLvXw0Uneeq17eI6tQV4P1lPsqsUd5vzBN7/Wp/s4vbUvTdAu+XlJwZl/gA4UWB968Gis5z1etbRHXqCvD+Mh9lRk6sn8Kpzn/MSlDLnXfeqVX9R658SLCvawxT56lW+Ztd3Jai7xZ4v6TkzLjEBwgvCrx/NVB0nqte3yKqU1eA95f5KDNpxtqtuaINng6pThX+SuQt3Gjh+ip/s4vbUvTdAu+XlJwZl/gA4UWB968Gis5z1etbRHXqCvD+Mh9lZpgxuzt7ttFOPemrRGkxVu/nRikZ3VY5Rd8t8H5JyZlxiQ8QXhR4/2qg6DxXvb5FVKeuAO8n5m73UWaGGbPrs6/Ldmpx27ah6vrGGH0I75cUfbfA+yUlZ8YlPkB4UeD9q4Gi81z1+hZRnboyvJ8g+3d8lBmZsXyC50Nya6prk9Y/AyCJ6txoUOT9BI3Sh/B+SdF3C7xfUnLmopOJN7doIbwo8P7VQNF5rnp9i6hOXTHeT5D9F36UWfysr/2eIG8mh6YKNWpY4jsDxrBw1Zr0lKr85wN4v6RoveD9kpIzW09mJW9ucc74iDxQCC8KvH81UHSeq17fIqpTvbyfZB/otVUti/8ulz4Nk64aWi+1clmK1rddaUi++c1/2ze3qBOH95e4LZBvc5H79Jz4M3XiGcTn6Cp44mzz2v9wh6ppqFvSR00fHYpXij5/N57LmOo2cdcF7/DW7mf/qyIoQ9HVrP3w2c/Nfu4vD/97P9fh/VVTtF5F68v47Jww1Ybka5zMMm9uUSee3q87xEafsf9oePTmsekUuQnt8xvdsoeZOSOJiI7sUzUUXpTW7mf/qyIoQ9F5rnp9i6hO9dnP4Xo/aCZF6wXvl5Sc2TiZ5d7cYuPG6N+7Yv8lU+QH4OQJ2GxIj1WLaFBD0hH33GPMpsk4buTE6SEfZT4KP9uBMA4VRrfsIdVrSQNN3hH97m10kBlSDbwo8P7VQNF5rnp9i6hOhfcDX4rWC94vKTmzcTLLvLkF2bN+7CZPVNXEONcmLbWOqEI3Ceo458exo8ZaIuVn02QP9Ugi6SrNPz9c3VLEFHXLHsb1+IW4PVHtUzUUXpQwvR+/BNpYis5z1etbRHUqvB/4UrRe8H5JyZmNk1nmzS0yBqk8kFFmL38kn3bWzkqVuHeEbokr+dk08kUz3q+nleafNiqMQ4XRLXvIdZpUhaKDtE7VUHhRAvT+xv4S6Ir751EKuCN+G7c6oF3EvwxuUHQ1q3p9i6hOhfcDX4rWC94vKTlz/mTSBd395hZ5g8yROmbaQXtn3qFL2GpGEiZN1eilElSz6MDYZza6ZQ9VPXqB+D4jUe1TNRRelNC8vyG/BCr/ZKnI+40/a6K6dE061Kpa9RjZp5Z8iDDBbq2HEPn55aEaFiPn3Lhxo2H81lHqONcifx9cUnQ1q3p9i6hOhfcDX4rWC94vKTmz9WTSBd3x5hbS/NIf6Sd0KFFZpX4Wjzw06526RftrfjaNeNHoxiLploxk9JO/evEU41BhdMsemkMS1T5VQ+FFCcr7G/VLoNJ3rV7IkMS+a/g0H2pVS3SoXZZMWtcJt/cbExJSkvNQXffhl9A99e966/uDfAtB/fWvhGuKrmZVr28R1anwfuBL0XrB+yUlZy46mXRBL3pzC9Mv6SrIxO3xE3+E6sU/AqDD5Lfmk4a0RfcSv+unxyvE070QTI9PzN9sN/41IdEMs1equpcwZki9X3VjjE6NgRclKO8v+QlnBJ8X7Xx8SLBx6g4kUZ18kQ8NUySVoAq1c4XhdhrFjTQDtxM0CVeoUZu0RvYkVR8aExLWOSkM2U7ISXQ33ZhvIfi1uK4p+gasen2LqE6F9wNfitYL3i8pOTM2f4DwogTl/WV+CZQMj02XnFKbH0Mt/PhrWCZbft5ZdX/6yn0Y6kYz6P56lJzBeGmGGiW6szEht3BFNuZt20iEKwTX8y0ETchJSYq+Aate3yKqU+H9wJei9YL3S0rOjM0fILwoQXl/uV8CVV5IkOGROxJUYViVlqkrslFDQ+irbJfdSM1PzuSnIqzz5CfkCiOHNMT75RBN0Tdg1etbRHWql/eT7AO9tqplweVvZUHrpVYuS9H6tisNyRebP0B4h7d2P+c3RolfAk2NjQyPrI6/0qG2Pel/umI1RX7ilw/K5L40oYYO9Zx0yH0IqvOLSuT8+uXyE1KjdU6SWNXImHVP3ZhvIYqe+9UZb3d89nN0Nul/fMqsuFV6bVXLgsvfyqJovYrWl/HZOWGqDckXmz9AeFFau5+tG+N2vwSamhzXdQsZJ9elp2pVGqSGJqGe9FUdx/31Ib+EHsWduU6vpesE263uSeiXo6/GhNyoW/Q8WtXImPk2hSr00vxy+RauE1zXFH0DVr2+RVSn+uznZns/3sUiTIrWC94vKTlz0ckELYQXJUDvJxy/BEpOqeEWsj0+pIp0SmohF9QtVu8nqJuq2fqQeuedd6qDxPKpm64zbL1yLE9lndBolHPqim5n2OPVgQhYHYsWmpk7S4rOc9XrW0R16orx/ko+ymxlEP/qdtHfWpWgol9+1hR9t8D7JSVnLjqZoIXwooTp/Q4MK20zyO/1E3wd5H9ywBSd56rXt4jq1JXh/VV9lFmezF8ZGX+ZFHtw0iD+sijrrPpPpojYsM05MvNnRlvnjDqZxl/rSHX9erpTriX5S6uKKPpugfdLSs5cxyUeVA0vCrw/NCjBuu2fro/6xwaSovNc9foWUZ26Ary/wo8ysyDMOePTfJj+BXQqCXOOqsKoax1RPTeJGCj/pNo+p+nb8Uuk9wYkcz89It+SqVZA0XcLvF9ScuY6LvGganhRVpz3gzooOs9Vr28R1akrwPuX81FmEWxyWYuN6rHRcgdloFY7TLpHLipdl9u1Fafzp277hTD2lExbOrs5IWGZU8oaMUn+fdTzLdlq4yn6boH3S0rOjEt8gPCiwPtXA0Xnuer1LaI6dQV4//I+yiwxy9TrEt9Tb1hKHXRF95EI201clEhmyc8v5rE+Xce3GQLV2Zww6pmb0+7ZolXEqOLNtxjVhlP03QLvl5ScGZf4AOFFgfevBorOc9XrW0R16grw/uV9lJl2+qIWbZx2XyXYJ0kWbpl2VracOrqYxDphptHy6mpCIj+nPUbRmnf6fEuEfaLGUPTdAu+XlJwZl/gA4UVp7X7eDZoFn3aDqte3iOrUFeD9xFz5jzJLTK6wRbtgsR1GP+yvmdavXDmGxqWTpF5LvmuZMfMqyYvmJyQxP2fSPYtozbu73e/FbUDDgfcz8P52JRDvPwqqB97PuMeuocFVYL38kf2X+iizxPAyv+fGLdxHO6K0RgNyysxvA0RzpIfxg/odemzUWbxWpmNUz7yKelHLhNQn7annTKQMInLSeR49Y76F6/lpGgWtl1o54E2R9+PNLVpICDsc3t8c6DyrMw6Kad5zP0P2f/uPMktcLnI+fqROfpVe9dE26PJDbaAxZs/IkNfckbbEr6V66NeNiOfIjOWpbBPSsWxM5lSSRs6feL04isi3RINEPg2maL2K1pfx2Tlhqg3J13oym//mFvk3WlnN8KK0dj/D+5sDnvsZ99hme//qpAG+bd4/NBh4P1OR9y/3zS2KPJvbS5p6vpu6n0zeFo0qG5P3Q+XOBHfQ6A4rHXj/6gHez7jHwvubQ/yo72H/+mcSFQHvZ6rw/oa/uUXd3m+0RFaffC67lErOv7KA968e4P2Meyy8H0TA+5kqvL/Mm1vQEzZXCKpr69Vvcs4t+is3kko+zXVCu7g6FvMwhqlTvWb7DHijW3vQHt4/PB7NNj6sDlcJnZ2dmzZtOnz4sDq+HfB+xj0W3g8i4P1MFd5f5s0tyID5I0nYjLX1kn9zhR2a26U36w66kVp4qryFGy1c55eWUn5gGxCm97OXK2bPq9ZiVqf3P/HEE7RL77///hdffFE1OYH3M+6x8H4QAe9nqvD+Mm9uoZ+/6au03ujhPfupZfQ130FDLQ4LN1rkbFLKD2wDwvT+iOX4+Wr2fmbDhg29vb1KKADez7jHwvtBBLyfqcL7ibnbvbkFwXYrv2oMX5febPQkdEvewo0WXd8Y4xjYBqwM7+e6nmv2/DHRRaO8X7bGPdXoeNCx8/Ecs+fz3WxDg0Z6P7Fu3bqHH3741VdfVXIOeD/jHgvvBxHwfqYi7yfI/h1vbkGQ+9J1jb5SXboyV6hFWzJV+FaAoAr/hF9DLdSBKtLOmSLvJ2iUPoT3W/FXS3t/auRRs+iQVmNvV7Ydt3I9qSb/t3Xj2wLVuBIwvJ9Zv57upQdUjyzwfsY9Ft4PIuD9THXeT5D9F725BSEdXVsvtTDGPQFd+7iRRzGs0q0AH1Ifw8K5neBDqdIofQjvt+KvlvX+rM1bdfVYL+EeqRIdW7vJxhVxB4Dn/iK8vJ9kH+i1VS0LvH9lQeulVi5L0fq2Kw3JF5s/QHiHt3Y/N9z7bc7NXYhoRGE33YvgqQOmjn/vV2e83fHZz3juBxFF61W0vozPzglTbUi+2PwBwovS2v1cn/dL/051Zd6mb8fN1Bj/n8YUdFPw1AViOLD34/f88/jsZ3g/iID3M/D+diVM71fWzOjfy4vNWFTlD+kjlFlnm2fPn+FjVpVIc5rd1L/3K2w/OgiNrq6uzs5O/H1/Hng/8AXez8D725UwvR9UAbyfcY9ttvfjo8zCBN7PwPvbFXj/6gHez7jHNtX7m/9RZkES4nv7w/uZhuRLlx4QILQ08P7VAK91nqrXt4jq1JXh/cv9KLPbQx56WxPM9DEGxB6cNIjPL8tOqj9Nl4gN25wjM39mtHXOqJNp/LWOVC/xeb4VfKYfvJ9plPerixAIBnj/6gHez7jHNsn7G/5RZhGGldsRnYz+0WH0F9DclErCnKOqMOpaR1TPTSIGigkJ25ymb8cvkd4bkMz99Ih8S6baIOD9DLy/XYH3rx7g/Yx7bJO8v8xHmZFTboyecGNTU5aYHBo+Gtd1j+go7Z9xViLpHrmo1LhdW3E6f+q29BJyhCLTls5uTkhY5pSyRkyiX1o35luy1cYA72fg/e0KvH/1AO9n3GOb5P1lPspMPmLTPQDXyeS4lnqd9j1hgFaDVAjb1fOn/RIzTkcJe7Y+XSc3GQmqszlh1DM3Zz66CGsiSbz5FqPaEOD9DLy/XQnE+0Fz4NNuUPX6FlGd6uX9JPtAr61qWQwvKfNRZtIV0zr5YuxymRauC8vM+rHhiuyT1Fu0p2OVLacz6BfKhqTJNFqCURMS+TlFyALRmnf6fEuEfaL6ofVSK5elaH3blYbkS5ceZTggGGhRaGlau5939PZ1Dr331IH3UaornUPDdJ7VGW93fPZz837Xb+52H2UmzSytk8nFhpdp4brwPzk2T/TD/ppp/cqVY2h0OmfqteS7lnkzr5XEkJ+QxPycSfcsojXv7na/F7cBDQHP/UxD8vX3fvG+LsBOZ2fnpk2blvt+L63dzy9t7Xl2/3HDq1AaW57df4zOM592g6rXt4jqVJ/93DzvJ8j+HR9lJl3R8jP/xOuiFu6pNdHfDjllpoMYScQP6ndIW5WvlekY1TPuTT2iQ8uE1Cdj1awnUgY1SQTpPI+eMd/C9fw0PsD7mYq833z7ttsB778t9b3Pa2v3c1dXd0/tgOFVKI0t22pDXV1dfNoNql7fIqpTV4z3E2T/RR9lZnoqP0Endqcb5K/SR5bKD9lp//QH7AJtoDGmc0aGvOaOtCWeTPWQE/McZpx0aJuQjmVjMqeSNHL+eHrOKTmKyLdEg0Q+DQDez1Tk/RHL8XN4/22p4/Nd6JS2dj9PTEzs6O3rHjxl2BVKo0r3a6foDOvfHzeoen2LqE5dSd4PGuDb5v1DA4D3M03yfq7rAcl7qnOzRnm/bI17qtHxoPRt23PdbEPbh/o+17Xl+3nLli07d+15emjYMC0U/0Jnlc7t888/z6c6TxPW10p1Krx/ZRE/6nvYv/UnG57A+5nmen9q5FGz6JBWY29Xth23cj2pJv+3dePbAtXYdhjez6xfv35gYED1yBKI9xNd3d1kUZvx9N/QQk/8dFafePJJdZZtNGd981SnwvuBL/B+pqnen7V5q575yDWGe6RKdGztJhvb7w5ghT73M1u2PL+zt6+nNvTca8fjnwGMGE6GUq6M0Nl7dv8xOpN0PumJH9criXssvB9EwPuZhuTbcO+3OTd3IaIRhd10L4KnbhdW4r/3SyYmJrq6ul56pYdMi2ID9UFn76WtPXQm+d/4cb2SuMfC+0EEvJ9pSL50SVKGI7F6e4HNp7oyb9O342ZqjP9PYwq6KXjqAnGFwt6/sn7Pv4jqVOQrCTNmH9UnX3g/iID3Mw3JN+/9ypoZ/Xt5sRmLqvwhfYQy62zz7PkzfMyqEmlOs5v6936F7UcHKxp61Ovs7FxZf99fRHUq8pWEGbOP6pNvk97XDwQOrZdauSxF69uuNCRf+3M/aCm0KLQ02M/tDfItD577QQSe+5mG5AvvDxA89+cJM2YfFflK3GPh/SAC3s80JF94f4DA+/OEGbOPinwl7rHwfhAB72caki+8P0Dg/XnCjNlHRb4S91h4P4iA9zMNyRfeHyDw/jxhxuyjIl+Jeyy8H0TA+5mG5AvvDxB4f54wY/ZRka/EPbbZ3j9+/foje/Z8cvXq/Py8agIBAO9nGpIv2QwIEFoa7GdJmDH7qMhX4h7bVO+/fO3a4wcPXllcfGjv3rMXLszNzSkBlMXrswAcHwQA72caku+O3r7Oofdy7z+K0rLSOTRMi0JLg/0sCTNmHxX5Stxjm+f9ZPxPHDz4WVyfXVz8dq02HI79k6XmbTHTKA9iAxb900/hNcxVf/ou0VHLvIT5ipk5iyaMOrHxx92ZpEeJD/8t/gBAeD/TkHxf2trz7P7jhv2gtLA8u/8YLQotDfazJMyYfVTkK3GPbZL3X4qf+Nn4menFxfUDA2cCsX/TiRnRKjtE9Y4OMSAjJUYbVVMbJtvN+q6ckMjOaZ0wY900XdbP6X/cokfkW4zpJPB+piH5dnV199QOGPaD0sKyrTbU1dVFS4P9LAkzZh8V+UrcY5v0vn4/7O+/srioDhIOjY9v6Ovjz2CIIbdSRP4U+VR6RMTuyMdK0zbmkCLSqSKbJGfdmH0izsgCGqdaah1a4kbhw8KqU8OlOdNWJtOQTh1hzGmdMKrKGRRqorRbMnO+JVvNQOulVi5L0fq2Kw3J98MPP9zR29eND2kNo3S/doqW4/z587Q02M/tDfItT5Oe+8evXn1k375ZYf+np6a+uW3b4ODg2NgYt5ABJ2YVQe7Mh2RXXFvL1kcWqCuJjzkkwnDBO/Sdge5WZInUIe6a/J9IuoqXSMfKRj0iIbnBSEhf0ZzTOqE9xqQ1DTAJNt9iVCV47mcale+WLVt27toTfzyraUUozSy0BLQQzz//PK8L9rMkzJh9VOQrcY9tkvcvLCyMjI09MDAwHds/Gf99PT39/f0nTpyYmZnhPoazpYdkb7FfqRbtgcIMHRKRNd3UTYv6C9gqSU4MM+2Z2nI6v5gkP2GmRb5ibk7rhLYY0xjyTp9vibDNQsD7mQbm29XdTa6zGU//rSv0xE9LwD/tZ7CfJWHG7KMiX4l7bPN+129ubm74woX1AwOHxsfpiZ+Nf3qabgbUDwMMT8pYY2xdqkW7l7Axh0TIOpEeFvSXRD/sr2WsX7lyDA9KJ0ntlqzXnDHzEuIV83NaJxQjmNT4iby72/1e3AZI4P1MY/PdsuX5nb19PbWh5147Hv8MYMQwJ5QKygid6mf3H6PTTidfP/Ez2M+SMGP2UZGvxD22ed5PkP2fuXDhwV27BgcHT548KY2fyBhdZF3qUDtg6ohGxSkReiomlWR/qyUSZJbp8Gy/xHzTCaPOSo+6ZvpmbwbSCC1z3mGbUL9cRDRITheJ3E9Pl2/hemZYAryfaXi+ExMT9Nz50is95EPqz8xBxdCpfmlrD5128btECuxnSZgx+6jIV+Ie21TvJ8j+6Rvy4sWLMzMz0vgjIo9SRFaVHirjSn3aqNzO+8VU0WN16qyiW2SymR+xa7SH5qZN3Fg2xi+ljuXL0hxmSHxom3PNHdYJ1csljSlxK2dAJNFaWqJx+kAC72eQryTMmH1U5CsJM2YfFflK3GOb7f3Ah0LrLkl682AC72eQryTMmH1U5CsJM2YfFflK3GPh/SuL+IG/Xvu3/1wjBt7PIF9JmDH7qMhXEmbMPirylbjHwvtBBLyfQb6SMGP2UZGvJMyYfVTkK3GPhfeDCHg/g3wlYcbsoyJfSZgx+6jIV+Ie26T39QOBQ+ulVi5L0fq2K8i3vUG+7Q3yLU9Vz/3qr23AykGtXJai9WV8dk6YKvKVhBmzj4p8JWHG7KMiX4l7bIXefxSsHOD9DPKVhBmzj4p8JWHG7KMiX4l7LLwfRMD7GeQrCTNmHxX5SsKM2UdFvhL3WHg/iID3M8hXEmbMPirylYQZs4+KfCXusfB+EAHvZ5CvJMyYfVTkKwkzZh8V+UrcY+H9IALezyBfSZgx+6jIVxJmzD4q8pW4x4br/cPj0Tzjw+oQLIvOzs5NmzYdPnxYHd8OeD+DfCVhxuyjIl9JmDH7qMhX4h7bPO9nL1fMnletxcD7fXjiiSc6Ojruv//+F198UTU5gfczyFcSZsw+KvKVhBmzj4p8Je6xzX3uX46fw/t9YO9nNmzY0Nvbq4QC4P0M8pWEGbOPinwlYcbsoyJfiXtsVe/rd3vv5zp1jf5HlfPHRBeN8n7ZGvdUo+NBx87Hc8yez3ezDV0VSO8n1q1b9/DDD7/66qtKzkHrxQtnULS+7QrybW+Qb3uDfMvTuud+4d5ps+iQVmNvV7Ydt3I9qSb/t3Xj2wLVuJowvJ9Zv379wMCA6pEFz/0M8pWEGbOPinwlYcbsoyJfiXtsq70/a/NWXT3WS7hHqkTH1m6ycVXdAdTx3K9OUxZ8L0nCjNlHRb6SMGP2UZGvJMyYfVSffFeM99ucm7sQ0YjCbroXwVOvAvDv/UW4VeQrCTNmHxX5SsKM2UdFvhL32LC8X/p3qivzNn07bqbG+P80pqCbgqcuENsP9n78nn8et4p8JWHG7KMiX0mYMfuoyFfiHts871fWzOjfy4vNWFTlD+kjlFlnm2fPn+FjVpVIc5rd1L/3K2w/OmhXurq6Ojs78ff9edwq8pWEGbOPinwlYcbsoyJfiXtsc5/7QajA+xnkKwkzZh8V+UrCjNlHRb4S91h4P4iA9zPIVxJmzD4q8pWEGbOPinwl7rHwfhAB72eQryTMmH1U5CsJM2YfFflK3GPh/SAC3s8gX0mYMfuoyFcSZsw+KvKVuMc29339QKjQeqmVy1K0vu0K8m1vkG97g3zLg+d+EIHnfgb5SsKM2UdFvpIwY/ZRka/EPbZC7wcrC7VyWfC9JAkzZh8V+UrCjNlHRb6SMGP2UX3yrcr7d/T2dQ6999SB91HCL51Dw7ReauWy4HtJEmbMPirylYQZs4+KfCVhxuyj+uRblfe/tLXn2f3HDY9BCbM8u/8YrZdauSz4XpKEGbOPinwlYcbsoyJfSZgx+6g++Vbl/V1d3T21A4bHoIRZttWGurq61MplwfeSJMyYfVTkKwkzZh8V+UrCjNlH9cm3Ku+fmJjY0dvXPXjKsBmU0Er3a6dopSYnJ9XKZcH3kiTMmH1U5CsJM2YfFflKwozZR/XJtyrvJ7Zs2bJz156nh4YNs0EJp9Dq0Bo9//zzas1y4HtJEmbMPirylYQZs4+KfCVhxuyj+uRbofcTm55+mqxlM57+gyz0xE+r89SmTWq1bOB7SRJmzD4q8pWEGbOPinwlYcbso/rkW63309gtW57f2dvXUxt67rXj8c8ARgwHQmluGaFVeHb/MVoRWhd64q9ub61EFflKwozZR0W+kjBj9lGRr8Q9dg0NrppTp049/vjjL768lcxG/S05aB20Ci++svWf//mfaV3UCgEAAFhNVP7cr2o2VqKKfCVhxuyjIl9JmDH7qMhXEmbMPirylbjHwvtN3CrylYQZs4+KfCVhxuyjIl9JmDH7qMhX4h4L7zdxq8hXEmbMPirylYQZs4+KfCVhxuyjIl+Jeyy838StIl9JmDH7qMhXEmbMPirylYQZs4+KfCXusfB+E7eKfCVhxuyjIl9JmDH7qMhXEmbMPirylbjHwvtN3CrylYQZs4+KfCVhxuyjIl9JmDH7qMhX4h4L7zdxq8hXEmbMPirylYQZs4+KfCVhxuyjIl+Jeyy838StIl9JmDH7qMhXEmbMPirylYQZs4+KfCXusfB+E7eKfCVhxuyjIl9JmDH7qMhXEmbMPirylbjHriHZB3ptVVsdIN/2Bvm2N8i3vUG+5cFzv4lbRb6SMGP2UZGvJMyYfVTkKwkzZh8V+UrcY+H9Jm4V+UrCjNlHRb6SMGP2UZGvJMyYfVTkK3GPhfebuFXkKwkzZh8V+UrCjNlHRb6SMGP2UZGvxD0W3m/iVpGvJMyYfVTkKwkzZh8V+UrCjNlHRb4S91h4v4lbRb6SMGP2UZGvJMyYfVTkKwkzZh8V+UrcY+H9Jm4V+UrCjNlHRb6SMGP2UZGvJMyYfVTkK3GPhfebuFXkKwkzZh8V+UrCjNlHRb6SMGP2UZGvxD0W3m/iVpGvJMyYfVTkKwkzZh8V+UrCjNlHRb4S91h4v4lbRb6SMGP2UZGvJMyYfVTkKwkzZh8V+UrcY/G+fssD+bY3yLe9Qb7tDfItD577Tdwq8pWEGbOPinwlYcbsoyJfSZgx+6jIV+IeC+83cavIVxJmzD4q8pWEGbOPinwlYcbsoyJfiXssvN/ErSJfSZgx+6jIVxJmzD4q8pWEGbOPinwl7rHwfhO3inwlYcbsoyJfSZgx+6jIVxJmzD4q8pW4x8L7Tdwq8pWEGbOPinwlYcbsoyJfSZgx+6jIV+IeC+83cavIVxJmzD4q8pWEGbOPinwlYcbsoyJfiXssvN/ErSJfSZgx+6jIVxJmzD4q8pWEGbOPinwl7rHwfhO3inwlYcbsoyJfSZgx+6jIVxJmzD4q8pW4x8L7Tdwq8pWEGbOPinwlYcbsoyJfSZgx+6jIV+Iei/f1Wx7It71Bvu0N8m1vkG958Nxv4laRryTMmH1U5CsJM2YfFflKwozZR0W+EvdYeL+JW0W+kjBj9lGRryTMmH1U5CsJM2YfFflK3GPh/SZuFflKwozZR0W+kjBj9lGRryTMmH1U5Ctxj4X3m7hV5CsJM2YfFflKwozZR0W+kjBj9lGRr8Q9Ft5v4laRryTMmH1U5CsJM2YfFflKwozZR0W+EvdYeL+JW0W+kjBj9lGRryTMmH1U5CsJM2YfFflK3GPh/SZuFflKwozZR0W+kjBj9lGRryTMmH1U5Ctxj4X3m7hV5CsJM2YfFflKwozZR0W+kjBj9lGRr8Q9Ft5v4laRryTMmH1U5CsJM2YfFflKwozZR0W+EvdYvK/f8kC+7Q3ybW+Qb3uDfMuD534Tt4p8JWHG7KMiX0mYMfuoyFcSZsw+KvKVuMfC+03cKvKVhBmzj4p8JWHG7KMiX0mYMfuoyFfiHgvvN3GryFcSZsw+KvKVhBmzj4p8JWHG7KMiX4l7LLzfxK0iX0mYMfuoyFcSZsw+KvKVhBmzj4p8Je6x8H4Tt4p8JWHG7KMiX0mYMfuoyFcSZsw+KvKVuMfC+03cKvKVhBmzj4p8JWHG7KMiX0mYMfuoyFfiHgvvN3GryFcSZsw+KvKVhBmzj4p8JWHG7KMiX4l7LLzfxK0iX0mYMfuoyFcSZsw+KvKVhBmzj4p8Je6x8H4Tt4p8JWHG7KMiX0mYMfuoyFcSZsw+KvKVuMfiff2WB/Jtb5Bve4N82xvkWx4895u4VeQrCTNmHxX5SsKM2UdFvpIwY/ZRka/EPRbeb+JWka8kzJh9VOQrCTNmHxX5SsKM2UdFvhL3WHi/iVtFvpIwY/ZRka8kzJh9VOQrCTNmHxX5Stxj4f0mbhX5SsKM2UdFvpIwY/ZRka8kzJh9VOQrcY+F95u4VeQrCTNmHxX5SsKM2UdFvpIwY/ZRka/EPRbeb+JWka8kzJh9VOQrCTNmHxX5SsKM2UdFvhL32MZ7//cFDzzwgKp9//tKFvi8bkUqxSlj1ig54L2lAs3BKnez4lbxvSQJM2YfFflKwozZR0W+kjBj9lF98m2w95PZfOlLX2LXkVDjX//1tz76+OPRC2O6nD5zRh4apfnqvffdVxQ8Sdznjbfe0v3zpVUZ3XPPPUWR09dW7a2VqCJfSZgx+6jIVxJmzD4q8pW4xzbe+wl1IKDGr//Znx98/Q1Z9g4eMFpkab5KEd42+B39Nd0/X1qV0R9/7U+LIidatbdWoop8JWHG7KMiX0mYMfuoyFfiHtvg9/XjH5iruQXU+Ed/8qdbemubdg48ufPVMMv//PIfFwVPEvf5/7b16/6BFDql//dXvloUOa2IWpu6MNa37UG+7Q3ybW+Qb3ma99z/P+++f9PIjZDLXfcU3riQZHQOqjgiJxq4vgY+M4epIl9JmDH7qMhXEmbMPirylbjHNs/77/rGX3ft2PPK9p07+3btDpI//MM/LAqeJNUpMOhkvrJ9x+/+wR8VRU60am+tRBX5SsKM2UdFvpIwY/ZRka/EPbZ53v/lr3ylp3bg2f3HO4fee+rAyFMH3g+t3PWnf1kUPElG5zDKCJ1MOqW//1X8e3+Kj3rbfMfHx7u7u1/eum1nb6C3sO0HneqXtvZ0dXVPTEzwKvByWPFcX1WzsRJV5CsJM2Yf1Sff5nn///m1b+SsK6yyAr1fFUfkRKv21kpU3fl2dXXt7O0L/Ba27Yq6waXTvqO377nntlS3vtXtq1apyFcSZsw+qk++jff+oj82C9w+qVCEKzR4R+Tf+973WrW3VqLqyLezq3vn7j3dg+8aJx+laaV78NTOXXs2Pf20WhIbda8v0apdV52KfCVhxuyj+uTbYO8n/vqvv/X1P/vzP/1//ux/3n3/Xd/46y9/5Sv0xB++8XOhOK3F6BZg4Tj/r69948tf+cO7/t+/vuvu+2kJaCGuXJlq1d5aiWpRvs8999yOXf1PR8/65plHaWZ5emiY7H/Lli1qYXLUt75Mq3ZddSrylYQZs4/qk2/jvf+jjz8++PobWwcGN43c6NrR31M7YHz3/tpvnrlt+e+/f+6hF/b/pHbCGIty29JTG+rasYdOPi0BLQQtR6v21kpUrfmOj4/v7O3DE38gZTM9/ff28b/956ljfTWt2nXVqchXEmbMPqpPvo33/g9HR8lynul/jeznle07n91/3PjW/epfXvqTey997b7LUbk3LlyJv/7x+kvUYd13x79y7/fJ/o2xKLctz712nE47nXxaAloIWo5W7a2VqFrz7e7uxi1sUCW6we3qUsuTpY711bRq11WnIl9JmDH7qD75Nt77Pzh/niync88Bsp+dfbs6h4aN79u+Mwvc89bSF/OLX/xy4YtP55ZmP1+a+Wxp8sbS5eu3Lkzfeub1G//t976+obPPGIty2xL9ULRvF518WgJaCFqOVu2tlaha83156zbcwgZV6Ab35a09anmy1LG+mlbtuupU5CsJM2Yf1SffBr+vH3Hy3Xf3Dh54sm8/2c/u3bvzvwu96/T87KcLp0evv/PBtVOjs2OTn78xcvXwmZnhjz8fPDVTOzb9/vhC18Gr8H5dNvb9/AdPvmAtJBmd6YTTaaeTT0tAC0HLoRamLvLr295Y893Z24db2KBKdIPb26eWZzlgP7c3yLc8VT33P73nZ4n3m9+3ve/OXb05/4v3rx49PfXm2avvX/rswKnpvcen3hn9dNfbU9uPfHJsdPZf9k/goqnLv7w2/Bf3/VVHjr+495tP7D9jdKbC3k9LgOf+PG7Vmi9uYZtQ6rjBVcuTpY711bRq11WnIl9JmDH7qD75tsD7d5z4bGp2/ufD00Mnrhx+98rpi5/uPTbV98b4G+dubjs6+dKBsaNnZx4f+BgXTVl+2L1DGb7gh5t3Gt24wPtVzYZbteZr3ca4hW1sqeMGVy1PljrWV9OqXVedinwlYcbso/rk2wLv33bs5sS1uSOnp/cfv3Lg5JUTo5/2v33lp0fHD5+9+fLhyS2DYwfPzGzcPWa9aN7zaNeaNWt+864v01fiP/7nOx96YT/XqZE66EPmD+7ZwAO5nfpT0VJRZ34ViZyE4ZfT8XCFu1VShkbu+/Z31eUw5r6/eZAazW5xgfermg23as3Xuo1xC9vwstwbXLU8WepYX02rdl11KvKVhBmzj+qTbwu8f+ub1y7PzB18d3rvL6689s7k2+dv9r5xZevh8QPDN57/2eTm/WOD7878eOeHDu9nl+U7APJyqrOjkzdTYVemEneMGqmubZsPdT3fWffkdp6ZKtzO/ekuger0lePR9xM8pKLy2NZBdTmMeeyV14wOusD7Vc2GW7Xma93GPrewVPQ20+hG2k56RznuUNuwLPMGVy1PljrWV9OqXVedinwlYcbso/rk2wLvf/n1qbErc6+dmN795vjA2+M/f/9mz9ErL/7s8qunrj8zOP703gt7T0w/tm3E/dxPdW3AVNfer3tS4ZsDGkJ1fVVliftznYvuLKelonvK2XQYXNHTVl2+9Xf/wNfEbz30mCHJAu9XNRtu1ZqvdRv73MJqO+dDvcd0O+9kXecNL1v4sP3Ksm5w1fJkqWN9Na3addWpyFcSZsw+qk++LfD+5w9OfDAxt/utiZ8eGtt55OLQqakXhj5+Zt9o75sTm/aOPbn7g93Hph59ebgO72djZpPWcCNfVbVJG46uoc7cwqMcPQmSZDxNKD/Z/da6u7+x7u67N+5605Bkgfermg23as3Xuo19bmGL7i+LdqkuxuZsy1L+BlctT5Y61lfTql1XnYp8JWHG7KP65NsC739m8PLZS5/tO3Z519HRXa+PUuWVn429MHh++5GPuveNPr33fO/bU4+88G593s8XR26UF0rrVdXaWU6re8oO3M5FxtOc8uA/bnrwx08bjUaB96uaDbdqzde6jX1uYY29pPdY+TtU7tCWpfwNrlqeLHWsr6ZVu646FflKwozZR/XJtwXe37l37MPJX54am31rZPr196YOD88MnZ7Zd+JK7Z2p3cene38x3Xd89uEtJ328ny+OupHqDu83OlORPalOUMWYgQ5pOHfmeJpTHn/1FBWj0SjwflWz4Vat+Vq3sc8tbNH9Zfk7VO7QrqXkDa5anix1rK+mVbuuOhX5SsKM2Uf1ybcF3v/IS2f/uffcxp+e/XHP8D9uPfOjl8889tLp//3iqUdfOPnIllPk+lS++9Rb9Xk/Xz0Z3UgdrFfVos48M8PtPEr2J1ri/WUKvF/VbLhVa77WbexzC2vsxng33cb7eWfKXdrGpeQNrlqeLHWsr6ZVu646FflKwozZR/XJdw0Nbiyvv/HGjv7aT7YPFHk/XeC+cu/36ZroLiG8GapxLV4phb2floAWgpZDLQyoF+s29rmFpWK9v7R6Pzcyq8T7yxRaFLU8AIDl04Ln/p/UTtDljC6I7kJ9WvUhKHydZVac8VNh78dzvxW3as3Xuo1pfzbqFlZ7P0r5QouilidLHeuradWuq05FvpIwY/ZRffJtgfejVF3g/apmw61a87Vu4wbewsL76yjwfsatIl9JmDH7qD75wvvbsMD7Vc2GW7Xmi20cYIH3M24V+UrCjNlH9ckX3t+GBd6vajbcqjVfbOMAC7yfcavIVxJmzD6qT77w/jYs8H5Vs+FWrfliGwdY4P2MW0W+kjBj9lF98q3c+0FLgPcX4Vat+dL5NIwHpeWFFkUtT5Y61lfTql1XnYp8JWHG7KP65Fut9//t3/6tagVNhE47vL8It2rNN76bAsGhlidLHeuradWuq05FvpIwY/ZRffKF97ch8H5Vs+FWrfliGwdI0aLUsb6aVu266lTkKwkzZh/VJ194fxsC71c1G27Vmi+2cYDA+xm3inwlYcbso/rku4ZkH+i1VS3h5Lvv7h088GTffnh/q2DvpyWghaDlUAtTF/n1bW+s+WIbBwgtilqe5YD93N4g3/K05rn/5uj9Nz9ct7jw6dLSkmoCjYO9H8/9VtyqNV94f4AULUod66tp1a6rTkW+kjBj9lF98m2B998c+dL8B2vnLqz99Ni/n7lybmFhQQmgQcD7Vc2GW7XmW2QzuIVtIfB+xq0iX0mYMfuoPvk22/s//2TT4sy6+Uu/M3+549ap/3Txjf8xPT3tvnSeO3du7dq16gCUAN6vajbcqjVfq83gFra1wPsZt4p8JWHG7KP65Nts7//lxJaFqS/fGv+dW+f+y63jvzIy+Bvnz59fXFxU8hdf5G0+7/3xh+xEcH3jxo3czj0JVjW6wyoB3q9qNtyqNd/8NsYtbMuB9zNuFflKwozZR/XJtwU/87925tcXxv7r4ju/cu31f7e9p3N0dFR6f578RVO2RFa/di21GO2r+VIL71c1G27Vmm9+G+MWtuXA+xm3inwlYcbso/rk2wrvH3tq8ePfunH43xzZedeRI0dmZmbkA5O+PtIVUF3z1qzRjYy8jFKlVqt1dHQY7flL7eoB3q9qNtyqNV/7NsYtbEuB9zNuFflKwozZR/XJtwXe/9knmxcv/da1w/92z549H330kfEPpfpKR5ZPpk6V21406St5P3XGRZOB96uaDbdqzdfu/biFbSnwfsatIl9JmDH7qD75tsD7Px9/hrx/9tC/ev3owWvXrqnWBHk15Er+8mdcNHULLpoMvF/VbLhVa77WbYxb2NYC72fcKvKVhBmzj+qTb8u8//rhf3306NFGeT+xMcYxavUA71c1G27Vmq9jG+MWtlXA+xm3inwlYcbso/rk25r39btx5lfHjnzp+PHjN27cUE0J+kpHD0x04aOKdHQmf9Fk5I9VV/NFk70f7+tXB9Z8Hd6PW9hWQYuilmc5YD+3N8i3PC147ifoWvnhhx9evnx5bm5ONSXoK12tVov+jXTNmo6ODuPyx+0E1aVEQ3DRJNj78dxvxa1a8y3axriFbSFFi1LH+mpateuqU5GvJMyYfVSffFvj/aBS4P2qZsOtWvMt2sa4hW0h8H7GrSJfSZgx+6g++cL72xB4v6rZcKvWfLGNAwTez7hV5CsJM2Yf1SdfeH8bAu9XNRtu1ZovtnGAwPsZt4p8JWHG7KP65Avvb0Pg/apmw61a88U2DhB4P+NW68t3fHy8u7v7pVd6dvbu2g0aBJ3Ml7b2dHV1T0xMqBMd0/z1ZeD9bQi8X9VsuFVrvtjGAQLvZ9xqHfk+99yWnb19PbUDz+4/3jn03lMHRp468D6Kdxmhk0mnlE7sjt4+OsnqdDd9fTXw/jYE3q9qNtyqNV9s4wCB9zNudbn5dnZ179y9p3vw3Zx1oTSsdA+e2rlrT1d3N5/zZq6vBN7fhsD7Vc2GW7Xmi20cIPB+xq0uK9/nnntux67+p6NnfdOuUBpbnh4aJvvfsiV6+m/a+hrA+9sQeL+q2XCr1nyxjQME3s+41fL5jo+P7+ztwxN/08pmevrv7ZuYmGjO+uZpzfv6gUph78f7+tWBNV9s4wChRVHLsxywn4t46qmnemoHDH/6td88c9vy33//3EMv7P9J7YQxFuW2pac2RKddLUBd+OxnPPe3Iez9eO634lat+WIbB0jRotSxvppW7brq1PL5vrx127P7jxvm9NW/vPQn91762n2Xo3JvXLgSf/3j9Zeow7rvjn/l3u+T/RtjUW5bnnvt+Mtbe5qzvnng/W0IvF/VbLhVa77YxgEC72fcavl8d/b2dQ4NG+bUd0Z9OuWtpS/mF7/45cIXn84tzX6+NPPZ0uSNpcvXb12YvvXM6zf+2+99fUNnnzEW5bYl+lf/3r7mrG8eeH8bAu9XNRtu1ZovtnGAwPsZt1o+3927d+f/nG/X6fnZTxdOj15/54Nrp0ZnxyY/f2Pk6uEzM8Mffz54aqZ2bPr98YWug1fh/bps7Pv5D558wVpIMjrTCafT3pz1zdMa7x+/fv2RPXs+uXp1fn5eNYHGAe9XNRtu1ZovvD9A4P2MWy2fb+z9hjO93/vu3NWb8794/+rR01Nvnr36/qXPDpya3nt86p3RT3e9PbX9yCfHRmf/Zf8EvF+Xf3lt+C/u+6uOHH9x7zef2H/G6ExldXn/5WvXHj948Mri4kN79569cCH/OSj1cG7j2rUbo49LA/B+D9Wab5HNTF+/vrlWm5yZwS1s84H3M261fL5W799x4rOp2fmfD08Pnbhy+N0rpy9+uvfYVN8b42+cu7nt6ORLB8aOnp15fOBjeL8sP+zeoQxf8MPNO41uXFaR95PxP3Hw4GdxfXZx8du12nBD7N/h/SVuC9aqD1SL6KipxgQav2ZNPENUycITZ5vX/oc7VE1D3ZI+avroULxSrUPNZUx1m7gLgPermg23as3XajNT1669cOjQkYWFH+3Zc67EHva5N8V9bR54P+NWy+dr9f5tx25OXJs7cnp6//ErB05eOTH6af/bV356dPzw2ZsvH57cMjh28MzMxt1jVu9/6IX9dAn7j//5Tj6kCh1y/Tfv+nJ8fYuguu7McMs9j3ZxnSvWUYGWoZH7vv1d5fkx9/3Ng9RodovLavH+S/ETPxs/M724uH5g4Iy//Xt6v+4QG33G/qPh0cevplPkJrTPb3TLHmbmjCQiOrJPtUzg/apmw61a883bDBn/i4cOvb20NLS0tH1h4Tu7d4+Mjrr3sM/K5sfKW0mqp3q8ze7J3kISjdhWYQHvZ9xq+Xyt3r/1zWuXZ+YOvju99xdXXntn8u3zN3vfuLL18PiB4RvP/2xy8/6xwXdnfrzzw2V5/x/cs4Eq9JX7kItzT7ZzrbLl8yhu4a96FFWCLY9tHVS2H/PYK68ZHXRZLd7/w/7+K4uL6iDh0Pj4hr6+yclJPqQr10Z6CGb/pQtZvPD62mU2pMeqRTSoIemIe/Ql0bwSZq6t8dVTH/IRPZenbdkOhHGoMLplD6leSxpo8o6N6iAzpF7g/apmw61a8zW2MT/xk/EfXFratbS0eWnp0fn5u/v7zzrt32dlLWPFdsrdRyadcxu1nYD3M261fL5W73/59amxK3OvnZje/eb4wNvjP3//Zs/RKy/+7PKrp64/Mzj+9N4Le09MP7ZtZFnez4/vul23kNlT3Xjc193yowIv3/q7f2Dj/9ZDjxmSLKvF+8evXn1k375ZYf+np6a+uW3b4ODg2NgYt5A968du8kRVTa5ia5OWWkdUoZsEdZy/zEWOGmuJlJ9Nkz3UI4mkqzT//HDalZqibtnDuB6/ELcnqn2qZQLvVzUbbtWar7GNO/v7jyws0BN/Hxv/rVsb5ufXj439oKdH3MKSH6tl5M2Urj6ttVKiJr2l042X7UDInaMQ2ymq5Ha7WW874P2MWy2fr9X7nz848cHE3O63Jn56aGznkYtDp6ZeGPr4mX2jvW9ObNo79uTuD3Yfm3r05eFleT+3a+hRnn1dQp31TYCcTcM/AAi5/GT3W+vu/sa6u+/euOtNQ5Klld5Psg/02qqW4Hhfv4WFhZGxsQcGBqZj+yfjv6+np7+//8SJEzMzM9xHXq0yRhhf26KfCKTXyuz1lOvpdTO5ciZSfjZN9hIpvD+9egrzz11SjUOF0S17yHWaVIWig7ROtUzY+/G+fnVgzdfYxlNXr/7T3r3bFxbY+L8zN3fvxYvrn3kmewubLGS0xtEK65U1dtf/p4+TfZfffpZdIbYTV9Rouc1kve2gRVHLsxywn4uwev8zg5fPXvps37HLu46O7np9lCqv/GzshcHz24981L1v9Om953vfnnrkhXeX++/9XPSjPFf4uV8Xw/t10aOM9gDLg/+46cEfP200GoW9v2589nOzf9dvbm5u+MKF9QMDh8bH6YmfjX96mm4G1A8D5NWq4MqVOmb+Mpdec/WFT0u6c46MJK6YVI1eKkE1iw6MfWajW/ZQ1aMXiC/0iWqfapmw9+O534pbteZrbGO6hf1gbGxDf/+j8/P0xE/Gf8/mzcW3sLRdowPdYt6DJpZf61A98jepll0htpOqcIvcZrLeduSvLUwd66tp1a6rTi2fr9X7O/eOfTj5y1Njs2+NTL/+3tTh4Zmh0zP7TlypvTO1+/h07y+m+47PPrzlpNX7qfAONupk3nRbQBW+OeBDqmg7p0NqNLw/P4rbQy6Pv3qKitFolFY+99N/jX1tt/cTZP9nLlx4cNcuek46efKkNH5CXq3SH+kndChRXdX0szgdc1UP1y1xLZomP5tGvGh0Y5F0S0Yy6hquXzzFOFQY3bKH5pBEtU+1TOD9qmbDrVrzzW9j2sMjo6N39/evHxujJ37nLWzO+80lprWnXaat37IHLLtCbCddiSZKfnFEHecHtgvwfsatls/X6v2PvHT2n3vPbfzp2R/3DP/j1jM/evnMYy+d/t8vnnr0hZOPbDlFrk/lu0+9VeT9/At6jH7uJ9vmFkL6vWqKsXo/S8SKeOgvWVaX9xN06ZycnLx48SI9J0njJzJXK7p4qeVWD93xE3+E6hU5dXyY/LZT0pC26F7id/30eIV40hKCeelMzD93Sc0+qCVatlvSR91LGDPozvaplgm8X9VsuFVrvtZtTHv47Ojo32/ffptb2GTX6BZxc6mgxe+g7ZqMyHcwdwshdpdQ452uD3MbtZ2A9zNutXy+Vu8nS/7Kvd8na3cXvJ9/3WXVeT+oFHi/qtlwq9Z8i7ax6xaWb94icnd7ZMlKSnw6ahF2n+uQt3B5K5lRk1uNCHh/DuxniRxr9f6f1E6QqdMzvbtQH3yOX30F3g8aCbxf1Wy4VWu+dWzjNjbdQID3M261fL5W70epusD7QSOB96uaDbdqzRfeHyDwfsatls8X3t+SAu8HjQTer2o23Ko1X2zjAIH3M261fL7w/pYUeD9oJPB+VbPhVq35YhsHCLyfcavl84X3t6TA+0Ejgfermg23as0X2zhA4P2MWy2fL5kQaAnNWd88TX1fP9Ac2Pvxvn51YM0X2zhAaFHU8iwH7OcisMlbQn3bWOOzn/Hc34bQacdzfxFu1ZovtnGAFC1KHeuradWuq04tny82eUug096c9c0D729D6LTD+4twq9Z8sY0DpGhR6lhfTat2XXVq+XyxyVsCnfbmrG8eeH8bQqcd3l+EW7Xmi20cIEWLUsf6alq166pTy+eLTd4S6LQ3Z33zwPvbEDrt8P4i3Ko1X2zjAClalDrWV9OqXVedWj7fovN5c/T+mx+uW1z4dGlpSTWBxkGnvTnrmwfe34bQaYf3F+FWrfliGwdI0aLUsb6aVu266tTy+VrP582RL81/sHbuwtpPj/37mSvnFhYWlAAaBJ325qxvntZ4//j164/s2fPJ1avz8/OqCTQOOu3w/iLcqjXfom0MWkjRotSxvppW7brq1PL55s/n559sWpxZN3/pd+Yvd9w69Z8uvvE/pqen3U//586dW7t2rToAJaDT3pz1zdMC77987drjBw9eWVx8aO/esxcuzM3NKaFxrJT9R3F2dHSog2WyZs0a+k5TB1notMP7i3Cr1nyLbGb6+vXNtdrkzAxuYZtP0aLUsb6aVu266tTy+ebP5y8ntixMffnW+O/cOvdfbh3/lZHB3zh//nz2wyrNy2ze+/kjpwiub9y4kdu5J8GqRndYJdBpb8765mm896+/996v/9mf/+4fff2uex747d/+7e8nsErG/8TBg5/F9dnFxW/XasMNtX/eefxVY+xIqkvXpEOtqg0YI/vUajXVumYNu7UeQuTnl4dqWIyck3a5YfzWUeo410Ihyf7qLMfQaaeTT0tACwHvN3Cr1nytNjN17doLhw4dWVj40Z4955a5h1fmu/3HHy9ofLpwaer+QOoi4P2MWy2fr/V8Xjvz6wtj/3XxnV+59vq/297TOTo6anxepYFxJSRkC1UIvgbK9vyo1UP7eD8Zz5e+9CV2IAk3Xoqf+Nn4menFxfUDA2ca/fSf30nWPUfwoVa1RIfaZcmkdZ1we78xISElOQ/VdR9+Cd2TXoKsndv55fItBPXnRn2GDaiRbsUeeOABqvMQbuc6U93eWomqNd/8ZZGM/8VDh95eWhpaWtq+sPCd3btHRkcze1h8fq6q5FscZD5+Vx7EBiyGi+em7KTxR/krOug2UYiZyYnMnEUTRp0yxl/rSHX9YrpHrkV+uHAjgPczbrV8vnbvH3tq8ePfunH43xzZedeRI0dmZmbkz/yNKxujGxm+HnKdr1d8+ZLtsr7aaKX3k+wDvbaqxUibkbDl/LC//0rutvHQ+PiGvr7JyUk+lNuI6tRC24KgQ37S5Qp3ZstkdGf9VUI9CarQWK4w3E7bkRvlQJqTK9TIk0tkT7l3jQkJ65ycC9cZOYnuphvzLQS/FlX49HKjhBrv/sY3aFEIvUC6XgZjfdsea77GZZGf+Mn4Dy4t7Vpa2ry09Oj8/N39/Wel/Zv+mmkxJQuit5wqqnd0iPEZKTHaqCqMmi63Gd+VExLZOa0TGtYdz5/eG5DG/fSIfIsxnT980Vwu2M9FWL3/s082L176rWuH/+2ePXs++ugj43f95PWKr8ny6sTIFq7wY4xsz49aPdS3jTU++zlyFPofx2HFrdJrq1qMw4SI8atXH9m3b1bY/+mpqW9u2zY4ODg2NsYtVtujOm0XXclvFGrk20mWHB1453EjQT3lnHqgfBUdkoQaJbqzMSG3cEU2atvW6HwJmpArBNfzLQRNyEnx6eVGCTXiud/ArVrzNS6Lnf39RxYW6Im/j43/1q0N8/Prx8Z+0NOjb2HZHAnyR3bTfEtiodzG41JIVK3iAZsbpQ+nVp0aLr1W2spkGtKpI4w5rRNGVTkDISZJuyWN+ZZstQFYvYqoY301rdp11anl87Wez8/HnyHvnz30r14/evDatWuqNSF/iZMXMUa2cIVbZHt+1OqBvV8d2GjU+uaJXKSBr523Fobb6bZxZGzsgYGB6dj+yfjv6+np7+8/ceLEzMwM91QXwwRqkTtGVriu+iXuK78aUB/6KiU5Fan52RjrbNZ58hNyhZFDGuL9egifXm6UUOOv/x//x2/8xm/89m//Nn9v6550yNCdgarloG56fVVTFmMs92To0DEzQarqasNnTzZwPzMUrarFTF29+k97925fWGDj/87c3L0XL65/5hl5CyuNTlVyLVaDTEmcVzhw0k84cTpQNuoRCclNRkL6cuac1gktAYqmNMAk2HyLUfXHWBRNHeuradWuq04tn6/1fLL3Xz/8r48ePdoo7yf46ucYtXqg096c9c0TuUgDX1tbi4Fun5ubG75wYf3AwKHxcXriZ+OfnqabAfXDgPwm4Ba9P+RGoYsYHcpG+dWAn/j5QZmh/cdXQkZvR5qNDrkPQXV+FYl8Cf3q+Qmp0TonSaxq9CSE7qkb8y1Emed+eL/BsvYzQ9GqWgzdwn4wNrahv//R+Xl64ifjv2fzZuMWVlqjquRasn6cd0W2ShqWSOkMqS2nkySTE/qFNJkWEUl+TuuEcoRCNOWdPt8SYZmlfoxF0dSxvppW7brq1PL5Fp3PG2d+dezIl44fP37jxg3VlCCvV3Rdogpd03QjI69XUor2V3Io+6w26LQ3Z33zNNv7CbL/MxcuPLhrFz0nnTx5Uho/QXuCLE0dxPC20PvDupn0npNfDWhaY3Lqpg+pQod6IHfmOk2u6wTbre5J6JDoqzEhN+oWPY9WNTIvvk2hCr00v1y+hesEVeTplVAjfuZv4Fat+eYvi7SHR0ZH7+7vXz82Rk/8+VtY6XOqkmu5rRFGP+yvZayf9o+GR6eTp3ZL1mtOnXktEUl+TuuEYkSCaMq7u93vxW2AP/B+xq2Wz7fofNLj/ocffnj58uXMr7LGGFc2gi5NxmWN2wmqS0leAOH96sBGo9Y3Twu8n6BtNDk5efHiRXpOMv5ohPaB2izJjSF/1fvD8Ejuqfec/JqHeqqabcOReuedd6qDxPKpm64zbL1yLE9lndBolHPqim5n2OPVgQhYHYsWmpk7G6dXQ43wfgO3as3XelmkPXx2dPTvt2+33sJK78y7aWKQt7NCMsu0jxhPqKf0ZHJuSfSoa6Zv9mYg9WPLnHfYJtQvl5JOEoncT0+Xb+G6MYcP8H7GrZbPt+h8gkppK+93/I2f6gRiyO/1E3wdyBtnfYYN8Dd+edyqNd+iy6LjFpaIrFM+SedbImNMsLui9tC8c5IUHcvGeD51LOemOTJj9VS2OdfcYZ1QvRwjJ0+8XhxF5FuiQfrAH3g/41bL5wvvbwnt4/0EmY3jvX2AhMy7bvuny6r+sQGhznLMinhvH/5tAHWQw2dmH9WaLy6LhK91Z24eGgC8n3Gr5fPFJm8JbeX9t31PX1A1dNrDf09feP9KI37ar9f+i36yUTdFi1LH+mpateuqU8vni03eEui0N2d988D72xA67fD+ItyqNV9s4wApWpQ61lfTql1XnVo+X2zylkCnvTnrm6fB7+tHnHz33b2DB57s2w/vbxV02unk0xLQQtByqIWpi/z6NgryfkIdBIM1X2zjAOGL5nKpbj+HSfl8sclbQn3bWOOzn/Hc34bQacdzfxFu1ZovtnGAFC1KHeuradWuq04tny82eUug096c9c0D729D6LTD+4twq9Z8sY0DpGhR6lhfTat2XXVq+XyxyVsCnfbmrG8eeH8bQqcd3l+EW7Xmi20cIEWLUsf6alq166pTy+eLTd4S6LQ3Z33zwPvbEDrt8P4i3Ko1X2zjAClalDrWV9OqXVedWj5fbPKWQKe9OeubB97fhtBph/cX4Vat+WIbB0jRotSxvppW7brq1PL5YpO3BDrtzVnfPPD+NoROO7y/CLdqzRfbOECKFqWO9dW0atdVp5bPF5u8JdBpb8765oH3tyF02uH9RbhVa77YxgFStCh1rK+mVbuuOrV8vkXnc/z69Uf27Pnk6tX5+XnVBBoHnfbmrG+e1ng/9lOl0GmH9xfhVq35OuIEraJoUepYX02rdl11avl8refz8rVrjx88eGVx8aG9e89euJD/KL96ONfQz3Ra4dBpb8765mmB91eyn4KjlW+ASqc9fO8PU7XmW2Qz09evb67VJmdmcAvbfIoWpY711bRq11Wnls83fz7pQv3EwYOfxfXZxcVv12rDDblcO7y/xG2B+Iiq/PU1vurGM0SVLDxxtnntf7hD1TTULemjpo8OxStFn1IVz2VMdZu4C6DT3pz1zbOGBjeW1994Y0d/7SfbB6zeX8l+yuwYeZBuBUasVnap9KeOEUUfeqbIzFk0YdQpszGjj2JP9BIfeub3wSd02unk0xLQQtByqIUB9WK1malr1144dOjIwsKP9uw517a3sP7E3y+Z74XlUXRVpUVRywMagbHJL8VPaHyhZqYXF9cPDJxp8OU6i0NKMK7umZ0VDY8+zT2dIjehfX6jW/YwM2ckEdGRfapl0sJt3NTn/sr2k1gruWxRPbMVMlKybaKq2ELFH3Yek53TOqFh3fH86RWMNO6nR+RbjOmWC512PPcX4Vat+RrbmCDjf/HQobeXloaWlrYvLHxn9+6R0dEKr4lW8v0zLfIg2k5yV8c7kslOoe9CieXcBBPWOaNOeh/HI5ikh3493SnXQg2Z11XkF4WpY301rdp11anl8zXO5w/7+6/kPpb60Pj4hr6+yclJPqT9sDFarXil0sVVq2U2iNXnlvx2SEfcc48xm8axJ/kos1+yHQjjUGF0yx5SvZY00OQdG9VBZki90Glvzvrmaar3l9tP5Kxq2fm7X51iWg/VQDV9pVCkiyUesLlRbgWxWtEi8iSZdY7JNGT3gTGndULL1UpMknZLGvMt2eqyodMO7y/CrVrzNbYxP/GT8R9cWtq1tLR5aenR+fm7+/vPetr/cpfc0r9gA0X1am+CCduc2e8EmlHNrtr194wekW/JVAXGomjqWF9Nq3ZddWr5fI3zOX716iP79s2Ky/Xpqalvbts2ODg4NjbGLXK75C9ietF42ekmQR0nHVLkqseS9ZLIZA/1SCLpqjZXpk2TeEtMUbfsYVyPX4jbE9U+1TKh096c9c3TVO8vt5+Ss0hnO15XXl064R1EtM7y5+cJyR4QeyFZIrEV0hWVjXpEQmZRifTlzDmtEyadBKJJbFYVbL7FqC4XOu3he//K/V2/zv7+IwsL9MTfx8Z/69aG+fn1Y2M/6OnRt7Dx+imiZaQNII4I2g/xM1PapHtEOyXtr/bNbfonpButuTfBhGVOKWdQc6VbPJk835KtphRtnjrWV9OqXVedWj5f43wuLCyMjI09MDAwHV+u6UJ9X09Pf3//iRMnZmZmuI9clew1M1rEeLcmqyk76+WkStw7QrfElfxsmuxWSHev2CVi2+W2jnGoMLplD7lOk6pQdJDWqZYJnfbmrG+epnr/MveTWkK+iEU3j3TS6dzzVxPeBEJL1y/dCuZWi8kvYaYlnccyp3VCOUIhmtLNqmIu8H7LLGWh0w7vL8KtWvM14py6evWf9u7dvrDAxv+dubl7L15c/8wz8haWrmp6UQm6bvAhrSrXaOeoDnp7WjdJ0ujun5LsIMtO0gPlDpeNekRC9hIsN3mpOa0BRiRCfufnW4yqpmjz1LG+mlbtuurU8vnmz+fc3NzwhQvrBwYOjY/TExpfqKen6eKtHt7k6hasNK0cES1e2iFZ/fQxT28ULenOOTKS2GFUjfeoQjWLDox9ZqNb9lDVoxeId2Gi2qdaJnTam7O+eZr9e/7L2U/qEkKnuqPGNwCqmrsOREQ9ahnrV7sghmc1VzEmvXolZBY1WWmuquliqNk6oRiRIJrSy1jSmG+JsF3vSkKnHd5fhFu15mvESbewH4yNbejvf3R+np74yfjv2bzZ8UhEpIfJVsm0cF2sftZ0b99fwPuGtPymUt9QRDq/mCE/W6ZFvly5Oe0BiiFii6vtnm+JsE1UtHnqWF9Nq3ZddWr5fK3nky7XZy5ceHDXLrqvPXnypLxQE3JR9N2tpiO7C/Si0zFX9XDdEtd4G5izacSL0g6RW0QM0VtMvXiKcagwumUPzSGJap9qmdBpb8765mm29xNl95NYvw71m5VRlbCf8mgn3GYrZCZP9Khrpq/epTHpPrDMeYdtQv1yKekkkcj99HT5Fq4bc5SHTju8vwi3as03Hyft4ZHR0bv7+9ePjdETv/uRiEgPkzXOtHBdLLkxnHD3l7TkJpga83OKEZrM90be3e1+r79DBEWbp4711bRq11Wnls+36HzSVp+cnLx48SLd18oLNZFZXbkn1FIqVC9aRD5MfkskaUhbdC/xu356vELsPCGYWy3ZZrktmNm4eoZst6SP2nPGDLqzfaplQqe9OeubpwXeT7j2kzqVhP52TxYyW81Bmu3CEaGGyUbqohcsricU/Xqzbc41d1gnzEQpJ4/jI1UcReRbokH6YLnQaYf3F+FWrfla46Q9fHZ09O+3b7fewhrLR+vLh3pd072k95VYc91f4+6fId5NiZDtlGzMdLaos9Kjrpm+2e81/brl50wkRTROHkc6z6NnzLdwPTMspmjz1LG+mlbtuurU8vk6vhlBddBpb8765mmN9zuwfJevQLJXx+VjXDSXCZ12eH8RbtWab1GcjlvYeAcooo2QHqptke5z4WyRafL9oxhuOqu1fwZtoJnOMWpjycb4pdSxfFmaIzNWT7WMOZUkGlNigTMg9HdLviUapw80RYtSx/pqWrXrqlPL51vHtRr4Q6e9OeubB95fEfGFLn/FKofler4c6LTD+4twq9Z8cVmsG7tvL4vM/UNK0aLUsb6aVu266tTy+WKTtwQ67c1Z3zxrSPaBXlvVEk6+++7ewQNP9u2vz/uBP3Ta6eTTEtBC0HKohamL/Po2CvJ+Qh0EgzVfbGMPvG6CiaL7YL5oLpfq9nOYlM8Xm7wl1LeNNT77ObjnfuAPnXY89xfhVvP59vT0YBsHSNGiLHd9Ja3addWp5fPFJm8JdNqbs7554P1tCJ12eH8RUqUAjBhkvuT6vx7jiBO0CloUWhpaI3WcoNc3Xltz4arbz2Gq5fPNnyvQBOi0N2d988D72xA67fD+IqRKARgxcL7a9dlaHHGCVkGLYiwTo9c3Xltz4arbz2Gq5fPNnyvQBOi0N2d988D72xA67fD+IqRKARgxbNq0KW8njjhBq9CLYtwB6PWN19ZcOHi/RI7NnyvQBOi0N2d988D72xA67eF7fwgqnSi9RdlC7rzzTun6jO4DwsFYFH0H8Nxzz3FLvLbmwsH7JXJs/lyBJkCnvTnrmwfe34bQaV9B3k/R5uGfCmi4J0OHhmpAquoao1oT5Njfjrn77rt/9Vd/lWyD/IPyVVoWNRcIBrUwAmqkFfy1X/s1Wk1aU15cpSX81V/9larlNhXh3ldyP6smQX6s6hrTkO8UK24V3h84dNqbs7554P1tCJ12eL9GtSbIsWwP8P6ViFoYATXC+w3g/YFDp70565sH3t+G0GlfQd5vpTkqnSi9RfmHxviZ/0rBWBRePgI/85fA+wOHTntz1jcPvL8NodMO7y9CqnSijC2K3/VbKehF0a7PS6bXN15bc+GavJ91DA2fWeNW/b1/+vr1zbXa5MzM/Py8agKNg057c9Y3T2ve12/8+vVH9uz55OpV7KcqoNNOJz/w9/ULgQdi1EEM50vPjr8WQxU6LNrGoIXQohjLZJBfXKLJ+9kaQzMpn691k09du/bCoUNHFhZ+tGfPuQsX5ubmlNA41q5dq2phQ3F2dHSog2WyZs2ac+fsb9JOp10tQF347OcWPPdfvnbt8YMHrywuPrR379lq9tPKYRnveFr+Tf7ptOO5vwip0okytqjMVz9QGn00uIVtIbQo+llfotc3Xltz4Zq8n3UMDZ9Z41bL55s/V2T8Lx469PbS0tDS0vaFhe/s3j0yOtrAyzW7vuH95JGyherSNelQq/yJT4zsU6vVVCtdWWO31kOI/PzyUA2LkXNu3Bh9eLw6iLGOUse5FgpJ9pfQaW/O+uZptveT8T9x8OBncX12cfHbtdpwc+yfTDa1zsyBMmDRID5uTLTqDxgjYrc258jMX2JC7qeMX87OfXIfaFbwoSZ56LTD+4twq/l8yV3y25io5BbW2JigGOuiEMtdX0nD9xUFyXE2fGaNW9X5fj/GqMuxxvnkJ34y/oNLS7uWljYvLT06P393f//Zhto/kTdFamHfNXyaD7WqJTqkqyTXyaR1nXB7vzEhISU5D9V1H34J3ZNegqyd2/nl8i0E9edGAzrtDVlfK+6xTfX+S/Hlko2fmV5cXD8wcKYZ9i8uq8YVNjrs6BBNaTUx5+j/4vG8RqsruxFyzhITxkgzp3o6P6GPxYjMYAd02uH9RbhVa77GNiaquoWVu8jAISWIW8z8Pok2D2+3qJKFJ842r/0Pd6iahrolfdT00aF4peh2NZ7LmOo2cddFflGYOtZX0/B9RUFynA2fWeNWdb7a72VdjjXOZ2d//5GFBXri72Pjv3Vrw/z8+rGxH/T0TE5Och82SIatMTLStdHi85MuV7gzWyajO+uvEupJUIXGcoXhdnJTbpQDaU6uUKM2aY3sSao+NCYkrHNyLlxn5CS6m27MtxD8WlyX0GlvyPpacY9tqvf/sL+fnpPUQcKh8fENfX16P9EFbmP2gTe+aDHqIhI7a3TcUVNiev1Je5tXnPTiWeuQGrdLHxYXWWXB1utupi2dvdSEqmptj0kPczPHVRd02uH9RbhVa77GNq7wFtaxwCXWPu1AnTOmzMMz96P5Ce3zG92yh5k5I4mIjuxTNRRjUTR1rK+m4fuKguQ4Gz6zxq3qfLXfy7oca5zPqatX/2nv3u0LC2z835mbu/fixfXPPDM4ODg2NsZ96CLLFWl7VCez1BVtfhpq5Kdhlhwd6CvVuZGgnnJOPVC+ig5JQo0S3dmYkFu4Ihvztq3zJWhCrhBcz7cQNCEnZUCnvSHra8U9Noqssa/t8P7xq1cf2bePnpPU8RdfnJ6a+ua2bXI/pdesjDXGJP64lgU61JWkp9UyFcnw5P9M0k9Mkg5MGq3P28lNRoIaVWpCIhsgCQpuFDGSlNRF1QGddnh/EW7Vmq+xjZdzCxuvFq00L63YIpmG9Fi1iAY1JB1xzz3GbBq5n4ztxUdi95kdCONQYXTLHlK9ljREe3OjOsgMqQZjUTR1rK+m4fuKguT3GHgg+et/JcRwC6HVPNRNz6yashhjuSdDh/r9DOS7Heg6jVVdc+dzYWHhg7GxDf39j87P0xM/Gf89mzf39/efOHFiZmaG+6htmEAt7IjaGqVHUl31o40bN8qvBtSHvkrJsNv8bIx1Nus8+Qm5wsghDfF+OURCp91n160Y76f9NDI29sDAAD0n0SEZ/309PcZ+Sq8a+ipDFTqFjLyyyA7JqLRnhOGT7JzUW7SnY9MLo/FyUUtSkWQaLcG4JiRE1BI1yu79BWMM6LTD+4twq2W8f3m3sLb7UX0ryf94RDcJ6ji/vnrxE8mxGbKHYtvorumWtA1XezSmqFv2MK7HL8TtiWqfqqEYi6KpY301VewripNYcd5PzM3NjYyO3t3fv35sjJ74+UI9PU0Xb7Xz82bGLW5/1Y3yqwE/8csHZXJf3k0MHeqXoEPuQ1CdX0UiX0K/en5CarTOSRKrGj0JoXvqxnwLsdqf+wnaT8MXLqwfGKDnJLpc2vZTcqVIryNJk27hBn0Z0hU53Eb0w356TtGXxHhotPIJPDqdNrl6yuclTea1khhKTkgkIwxUs/0SL6/nxdBph/cX4VbLeP/ybmGprvYCE61f/DOedCHTznqto62SoFviSn42jXzRzF5Jt5Awf7mvYoxDhdEte8h1mlSFooO0TtVQ8tcWpo711bRq11Wn6nz1z/llXY61nk+6XJ8dHf377dvpvvbkyZPyQk3QopOlqYMY7Z1GhdAV8lGuy68GNK0xOXXTh1ShQz2QO3OdJtd1gu1W9yR0SPTVmJAbdYueR6samRffplCFXppfLt/CdYLrEjrtDVlfK+6xzfZ+gvbTmQsXHty1y7qf0qtG7jpCDXzhUi36MiSuR+kjlJX4KiU6RFOmh8mFUc8W91fXNDmOH9fSboSKoeyEqi7aVWsyAYncImdUL3I76LTD+4twq9Z889t4Gbewxj5JibYCb4a0Q7LA+fvdVNKdc2QksVeoGr1UgmoWHRj7zEa37KGqRy8Q79FEtU/VUKzXFqKO9dW0atdVp+p8td/LuhxbdD5pq09OTl68eJHua+WFmiALVFuKNpXwTqv3kwtyT6rIzrqDAfVUtew8DKl33nmnOkgsn7rpOsPWK8fyVNYJjUY5p67odoY9Xh2IgNWxaKGZubMBnfaGrK8V99gWeD/h2E/pVSO5jvA1ktC/V6T66MuQvB5Fl6EE3ZiiLTVGDoxQbiwb4/miYzkxz5EZy1MtZ0Kt6lYmiU/nrQOOOonoC6HTDu8vwq1a87Vu47K3sLb70Y501aN+ehtECxxX9XDdohc/P5tGvGi0eZJu2W2jN5168RTjUGF0yx6aQxLVPlVDKbq21LG+mlbtuupUna/2e1mXY4vOJyDI7/UTfB3kf3KgodPekPW14h7bmvf1A0z2qnw7xK2CGzrtdPLxvn51YM23aBuXuoUlomVOiNuTu7pkPZPbPH13q+/75O/Rc6P4XT89XiFuToVgmLfeRma78a8JiZbtlvRRu9aYQXe2T9VQ+KK5XLCfi8C12g2Zd932T98D+scGBvVtY43Pfm7Ncz9IiG2hnP2Xv4bSacdzfxFu1ZovtnGAFC1KHeuradWuq04tny82eUug096c9c0D729D6LTD+4twq9Z8sY0DpGhR6lhfTat2XXVq+XyxyVsCnfbmrG8eeH8bQqcd3l+EW7Xmi20cIEWLUsf6alq166pTy+eLTd4S6LQ3Z33zwPvbEDrt8P4i3Ko1X2zjAClalDrWV9OqXVedWj5fbPKWQKe9Oeubp1rv3w1aBLy/CLdqzReXxQCB9zNutXy+2OQtoZ29/yhoOvB+VbPhVq354rIYIPB+xq2WzxebvCXA+0Ejgfermg23as0Xl8UAgfczbrV8vtjkLQHeDxoJvF/VbLhVa764LAYIvJ9xq+XzxSZvCfB+0Ejg/apmw61a88VlMUDg/YxbLZ8vNnlLaKX3k+wDvbaqJcj39YP3twT2fryvXx1Y88VlMUD4orlcsJ+LwCZvCfVtY43Pfg79uX94PJpzfFgdrk46Ozs3bdp0+PBhdXw78NyvajbcqjVfXBYDpGhR6lhfTat2XXVq+XyLzuf09euba7XJmZn5+XnVBBoHe786sNGo9c3TbO9nL1fMnletxcD7iSeeeKKjo+P+++9/8cUXVZMTeL+q2XCr1nzh/QEC72fcavl8redz6tq1Fw4dOrKw8KM9e85duDA3N6eEtmIZb6yex/PjKlaR90csx8/h/QR7P7Nhw4be3l4lFADvVzUbbtWab5HNjF+//siePZ9cvYpHouYD72fcavl88+eTjP/FQ4feXloaWlravrDwnd27R0ZHfe0/89FQ8iA2YGGj4uOgsuaqP+eK6KhlPk0qMzmRmbNowqhTxvhrHamuX0z3yLUkn41VH6vY+7muX2P2/DHRRaO8X7bGPdXoeNCx8/Ecs+fz3WxDVxLS+4l169Y9/PDDr776qpJzwPtVzYZbteZrtZnL1649fvDglcXFh/buPduUR6L8h46vZuD9jFstn69xPvmJn4z/4NLSrqWlzUtLj87P393ff9bX/oU/S6uO6uIzK+VHRApzjqrCqGsdWd+VExLZOa0TGtYdz5/eG5DG/fSIfIsx3XKB96dGHjWLDmk19nZl23Er15Nq8n9bN74tUI0rEMP7mfXr1w8MDKgeWeD9qmbDrVrzzdsMGf8TBw9+FtdnFxe/XasNO+2/yLO5vaSp57vFzx8R+nDjxo1c584Ed9DoDisdeD/jVsvna5zPzv7+IwsL9MTfx8Z/69aG+fn1Y2M/6OmZnJzkPrGzqn3F5qf8NXVDqpm2SE3KW8UDNjdKH06tOjXcL7LeHpFpSKeOMOa0ThhV5QyEmCTtljTmW7LVZbPqvT9r81ZdPdZLuEeqRMfWbrJxJd4B4LnfoDrVmq9xWbwUP/Gz8TPTi4t0I3am3qf/ur3faImsfu1aaqS6lErOv7KA9zNutXy+xvmcunr1n/bu3b6wwMb/nbm5ey9eXP/MM4ODg2NjY9xnrXxAjk2RrZG8MLpORSYpf36ekDivcODEPYUTp3YqG/WIBPPeNn05c07rhBbbFk1pgEmw+Rajulzg/WW93+bc3IWIRhR2070InnrlgH/vN6hOteZrXBZ/2N9/ZXFRHSQcGh/f0NenH4noKsQVIroiJdZLj93xJUq16K/cSCr5NNcJ7eLqWMzDGKZO9VqtRpuE6lIyurUH8H7GrZbP1zifCwsLH4yNbejvf3R+np74yfjv2by5v7//xIkTMzMz3EfYprJTtnragrXI/2vxXUDeFNkqhZbarZqHSE09fRX5iopMi7Dt/JzWCeUIhWjKO32+JcIyS1ng/Rnvl/6d6sq8Td+Om6kx/j+NKeim4KkLxGBh78fv+WuqU635GpfF8atXH9m3b1bY/+mpqW9u2yYfiWi9yIapwmasrZeuPFxhh+Z26c26g26kFp4qb+FGC9f5paWUH9gGwPsZt1o+3/z5nJubGxkdvbu/f/3YGD3xs/FPT08vJjtfGJ7yVzJB2nzxDYCqaquURD1qGeuPLDmBZ1WTR1o6R/rAnpAxXeHB+TmtE4oRCaIp7+52vxe3ActlFXm/smZG/15ebMaiKn9IH6HMOts8e/4MH7OqRJrT7Kb+vV9h+9FB4HR1dXV2duLv+zXVqdZ8jcsiPRKNjI09MDBAV0E6JOO/r6fHeCTSz9/0VVovX4m4TnB7voOGWhwWbrTI2aSUH9gGwPsZt1o+X+v5JPs/Ozr699u3033tyZMnpfETGfPj+rmN0X1uUiWSHlmof/o7e1k3TqbKTJ7oUddM3+zNQOrHljnvsE2oXy5FmDqJ3E9Pl2/hujFHeVrp/ST7QK+tagl4X7+Ww96P9/WrA2u++csiXROHL1xYPzBwaHycnvjzj0QE2638qjF8XXqz0ZPQLXkLN1p0fWOMY2AbwBfN5YL9XETRvRRt9cnJyYsXL9J9rdzehHiyTmxQemneVlO0h+adUw2TjZHRJnPF9YSiv/GzzbnmDuuEmSjl5InXi6OIfEs0SB8sl/q2scZnPzf7uR80ATz3q5oNt2rN13pZpGvimQsXHty1y/pIRJD7Rs898e/VS1fmCrVoS6YKXUu4nSr8E34NtVAHqkg7Z4q8n6BR+rBdvV/VstSxvppW7brq1PL5Fp1PB1l/Xal4WTeRuXlYNuz96sBGo9Y3D7y/DYH3q5oNt2rNt+iy6HgkIqSja+ulFsa4J6C7BG7kUQyrdCvAh9THsHBuJ/hQqjRKH8L7NdjPEjl21Xo/u3/d9q9/IFEf8H7QSOD9qmbDrVrzreOyCKoG3s+41fL5YpO3BHg/aCTwflWz4Vat+eKyGCDwfsatls8Xm7wlwPtBI4H3q5oNt2rNF5fFAIH3M261fL7Y5C2hnb0ftAR4fxFu1ZovLosBAu9n3Gr5fLHJW0Iben/nngNkPzt6d3UOvffUgfdRmlY6h4Z39u2ik09LAO/P41at+eKyGCDwfsatls8Xm7wltJX3fzg6SpbzTP9rZD+vbN/x7P7jhjmhVFqe3X+MTjudfFoCWghajlbtrZWoWvPFZTFA4P2MWy2fLzZ5S2gr7/9f3/zm1//sz3/vq1+7654HfvcP/uj3v/qnd/3pX1IxLCrMwqHmi9EtwKJDpRNOp51OPi0BLcRHH3/cqr21ElVrvrgsBgi8n3Gr5fPFJm8JrfR+kn2g11a1mAceeOBLX/rS93NQY/gOShGu0OAdkd93331qberCWN+2x5ovLosBwhfN5YL9XAQ2eUuobxtrfPZzg5/72XLUgYAaV4T3r9DgHZF/73vfa+D6GvjMHKZqzReXxQApWpQ61lfTql1XnVo+X2zylsDerw5sNGp98zTP+/+vr33DcKzQSlt6P9GqvbUSVWu+uCwGCLyfcavl88Umbwmrwvu//JU/7KkNPffa8aeHhp86MGK4VwhlBXr/CJ3MZ/cf+/2v/mlR5ESr9tZKVK354rIYIPB+xq2Wz7fofE5fv765VpucmZmfn1dNoHGsCu+/6//9664de17ZvnNn3y71R+iB8Yd/+IdFwZOkOgUGncxXtu/43T/4o6LIiVbtrZWoWvOF9wcIvJ9xq+XztZ7PqWvXXjh06MjCwo/27Dl34cLc3JwSViPLeNv/8m/yvzq8/+77N43cCLncdc8DhcHf84DROajiiJxo1d5aiao130KbmRzfv/Efro5/gkei5gPvZ9xq+Xzz55OM/8VDh95eWhpaWtq+sPCd3btHRkebYf9ksql1Zg6UAYuG9DN3Zav+oF0idmtzjsz8JSbkfsr45ezcJ/fBvqU/3G9VeP+f/j9/tnVg8Jn+157e87OnawepPLFrkCvW0nz1d7/69aLgSeI+P/npq7p/vrQgoz0/o1P6f3/lq0WRE63aWytRteZrtZnr45df73xi/srE/h/98MLI2SY/ErXlR/MtC3g/41bL52ucT37iJ+M/uLS0a2lp89LSo/Pzd/f3n22G/Qtzzvg0H0YfZ6mb0mpiztH/xeN5rSOq5yYRo243YYw0c6qn8xP6WIzIDHbQVt5f9MdmX/+zPz/4+huy7B2M3niuqDRfpQhvG/yO/pruny+tyuiPv/anRZHT11btrZWoWvPN20xk/F1PLn32KdUXbsy++oNvXzg7XOk10XB6q/erZ4/4I33pK39MMMGdCVY1usNKBN7PuNXy+Rrns7O//8jCAj3x97Hx37q1YX5+/djYD3p6JicnuQ/Z5MbsA2/keArllLGzRscdNSWmjpj2Tq2XIUU11Tqkxu3Sh4VrKwsWxp6SaUtnLzWhqlrbY9LD3Mxx1UX7eD/BrsM88ED0s2jie9/73pUrUx99/PEH58+//8EHXN45eVLX86Ul6l+uX7/u7rvpq1F0hyOvv67r+dKSmOmUnj078q1vfYtOMp9tCa1Iq/bWSlSt+RqXxeufRE/8bPzM/MzU3r9Zf+G9M017+rd6v2yMvX4ttRjt1oErEXg/41bL52ucz6mrV/9p797tCwts/N+Zm7v34sX1zzwzODg4NjbGfci5lellrDEm8ce1LNChriQ9rZapSIYn/2eSfmKSdGDSaH3e1rckCjWq1IRENkASFNwoYiQpqYuqg7byfonPzGGqyFcSZsw+qjVf47K478ePzl+ZUAcJl48e3P13G8Qjkem19JCtrhfxIbXzIcEOTe0dHdFVJRqWIz9Kv4RG+jpVarUaTWi0y/qKBt7PuNXy+Rrnc2Fh4YOxsQ39/Y/Oz9MTPxn/PZs39/f3nzhxYmZmhvukfqi9kSpqeypjTNuNCkmqH2P4JDsn9Rbt6djUlo2Xi1qSiiTTaAnGNSEhopaoUXbvLxhj0ErvJ9kHem1VWx0g3/bGmq9xWbw2MT70T48u3Ei/r6bee/enD3wz80iU81q6mHAL+7E+lB3Irbkxj9HHauGykSv0WtRftlsHrkT4orlcsJ+LyN9Lzc3NjYyO3t3fv35sjJ742finp6cXFxe5Q+ptic+pp3zZwg3aCIUj6oqV6If9NdP6af9reHQ6bWK66dO6IPNaSQwlJySSEQaq2e734jbAQX3bWOOzn/Hcb+JWka8kzJh9VGu+xmWRHonG3h/Z93cb5mem6JCMf/sD/yv3SGR6LV9fuJHgQw21uC2Z1fy0krz3c4tstw5cieS9iqljfTWt2nXVqeXztZ5Psv+zo6N/v3073deePHlSGj+R+lziebolsk7Zok1RuGNH7mE/A3lnpkM0ZXqYPKjr2eL+kR71y3SM6mk3QsVQdkJVF+2qNZmARG6RM6oXuR3s/erARqPWNw+838StIl9JmDH7qNZ885dFuiZeODu892/WXz56kJ74bY9Edq91OL3bklktmpaRjbqyMcY9cCUC72fcavl8i84nbfXJycmLFy/Sfa00fiI1t8ToIruM0b87r/poJ5SWGFllgm5M0ZYaY3qpcmPZGM8XHcuJeY7MWJ5qORNqVbcySXw6bx1w1ElEXwi830KYKvKVhBmzj2rN13pZjOz/vTP9f/9d6yMRXQa4on2XKtxCh2TA1MH4Cb/bklmlUTSWKtLONVbvJ2iUPoT3q5qNVu266tTy+RadT8CUNXNG3Cq4gfdbCFNFvpIwY/ZRrfkWXRYdj0TkzeS4REf0ABR5LR8SfBPA9s9wB7cls0q3CzxETythiaC6VGmUPoT3q5qNVu266tTy+cL7b0f8vF/O/q0/x7AC77cQpop8JWHG7KNa88VlMUDg/YxbLZ8vNnlLgPdbCFNFvpIwY/ZRrfk2/7Kont8F/KN+oIH3M261fL7w/pYA77cQpop8JWHG7KNa88VlMUDg/YxbLZ8vNnlLgPdbCFNFvpIwY/ZRrfnishgg8H7GrZbPV30wKGg6zVnfPPB+E7eKfCVhxuyjWvOF9wcIvJ9xq+XzJRM6CppOK72fBgMAHMD7A4QWRS0PaATw/pZAp10tQNPBc7+JW0W+kjBj9lGt+cL7AwTP/YxbLZ8vvL8ltPK5n/5r1WuvRBX5SsKM2Ue15gvvDxB4P+NWy+cL728J8H4LYarIVxJmzD6qNV94f4DA+xm3Wj5feH9LgPdbCFNFvpIwY/ZRrfnC+wME3s+41fL5+nv/8Hg0z/iwOlyddHZ2btq06fDhw+r4dsD7LYSpIl9JmDH7qNZ84f0BAu9n3Gr5fPPez16umD2vWouB9xNPPPFER0fH/fff/+KLL6omJ/B+C2GqyFcSZsw+qjVfeH+AwPsZt1o+X/tz/3L8HN5PsPczGzZs6O3tVUIB8H4LYarIVxJmzD6qNd9Cm5kc37/xH66OfzI/P6+aQLOA9zNutXy+t/d+rusxs+ePiS4a5f2yNe6pRseDjp2P55g9n+9mG7qSkN5PrFu37uGHH3711VeVnAPebyFMFflKwozZR7Xma7WZ6+OXX+98Yv7KxP4f/fDCyNm5uTklrBBW+gf6wfsZt1o+39Lenxp51Cw6pNXY25Vtx61cT6rJ/23d+LZANa5ADO9n1q9fPzAwoHpkgfdbCFNFvpIwY/ZRrfnmbSYy/q4nlz77lOoLN2Zf/cG3L5wdDtz+Dae3er/64KD4U4DpK3/cMMGdCVY1ukPzgfczbrV8vmW9P2vzVl091ku4R6pEx9ZusnEl3gGspOd+kn2g11a11QHybW+s+Ro2c/2T6ImfjZ+Zn5na+zfrL7x3ZgU9/Vu9XzbGXr+WWox268DmQ4uilmc5YD8X0XDvtzk3dyGiEYXddC+Cp1451Pfv/XXjs5/x3G/iVpGvJMyYfVRrvob37/vxo/NXJtRBwuWjB3f/3YbJyUk+jH0zekqu1Wq6whI9K8fPzBHsrNSBrhTcwt3yfeirOl6zhvobLcY8VM+TH8UtElJ1I1UoGJrQaJf1FoLnfsatls+3Pu+X/p3qyrxN346bqTH+P40p6KbgqQvEYGHvx+/5e80cpop8JWHG7KNa8zVs5trE+NA/PbpwI51n6r13f/rANwcHB8fGxriFnJU8krxTV/J+qZ2V+rDl57vl+2jrpZaoR7aF+1gx+lgtXDZyhV6d+st268DmA+9n3Gr5fPPer6yZ0b+XF5uxqMof0kcos842z54/w8esKpHmNLupf+9X2H50EDhdXV2dnZ34+36vmcNUka8kzJh9VGu+hs0sLCyMvT+y7+82zM9M0SEZ//YH/ld/f/+JEydmZma4D7ujtknDO8mAGW6Uku6vehT3UXICteg+VormkchGrnCLbLcObD7wfsatls/X/twPKgbebyFMFflKwozZR7Xmm7eZubm5C2eH9/7N+stHD9ITPxv/9PT04uIid5DGKSsE+TQdykYt6ZYyfXSLJt8iKZpHIht1ZWOMe2DzgfczbrV8vvD+lgDvtxCminwlYcbso1rztdpMZP/vnen/++8ODg6ePHlSGj/B7qhtsshTua5bdLd8n/zdALUYP+HXo6wY80g711jjJGiUPpR9Wgi8n3Gr5fOF97cEeL+FMFXkKwkzZh/Vmm+RzZD9T05OXrx4cWZmRho/we6obVL6ZUfya31U4UYt6W75PmTz3EJwC3VWx7l/F7BizKNnlrBEUF2qNEofwvuthKmWzxfe3xLg/RbCVJGvJMyYfVRrvkU20xLIhsm21cEqBt7PuNXy+cL7WwK830KYKvKVhBmzj2rNNwTv1z8JIFSTE9VVQM/rSmsL4P2MWy2fL7y/JcD7LYSpIl9JmDH7qNZ8g3ruBwy8n3Gr5fMlEwItoTnrmwfv67c8kG97Y80X3h8gtChqeZYD9nMRO3r7Oofee+rA+yhNK51Dw3Ta1QLUhc9+xnO/iVtFvpIwY/ZRrfnC+wMEz/2MWy2f70tbe57df9wwJ5RKy7P7j9Fpb8765oH3m7hV5CsJM2Yf1Zqv+tkcCAy1PFnqWF9Nq3ZddWr5fLu6untqBwxzQqm0bKsNdXV1NWd988D7Tdwq8pWEGbOPas2XbEb9Zg4IBng/41bL5zsxMbGjt6978JThTygVle7XTtEJn5ycbM765oH3m7hV5CsJM2Yf1ZovvD9A4P2MW11Wvlu2bNm5a8/TQ8OGS6E0vNBJplP9/PPP02lv2voawPtN3CrylYQZs49qzRfeHyDwfsatLjffru5u8qTNePqvstATP53krq4uPufNXF8JvN/ErSJfSZgx+6jWfOH9AQLvZ9xqHflu2fL8zt6+ntrQc68dj38GMGJYF0pdZYRO5rP7j9GJpdPLT/xMk9dXA+83cavIVxJmzD6qNV94f4DA+xm3Wl++ExMT9FT60is95FJ0nkFDoJP50tYeOrGTk5PqRMc0f30ZeL+JW0W+kjBj9lGt+dL3rTKcehGfdw7sdHZ2btq0aVkffB4vjkkd66tp1a6rTkW+kjBj9lF98oX3m7hV5CsJM2Yf1Zpv3vvZyxWz51VrMfD+2/LEE090dHTcf//9L774ompyAu9n3CrylYQZs4/qky/e1295IN/2xpqv/bl/OX4O778t7P3Mhg0bent7lVAALYpanuWA/dzeIN/y4LnfxK0iX0mYMfuo1nxv7/1c11PPnj8mumiU98vWuKcaHQ86dj6eY/Z8vpttaPsgvZ9Yt27dww8//Oqrryo5B577GbeKfCVhxuyj+uQL7zdxq8hXEmbMPqo139Lenxp51Cw6pNXY25Vtx61cT6rJ/23d+LZANbYdhvcz69evHxgYUD2ywPsZt4p8JWHG7KP65AvvN3GryFcSZsw+qjXfst6ftXmrrh7rJdwjVaJjazfZ2H53AHjuL8JHRb6SMGP2UX3yhfebuFXkKwkzZh/Vmm/Dvd/m3NyFiEYUdtO9CJ66Xajj3/vVechSx/pqWrXrqlORryTMmH1Un3zh/SZuFflKwozZR7XmW5/3S/9OdWXepm/HzdQY/5/GFHRT8NQF4gqFvR+/55/HR0W+kjBj9lF98oX3m7hV5CsJM2Yf1Zpv3vuVNTP69/JiMxZV+UP6CGXW2ebZ82f4mFUl0pxmN/Xv/Qrbjw5WNF1dXZ2dnfj7/jw+KvKVhBmzj+qTL7zfxK0iX0mYMfuo1nztz/2gpcD7GbeKfCVhxuyj+uQL7zdxq8hXEmbMPqo1X3h/gMD7GbeKfCVhxuyj+uQL7zdxq8hXEmbMPqo1X3h/gMD7GbeKfCVhxuyj+uSL9/VbHsi3vbHmC+8PEFoUtTzLAfu5vUG+5cFzv4lbRb6SMGP2Ua35wvsDBM/9jFtFvpIwY/ZRffKF95u4VeQrCTNmH9WaL7w/QOD9jFtFvpIwY/ZRffKF95u4VeQrCTNmH9WaL9kMCBC1PFnqWF9Nq3ZddSrylYQZs4/qky+838StIl9JmDH7qNZ8d/T2dQ6999SB91ECKZ1Dw7Qoanmy1LG+mlbtuupU5CsJM2Yf1SdfeL+JW0W+kjBj9lGt+b60tefZ/ccN+0FpYXl2/zFaFLU8WepYX02rdl11KvKVhBmzj+qTL7zfxK0iX0mYMfuo1ny7urp7agcM+0FpYdlWG+rq6lLLk6WO9dW0atdVpyJfSZgx+6g++cL7Tdwq8pWEGbOPas13YmJiR29f9+Apw4FQWlK6XztFyzE5OamWJ0sd66tp1a6rTkW+kjBj9lF98oX3m7hV5CsJM2YftSjfLVu27Ny15+mhYcOHUJpcaAloIZ5//nm1MDnqW1+mVbuuOhX5SsKM2Uf1yRfeb+JWka8kzJh9VEe+Xd3d5Dqb8fTfukJP/LQET23apJbERt3rS7Rq11WnIl9JmDH7qD754n39lgfybW/c+XaT/ff29dSGnnvtePwzgBHDnFAqKCN0qp/df4xOO518WgK1GHWB/dzeIN/y4LnfxK0iX0mYMfuot813YmKiq6vrpVd6yIfUn5mDiqFT/dLWHjrt/G/8la6vqtlYiSrylYQZs4/qky+838StIl9JmDH7qMhXEmbMPirylYQZs4+KfCXusfB+E7eKfCVhxuyjIl9JmDH7qMhXEmbMPirylbjHwvtN3CrylYQZs4+KfCVhxuyjIl9JmDH7qMhX4h4L7zdxq8hXEmbMPirylYQZs4+KfCVhxuyjIl+Jeyy838StIl9JmDH7qMhXEmbMPirylYQZs4+KfCXusfB+E7eKfCVhxuyjIl9JmDH7qMhXEmbMPirylbjHwvtN3CrylYQZs4+KfCVhxuyjIl9JmDH7qMhX4h4L7zdxq8hXEmbMPirylYQZs4+KfCVhxuyjIl+Jeyze1295IN/2Bvm2N8i3vUG+5cFzv4lbRb6SMGP2UZGvJMyYfVTkKwkzZh8V+UrcY+H9Jm4V+UrCjNlHRb6SMGP2UZGvJMyYfVTkK3GPhfebuFXkKwkzZh8V+UrCjNlHRb6SMGP2UZGvxD0W3m/iVpGvJMyYfVTkKwkzZh8V+UrCjNlHRb4S91h4v4lbRb6SMGP2UZGvJMyYfVTkKwkzZh8V+UrcY+H9Jm4V+UrCjNlHRb6SMGP2UZGvJMyYfVTkK3GPhfebuFXkKwkzZh8V+UrCjNlHRb6SMGP2UZGvxD0W3m/iVpGvJMyYfVTkKwkzZh8V+UrCjNlHRb4S91h4v4lbRb6SMGP2UZGvJMyYfVTkKwkzZh8V+UrcY/G+fssD+bY3yLe9Qb7tDfItD577Tdwq8pWEGbOPinwlYcbsoyJfSZgx+6jIV+IeC+83cavIVxJmzD4q8pWEGbOPinwlYcbsoyJfiXssvN/ErSJfSZgx+6jIVxJmzD4q8pWEGbOPinwl7rHwfhO3inwlYcbsoyJfSZgx+6jIVxJmzD4q8pW4x8L7Tdwq8pWEGbOPinwlYcbsoyJfSZgx+6jIV+IeC+83cavIVxJmzD4q8pWEGbOPinwlYcbsoyJfiXssvN/ErSJfSZgx+6jIVxJmzD4q8pWEGbOPinwl7rHwfhO3inwlYcbsoyJfSZgx+6jIVxJmzD4q8pW4x8L7Tdwq8pWEGbOPinwlYcbsoyJfSZgx+6jIV+Ieu4YGAwAAAGD1gOd+E7eKfCVhxuyjIl9JmDH7qMhXEmbMPirylbjHwvtN3CrylYQZs4+KfCVhxuyjIl9JmDH7qMhX4h4L7zdxq8hXEmbMPirylYQZs4+KfCVhxuyjIl+Jeyy838StIl9JmDH7qMhXEmbMPirylYQZs4+KfCXusfB+E7eKfCVhxuyjIl9JmDH7qMhXEmbMPirylbjHwvtN3CrylYQZs4+KfCVhxuyjIl9JmDH7qMhX4h4L7zdxq8hXEmbMPirylYQZs4+KfCVhxuyjIl+Jeyy838StIl9JmDH7qMhXEmbMPirylYQZs4+KfCXusfB+E7eKfCVhxuyjIl9JmDH7qMhXEmbMPirylbjHriHZB3ptVVsdIN/2Bvm2N8i3vUG+5cFzv4lbRb6SMGP2UZGvJMyYfVTkKwkzZh8V+UrcY+H9Jm4V+UrCjNlHRb6SMGP2UZGvJMyYfVTkK3GN/eKL/x/rRBGEjgs3ZQAAAABJRU5ErkJggg==;" vertex="1" parent="1">
          <mxGeometry x="190" y="-820" width="681" height="560" as="geometry" />
        </mxCell>
      </root>
    </mxGraphModel>
  </diagram>
</mxfile>
